SplineFontDB: 3.0
FontName: Menlo-BoldItalic
FullName: Menlo Bold Italic
FamilyName: Menlo
Weight: Bold
Copyright: Copyright (c) 2009 Apple Inc. Copyright (c)  2006 by Tavmjong Bah. Copyright (c) 2003 by Bitstream, Inc. All Rights Reserved.
Version: 12.0d1e2
ItalicAngle: -11
UnderlinePosition: -175
UnderlineWidth: 90
Ascent: 1556
Descent: 492
InvalidEm: 0
sfntRevision: 0x0002072b
LayerCount: 2
Layer: 0 1 "Back" 1
Layer: 1 1 "Fore" 0
XUID: [1021 624 289821778 7923047]
StyleMap: 0x0021
FSType: 0
OS2Version: 3
OS2_WeightWidthSlopeOnly: 0
OS2_UseTypoMetrics: 0
CreationTime: 1229875373
ModificationTime: 1534757655
PfmFamily: 17
TTFWeight: 700
TTFWidth: 5
LineGap: 0
VLineGap: 0
Panose: 2 11 7 9 3 3 4 11 2 4
OS2TypoAscent: 1556
OS2TypoAOffset: 0
OS2TypoDescent: -492
OS2TypoDOffset: 0
OS2TypoLinegap: 410
OS2WinAscent: 1901
OS2WinAOffset: 0
OS2WinDescent: 483
OS2WinDOffset: 0
HheadAscent: 1901
HheadAOffset: 0
HheadDescent: -483
HheadDOffset: 0
OS2SubXSize: 1331
OS2SubYSize: 1433
OS2SubXOff: 54
OS2SubYOff: 286
OS2SupXSize: 1331
OS2SupYSize: 1433
OS2SupXOff: -187
OS2SupYOff: 983
OS2StrikeYSize: 102
OS2StrikeYPos: 530
OS2CapHeight: 1495
OS2XHeight: 1120
OS2Vendor: 'PfEd'
OS2CodePages: 6000019f.1fd70000
OS2UnicodeRanges: e60002ff.500071fb.00000020.00000000
Lookup: 4 0 0 "<27,0> Canonical Decomposition lookup 0" { "<27,0> Canonical Decomposition lookup 0 subtable"  } [<27,0> ('grek' <'dflt' > 'latn' <'dflt' > ) ]
Lookup: 4 0 0 "<27,0> Canonical Decomposition lookup 1" { "<27,0> Canonical Decomposition lookup 1 subtable"  } [<27,0> ('DFLT' <'dflt' > 'cyrl' <'dflt' > 'grek' <'dflt' > 'latn' <'dflt' > ) ]
Lookup: 4 0 0 "<27,0> Canonical Decomposition lookup 2" { "<27,0> Canonical Decomposition lookup 2 subtable"  } [<27,0> ('grek' <'dflt' > 'latn' <'dflt' > ) ]
Lookup: 4 0 1 "<1,2> Common Ligatures in Latin lookup 3" { "<1,2> Common Ligatures in Latin lookup 3 subtable"  } [<1,2> ('latn' <'dflt' > ) 'liga' ('latn' <'dflt' > ) ]
DEI: 91125
MacFeat: 1 0 0
MacName: 0 0 9 "Ligatures"

StartChar: .notdef
Encoding: 65536 -1 0
Width: 1233
Flags: W
LayerCount: 2
Fore
SplineSet
104 -362 m 1,0,-1
 104 1444 l 1,1,-1
 1128 1444 l 1,2,-1
 1128 -362 l 1,3,-1
 104 -362 l 1,0,-1
219 -248 m 1,4,-1
 1014 -248 l 1,5,-1
 1014 1329 l 1,6,-1
 219 1329 l 1,7,-1
 219 -248 l 1,4,-1
EndSplineSet
EndChar

StartChar: exclam
Encoding: 33 33 2
Width: 1233
Flags: W
LayerCount: 2
Fore
SplineSet
393 283 m 1,0,-1
 659 283 l 1,1,-1
 604 0 l 1,2,-1
 338 0 l 1,3,-1
 393 283 l 1,0,-1
629 1493 m 1,4,-1
 895 1493 l 1,5,-1
 768 838 l 1,6,-1
 666 481 l 1,7,-1
 467 481 l 1,8,-1
 500 838 l 1,9,-1
 629 1493 l 1,4,-1
EndSplineSet
EndChar

StartChar: quotedbl
Encoding: 34 34 3
Width: 1233
Flags: W
LayerCount: 2
Fore
SplineSet
999 1493 m 1,0,-1
 999 938 l 1,1,-1
 743 938 l 1,2,-1
 743 1493 l 1,3,-1
 999 1493 l 1,0,-1
487 1493 m 1,4,-1
 487 938 l 1,5,-1
 231 938 l 1,6,-1
 231 1493 l 1,7,-1
 487 1493 l 1,4,-1
EndSplineSet
EndChar

StartChar: numbersign
Encoding: 35 35 4
Width: 1233
Flags: W
LayerCount: 2
Fore
SplineSet
752 881 m 1,0,-1
 549 881 l 1,1,-1
 475 588 l 1,2,-1
 678 588 l 1,3,-1
 752 881 l 1,0,-1
696 1470 m 1,4,-1
 602 1096 l 1,5,-1
 807 1096 l 1,6,-1
 901 1470 l 1,7,-1
 1122 1470 l 1,8,-1
 1028 1096 l 1,9,-1
 1268 1096 l 1,10,-1
 1214 881 l 1,11,-1
 973 881 l 1,12,-1
 901 588 l 1,13,-1
 1141 588 l 1,14,-1
 1087 373 l 1,15,-1
 846 373 l 1,16,-1
 752 0 l 1,17,-1
 530 0 l 1,18,-1
 625 373 l 1,19,-1
 420 373 l 1,20,-1
 326 0 l 1,21,-1
 104 0 l 1,22,-1
 199 373 l 1,23,-1
 -41 373 l 1,24,-1
 12 588 l 1,25,-1
 254 588 l 1,26,-1
 326 881 l 1,27,-1
 86 881 l 1,28,-1
 139 1096 l 1,29,-1
 381 1096 l 1,30,-1
 475 1470 l 1,31,-1
 696 1470 l 1,4,-1
EndSplineSet
EndChar

StartChar: dollar
Encoding: 36 36 5
Width: 1233
Flags: W
LayerCount: 2
Fore
SplineSet
647 532 m 1,0,-1
 588 227 l 1,1,2
 670 238 670 238 719 285.5 c 128,-1,3
 768 333 768 333 768 401 c 0,4,5
 768 453 768 453 739.5 484 c 128,-1,6
 711 515 711 515 647 532 c 1,0,-1
561 821 m 1,7,-1
 614 1099 l 1,8,9
 542 1090 542 1090 500.5 1045 c 128,-1,10
 459 1000 459 1000 459 932 c 0,11,12
 459 890 459 890 485 861.5 c 128,-1,13
 511 833 511 833 561 821 c 1,7,-1
485 -301 m 1,14,-1
 344 -301 l 1,15,-1
 401 0 l 1,16,17
 316 2 316 2 226 25 c 128,-1,18
 136 48 136 48 39 92 c 1,19,-1
 90 354 l 1,20,21
 179 293 179 293 268 260 c 128,-1,22
 357 227 357 227 444 223 c 1,23,-1
 512 569 l 1,24,25
 355 609 355 609 277 691 c 128,-1,26
 199 773 199 773 199 897 c 0,27,28
 199 1074 199 1074 326.5 1192.5 c 128,-1,29
 454 1311 454 1311 657 1319 c 1,30,-1
 705 1556 l 1,31,-1
 846 1556 l 1,32,-1
 799 1319 l 1,33,34
 870 1315 870 1315 943 1301 c 128,-1,35
 1016 1287 1016 1287 1092 1262 c 1,36,-1
 1042 1012 l 1,37,38
 982 1051 982 1051 910.5 1073 c 128,-1,39
 839 1095 839 1095 758 1100 c 1,40,-1
 694 782 l 1,41,42
 866 736 866 736 947 652 c 128,-1,43
 1028 568 1028 568 1028 438 c 0,44,45
 1028 254 1028 254 896.5 134.5 c 128,-1,46
 765 15 765 15 543 0 c 1,47,-1
 485 -301 l 1,14,-1
EndSplineSet
EndChar

StartChar: percent
Encoding: 37 37 6
Width: 1233
Flags: W
LayerCount: 2
Fore
SplineSet
33 1112 m 256,0,1
 33 1246 33 1246 126 1339 c 128,-1,2
 219 1432 219 1432 352 1432 c 256,3,4
 485 1432 485 1432 578.5 1338.5 c 128,-1,5
 672 1245 672 1245 672 1112 c 256,6,7
 672 979 672 979 578.5 886 c 128,-1,8
 485 793 485 793 352 793 c 256,9,10
 219 793 219 793 126 885.5 c 128,-1,11
 33 978 33 978 33 1112 c 256,0,1
352 1249 m 256,12,13
 295 1249 295 1249 255 1209.5 c 128,-1,14
 215 1170 215 1170 215 1112 c 256,15,16
 215 1054 215 1054 255 1014.5 c 128,-1,17
 295 975 295 975 352 975 c 0,18,19
 410 975 410 975 449.5 1014.5 c 128,-1,20
 489 1054 489 1054 489 1112 c 0,21,22
 489 1169 489 1169 449 1209 c 128,-1,23
 409 1249 409 1249 352 1249 c 256,12,13
86 561 m 1,24,-1
 1128 979 l 1,25,-1
 1169 883 l 1,26,-1
 121 465 l 1,27,-1
 86 561 l 1,24,-1
580 319 m 256,28,29
 580 453 580 453 672.5 546 c 128,-1,30
 765 639 765 639 899 639 c 0,31,32
 1031 639 1031 639 1125 545.5 c 128,-1,33
 1219 452 1219 452 1219 319 c 0,34,35
 1219 187 1219 187 1125 93.5 c 128,-1,36
 1031 0 1031 0 899 0 c 0,37,38
 765 0 765 0 672.5 92.5 c 128,-1,39
 580 185 580 185 580 319 c 256,28,29
897 457 m 0,40,41
 841 457 841 457 801.5 417 c 128,-1,42
 762 377 762 377 762 319 c 256,43,44
 762 261 762 261 801 221.5 c 128,-1,45
 840 182 840 182 897 182 c 0,46,47
 955 182 955 182 995.5 222 c 128,-1,48
 1036 262 1036 262 1036 319 c 256,49,50
 1036 376 1036 376 995 416.5 c 128,-1,51
 954 457 954 457 897 457 c 0,40,41
EndSplineSet
EndChar

StartChar: ampersand
Encoding: 38 38 7
Width: 1233
Flags: W
LayerCount: 2
Fore
SplineSet
739 72 m 1,0,1
 653 22 653 22 563.5 -3.5 c 128,-1,2
 474 -29 474 -29 387 -29 c 0,3,4
 195 -29 195 -29 81 77.5 c 128,-1,5
 -33 184 -33 184 -33 360 c 0,6,7
 -33 523 -33 523 65.5 665.5 c 128,-1,8
 164 808 164 808 350 913 c 1,9,10
 324 971 324 971 311.5 1021 c 128,-1,11
 299 1071 299 1071 299 1118 c 0,12,13
 299 1301 299 1301 433 1410.5 c 128,-1,14
 567 1520 567 1520 795 1520 c 0,15,16
 865 1520 865 1520 932.5 1509 c 128,-1,17
 1000 1498 1000 1498 1065 1477 c 1,18,-1
 1016 1221 l 1,19,20
 962 1256 962 1256 898 1275 c 128,-1,21
 834 1294 834 1294 768 1294 c 0,22,23
 680 1294 680 1294 633 1258.5 c 128,-1,24
 586 1223 586 1223 586 1157 c 0,25,26
 586 1123 586 1123 605 1065 c 128,-1,27
 624 1007 624 1007 664 920 c 2,28,-1
 885 440 l 1,29,30
 927 498 927 498 951 575 c 128,-1,31
 975 652 975 652 979 745 c 1,32,-1
 1214 745 l 1,33,34
 1203 588 1203 588 1143 462.5 c 128,-1,35
 1083 337 1083 337 975 246 c 1,36,-1
 1090 0 l 1,37,-1
 774 0 l 1,38,-1
 739 72 l 1,0,1
436 731 m 1,39,40
 346 679 346 679 299 604.5 c 128,-1,41
 252 530 252 530 252 438 c 0,42,43
 252 339 252 339 315.5 273 c 128,-1,44
 379 207 379 207 473 207 c 0,45,46
 517 207 517 207 562 220.5 c 128,-1,47
 607 234 607 234 653 262 c 1,48,-1
 436 731 l 1,39,40
EndSplineSet
EndChar

StartChar: quotesingle
Encoding: 39 39 8
Width: 1233
Flags: W
LayerCount: 2
Fore
SplineSet
743 1493 m 1,0,-1
 743 938 l 1,1,-1
 487 938 l 1,2,-1
 487 1493 l 1,3,-1
 743 1493 l 1,0,-1
EndSplineSet
EndChar

StartChar: parenleft
Encoding: 40 40 9
Width: 1233
Flags: W
LayerCount: 2
Fore
SplineSet
1079 1554 m 1,0,1
 846 1242 846 1242 729 940.5 c 128,-1,2
 612 639 612 639 612 346 c 0,3,4
 612 203 612 203 640 49.5 c 128,-1,5
 668 -104 668 -104 725 -270 c 1,6,-1
 500 -270 l 1,7,8
 418 -98 418 -98 378 67 c 128,-1,9
 338 232 338 232 338 393 c 0,10,11
 338 683 338 683 467.5 974 c 128,-1,12
 597 1265 597 1265 854 1554 c 1,13,-1
 1079 1554 l 1,0,1
EndSplineSet
EndChar

StartChar: parenright
Encoding: 41 41 10
Width: 1233
Flags: W
LayerCount: 2
Fore
SplineSet
113 -270 m 1,0,1
 346 42 346 42 463 343.5 c 128,-1,2
 580 645 580 645 580 938 c 0,3,4
 580 1081 580 1081 552 1234.5 c 128,-1,5
 524 1388 524 1388 467 1554 c 1,6,-1
 692 1554 l 1,7,8
 773 1383 773 1383 813.5 1218 c 128,-1,9
 854 1053 854 1053 854 891 c 0,10,11
 854 601 854 601 724.5 310 c 128,-1,12
 595 19 595 19 338 -270 c 1,13,-1
 113 -270 l 1,0,1
EndSplineSet
EndChar

StartChar: asterisk
Encoding: 42 42 11
Width: 1233
Flags: W
LayerCount: 2
Fore
SplineSet
1175 852 m 1,0,-1
 762 629 l 1,1,-1
 1176 404 l 1,2,-1
 1088 252 l 1,3,-1
 697 488 l 1,4,-1
 697 51 l 1,5,-1
 520 51 l 1,6,-1
 520 487 l 1,7,8
 425 430 425 430 324 369 c 128,-1,9
 223 308 223 308 129 252 c 1,10,-1
 42 404 l 1,11,-1
 457 629 l 1,12,-1
 43 852 l 1,13,-1
 129 1005 l 1,14,-1
 520 770 l 1,15,-1
 520 1206 l 1,16,-1
 697 1206 l 1,17,-1
 697 770 l 1,18,19
 793 827 793 827 893.5 888 c 128,-1,20
 994 949 994 949 1088 1005 c 1,21,-1
 1175 852 l 1,0,-1
EndSplineSet
EndChar

StartChar: plus
Encoding: 43 43 12
Width: 1233
Flags: W
LayerCount: 2
Fore
SplineSet
735 1192 m 1,0,-1
 735 762 l 1,1,-1
 1165 762 l 1,2,-1
 1165 524 l 1,3,-1
 735 524 l 1,4,-1
 735 92 l 1,5,-1
 498 92 l 1,6,-1
 498 524 l 1,7,-1
 66 524 l 1,8,-1
 66 762 l 1,9,-1
 498 762 l 1,10,-1
 498 1192 l 1,11,-1
 735 1192 l 1,0,-1
EndSplineSet
EndChar

StartChar: comma
Encoding: 44 44 13
Width: 1233
Flags: W
LayerCount: 2
Fore
SplineSet
434 367 m 1,0,-1
 748 367 l 1,1,-1
 694 96 l 1,2,-1
 424 -287 l 1,3,-1
 209 -287 l 1,4,-1
 381 96 l 1,5,-1
 434 367 l 1,0,-1
EndSplineSet
EndChar

StartChar: hyphen
Encoding: 45 45 14
Width: 1233
Flags: W
LayerCount: 2
Fore
SplineSet
123 724 m 1,0,-1
 1183 724 l 1,1,-1
 1140 455 l 1,2,-1
 80 455 l 1,3,-1
 123 724 l 1,0,-1
EndSplineSet
EndChar

StartChar: period
Encoding: 46 46 15
Width: 1233
Flags: W
LayerCount: 2
Fore
SplineSet
418 367 m 1,0,-1
 752 367 l 1,1,-1
 682 0 l 1,2,-1
 348 0 l 1,3,-1
 418 367 l 1,0,-1
EndSplineSet
EndChar

StartChar: slash
Encoding: 47 47 16
Width: 1233
Flags: W
LayerCount: 2
Fore
SplineSet
852 1493 m 1,0,-1
 1075 1493 l 1,1,-1
 221 -190 l 1,2,-1
 0 -190 l 1,3,-1
 852 1493 l 1,0,-1
EndSplineSet
EndChar

StartChar: zero
Encoding: 48 48 17
Width: 1233
Flags: W
LayerCount: 2
Fore
SplineSet
1143 1071 m 0,0,1
 1143 858 1143 858 1092 638.5 c 128,-1,2
 1041 419 1041 419 956 260 c 0,3,4
 883 123 883 123 762.5 47 c 128,-1,5
 642 -29 642 -29 498 -29 c 0,6,7
 305 -29 305 -29 197.5 89 c 128,-1,8
 90 207 90 207 90 420 c 0,9,10
 90 631 90 631 140.5 852 c 128,-1,11
 191 1073 191 1073 274 1229 c 0,12,13
 348 1366 348 1366 469 1443 c 128,-1,14
 590 1520 590 1520 733 1520 c 0,15,16
 926 1520 926 1520 1034.5 1401.5 c 128,-1,17
 1143 1283 1143 1283 1143 1071 c 0,0,1
417 273 m 0,18,19
 451 219 451 219 522 219 c 0,20,21
 586 219 586 219 639.5 272 c 128,-1,22
 693 325 693 325 729 424 c 0,23,24
 783 576 783 576 815 750 c 0,25,26
 829 826 829 826 837 892 c 1,27,-1
 383 409 l 1,28,29
 388 319 388 319 417 273 c 0,18,19
815 1218 m 0,30,31
 782 1272 782 1272 711 1272 c 0,32,33
 644 1272 644 1272 591 1220 c 128,-1,34
 538 1168 538 1168 502 1067 c 0,35,36
 448 918 448 918 415 744 c 0,37,38
 404 684 404 684 397 630 c 1,39,-1
 845 1109 l 1,40,41
 839 1179 839 1179 815 1218 c 0,30,31
EndSplineSet
EndChar

StartChar: one
Encoding: 49 49 18
Width: 1233
Flags: W
LayerCount: 2
Fore
SplineSet
94 260 m 1,0,-1
 424 260 l 1,1,-1
 612 1229 l 1,2,-1
 291 1153 l 1,3,-1
 342 1419 l 1,4,-1
 668 1493 l 1,5,-1
 950 1493 l 1,6,-1
 711 260 l 1,7,-1
 1020 260 l 1,8,-1
 969 0 l 1,9,-1
 43 0 l 1,10,-1
 94 260 l 1,0,-1
EndSplineSet
EndChar

StartChar: two
Encoding: 50 50 19
Width: 1233
Flags: W
LayerCount: 2
Fore
SplineSet
354 260 m 1,0,-1
 971 260 l 1,1,-1
 920 0 l 1,2,-1
 -29 0 l 1,3,-1
 20 252 l 1,4,-1
 297 500 l 2,5,6
 348 546 348 546 442 628 c 0,7,8
 844 982 844 982 844 1135 c 0,9,10
 844 1207 844 1207 788 1247.5 c 128,-1,11
 732 1288 732 1288 633 1288 c 0,12,13
 551 1288 551 1288 447 1258.5 c 128,-1,14
 343 1229 343 1229 225 1171 c 1,15,-1
 276 1438 l 1,16,17
 385 1478 385 1478 492 1499 c 128,-1,18
 599 1520 599 1520 700 1520 c 0,19,20
 893 1520 893 1520 1014 1425 c 128,-1,21
 1135 1330 1135 1330 1135 1180 c 0,22,23
 1135 931 1135 931 681 542 c 2,24,-1
 641 508 l 1,25,-1
 354 260 l 1,0,-1
EndSplineSet
EndChar

StartChar: three
Encoding: 51 51 20
Width: 1233
Flags: W
LayerCount: 2
Fore
SplineSet
514 668 m 2,0,-1
 356 668 l 1,1,-1
 408 928 l 1,2,-1
 565 928 l 2,3,4
 689 928 689 928 766.5 983.5 c 128,-1,5
 844 1039 844 1039 844 1124 c 0,6,7
 844 1194 844 1194 786.5 1232 c 128,-1,8
 729 1270 729 1270 623 1270 c 0,9,10
 540 1270 540 1270 440.5 1249 c 128,-1,11
 341 1228 341 1228 231 1188 c 1,12,-1
 285 1456 l 1,13,14
 389 1488 389 1488 485.5 1504 c 128,-1,15
 582 1520 582 1520 670 1520 c 0,16,17
 874 1520 874 1520 997 1423 c 128,-1,18
 1120 1326 1120 1326 1120 1167 c 0,19,20
 1120 1027 1120 1027 1025.5 930.5 c 128,-1,21
 931 834 931 834 764 805 c 1,22,23
 898 769 898 769 964 687 c 128,-1,24
 1030 605 1030 605 1030 473 c 0,25,26
 1030 243 1030 243 866.5 107 c 128,-1,27
 703 -29 703 -29 422 -29 c 0,28,29
 320 -29 320 -29 205.5 -10 c 128,-1,30
 91 9 91 9 -31 45 c 1,31,-1
 23 315 l 1,32,33
 119 269 119 269 222.5 245 c 128,-1,34
 326 221 326 221 434 221 c 0,35,36
 588 221 588 221 669 289.5 c 128,-1,37
 750 358 750 358 750 487 c 0,38,39
 750 569 750 569 685.5 618.5 c 128,-1,40
 621 668 621 668 514 668 c 2,0,-1
EndSplineSet
EndChar

StartChar: four
Encoding: 52 52 21
Width: 1233
Flags: W
LayerCount: 2
Fore
SplineSet
772 1153 m 1,0,-1
 289 575 l 1,1,-1
 662 575 l 1,2,-1
 772 1153 l 1,0,-1
811 1493 m 1,3,-1
 1120 1493 l 1,4,-1
 942 575 l 1,5,-1
 1106 575 l 1,6,-1
 1057 322 l 1,7,-1
 893 322 l 1,8,-1
 831 0 l 1,9,-1
 549 0 l 1,10,-1
 612 322 l 1,11,-1
 18 322 l 1,12,-1
 76 608 l 1,13,-1
 811 1493 l 1,3,-1
EndSplineSet
EndChar

StartChar: five
Encoding: 53 53 22
Width: 1233
Flags: W
LayerCount: 2
Fore
SplineSet
340 1493 m 1,0,-1
 1151 1493 l 1,1,-1
 1100 1233 l 1,2,-1
 528 1233 l 1,3,-1
 475 956 l 1,4,5
 508 969 508 969 544 975 c 128,-1,6
 580 981 580 981 621 981 c 0,7,8
 818 981 818 981 934.5 864.5 c 128,-1,9
 1051 748 1051 748 1051 551 c 0,10,11
 1051 284 1051 284 873 127.5 c 128,-1,12
 695 -29 695 -29 387 -29 c 0,13,14
 292 -29 292 -29 196.5 -13 c 128,-1,15
 101 3 101 3 6 35 c 1,16,-1
 57 301 l 1,17,18
 127 261 127 261 212.5 240 c 128,-1,19
 298 219 298 219 393 219 c 0,20,21
 565 219 565 219 664.5 298 c 128,-1,22
 764 377 764 377 764 512 c 0,23,24
 764 616 764 616 693 676.5 c 128,-1,25
 622 737 622 737 500 737 c 0,26,27
 422 737 422 737 339.5 717 c 128,-1,28
 257 697 257 697 178 659 c 1,29,-1
 340 1493 l 1,0,-1
EndSplineSet
EndChar

StartChar: six
Encoding: 54 54 23
Width: 1233
Flags: W
LayerCount: 2
Fore
SplineSet
803 557 m 0,0,1
 803 645 803 645 757.5 696.5 c 128,-1,2
 712 748 712 748 635 748 c 0,3,4
 530 748 530 748 456.5 648 c 128,-1,5
 383 548 383 548 383 401 c 0,6,7
 383 313 383 313 428.5 260 c 128,-1,8
 474 207 474 207 549 207 c 0,9,10
 657 207 657 207 730 307 c 128,-1,11
 803 407 803 407 803 557 c 0,0,1
1169 1458 m 1,12,-1
 1118 1190 l 1,13,14
 1058 1234 1058 1234 988 1257 c 128,-1,15
 918 1280 918 1280 846 1280 c 0,16,17
 689 1280 689 1280 583 1171.5 c 128,-1,18
 477 1063 477 1063 430 854 c 1,19,20
 490 919 490 919 566 952 c 128,-1,21
 642 985 642 985 731 985 c 0,22,23
 898 985 898 985 995 873.5 c 128,-1,24
 1092 762 1092 762 1092 569 c 0,25,26
 1092 310 1092 310 938 138.5 c 128,-1,27
 784 -33 784 -33 551 -33 c 0,28,29
 324 -33 324 -33 210 92.5 c 128,-1,30
 96 218 96 218 96 469 c 0,31,32
 96 686 96 686 156.5 891 c 128,-1,33
 217 1096 217 1096 326 1247 c 0,34,35
 424 1383 424 1383 563 1450.5 c 128,-1,36
 702 1518 702 1518 887 1518 c 0,37,38
 954 1518 954 1518 1023.5 1503 c 128,-1,39
 1093 1488 1093 1488 1169 1458 c 1,12,-1
EndSplineSet
EndChar

StartChar: seven
Encoding: 55 55 24
Width: 1233
Flags: W
LayerCount: 2
Fore
SplineSet
262 1493 m 1,0,-1
 1225 1493 l 1,1,-1
 1184 1284 l 1,2,-1
 428 0 l 1,3,-1
 109 0 l 1,4,-1
 844 1233 l 1,5,-1
 211 1233 l 1,6,-1
 262 1493 l 1,0,-1
EndSplineSet
EndChar

StartChar: eight
Encoding: 56 56 25
Width: 1233
Flags: W
LayerCount: 2
Fore
SplineSet
778 477 m 0,0,1
 778 565 778 565 724.5 616.5 c 128,-1,2
 671 668 671 668 580 668 c 0,3,4
 468 668 468 668 397 592.5 c 128,-1,5
 326 517 326 517 326 399 c 0,6,7
 326 313 326 313 381.5 261 c 128,-1,8
 437 209 437 209 528 209 c 0,9,10
 637 209 637 209 707.5 284.5 c 128,-1,11
 778 360 778 360 778 477 c 0,0,1
434 799 m 1,12,13
 330 826 330 826 276.5 896.5 c 128,-1,14
 223 967 223 967 223 1077 c 0,15,16
 223 1260 223 1260 370.5 1390 c 128,-1,17
 518 1520 518 1520 731 1520 c 0,18,19
 912 1520 912 1520 1024.5 1421 c 128,-1,20
 1137 1322 1137 1322 1137 1163 c 0,21,22
 1137 1015 1137 1015 1048 913 c 128,-1,23
 959 811 959 811 809 786 c 1,24,25
 918 757 918 757 979 672.5 c 128,-1,26
 1040 588 1040 588 1040 465 c 0,27,28
 1040 245 1040 245 891.5 108 c 128,-1,29
 743 -29 743 -29 504 -29 c 0,30,31
 294 -29 294 -29 178.5 70.5 c 128,-1,32
 63 170 63 170 63 350 c 0,33,34
 63 519 63 519 162 638.5 c 128,-1,35
 261 758 261 758 434 799 c 1,12,13
485 1069 m 0,36,37
 485 996 485 996 530.5 949.5 c 128,-1,38
 576 903 576 903 647 903 c 0,39,40
 748 903 748 903 812.5 963 c 128,-1,41
 877 1023 877 1023 877 1116 c 0,42,43
 877 1195 877 1195 831 1239.5 c 128,-1,44
 785 1284 785 1284 702 1284 c 0,45,46
 610 1284 610 1284 547.5 1222 c 128,-1,47
 485 1160 485 1160 485 1069 c 0,36,37
EndSplineSet
EndChar

StartChar: nine
Encoding: 57 57 26
Width: 1233
Flags: W
LayerCount: 2
Fore
SplineSet
55 29 m 1,0,-1
 106 297 l 1,1,2
 167 253 167 253 237 230 c 128,-1,3
 307 207 307 207 379 207 c 0,4,5
 535 207 535 207 641 315.5 c 128,-1,6
 747 424 747 424 795 633 c 1,7,8
 734 568 734 568 658 535 c 128,-1,9
 582 502 582 502 494 502 c 0,10,11
 328 502 328 502 231.5 613 c 128,-1,12
 135 724 135 724 135 918 c 0,13,14
 135 1177 135 1177 288 1348.5 c 128,-1,15
 441 1520 441 1520 674 1520 c 0,16,17
 901 1520 901 1520 1014.5 1394 c 128,-1,18
 1128 1268 1128 1268 1128 1018 c 0,19,20
 1128 801 1128 801 1067.5 594.5 c 128,-1,21
 1007 388 1007 388 899 238 c 0,22,23
 802 102 802 102 663 35.5 c 128,-1,24
 524 -31 524 -31 338 -31 c 0,25,26
 271 -31 271 -31 201 -16 c 128,-1,27
 131 -1 131 -1 55 29 c 1,0,-1
424 928 m 0,28,29
 424 840 424 840 468.5 789.5 c 128,-1,30
 513 739 513 739 590 739 c 0,31,32
 694 739 694 739 768 839 c 128,-1,33
 842 939 842 939 842 1085 c 0,34,35
 842 1173 842 1173 796.5 1226.5 c 128,-1,36
 751 1280 751 1280 676 1280 c 0,37,38
 568 1280 568 1280 496 1179 c 128,-1,39
 424 1078 424 1078 424 928 c 0,28,29
EndSplineSet
EndChar

StartChar: colon
Encoding: 58 58 27
Width: 1233
Flags: W
LayerCount: 2
Fore
SplineSet
510 1063 m 1,0,-1
 844 1063 l 1,1,-1
 772 698 l 1,2,-1
 438 698 l 1,3,-1
 510 1063 l 1,0,-1
375 367 m 1,4,-1
 709 367 l 1,5,-1
 639 0 l 1,6,-1
 305 0 l 1,7,-1
 375 367 l 1,4,-1
EndSplineSet
EndChar

StartChar: semicolon
Encoding: 59 59 28
Width: 1233
Flags: W
LayerCount: 2
Fore
SplineSet
375 367 m 1,0,-1
 709 367 l 1,1,-1
 655 96 l 1,2,-1
 385 -287 l 1,3,-1
 170 -287 l 1,4,-1
 322 96 l 1,5,-1
 375 367 l 1,0,-1
510 1063 m 1,6,-1
 844 1063 l 1,7,-1
 772 698 l 1,8,-1
 438 698 l 1,9,-1
 510 1063 l 1,6,-1
EndSplineSet
EndChar

StartChar: less
Encoding: 60 60 29
Width: 1233
Flags: W
LayerCount: 2
Fore
SplineSet
1145 926 m 1,0,-1
 350 641 l 1,1,-1
 1145 358 l 1,2,-1
 1145 109 l 1,3,-1
 88 524 l 1,4,-1
 88 760 l 1,5,-1
 1145 1176 l 1,6,-1
 1145 926 l 1,0,-1
EndSplineSet
EndChar

StartChar: equal
Encoding: 61 61 30
Width: 1233
Flags: W
LayerCount: 2
Fore
SplineSet
88 532 m 1,0,-1
 1145 532 l 1,1,-1
 1145 295 l 1,2,-1
 88 295 l 1,3,-1
 88 532 l 1,0,-1
88 987 m 1,4,-1
 1145 987 l 1,5,-1
 1145 752 l 1,6,-1
 88 752 l 1,7,-1
 88 987 l 1,4,-1
EndSplineSet
EndChar

StartChar: greater
Encoding: 62 62 31
Width: 1233
Flags: W
LayerCount: 2
Fore
SplineSet
88 926 m 1,0,-1
 88 1176 l 1,1,-1
 1145 760 l 1,2,-1
 1145 524 l 1,3,-1
 88 109 l 1,4,-1
 88 358 l 1,5,-1
 883 641 l 1,6,-1
 88 926 l 1,0,-1
EndSplineSet
EndChar

StartChar: question
Encoding: 63 63 32
Width: 1233
Flags: W
LayerCount: 2
Fore
SplineSet
346 283 m 1,0,-1
 612 283 l 1,1,-1
 557 0 l 1,2,-1
 291 0 l 1,3,-1
 346 283 l 1,0,-1
635 401 m 1,4,-1
 369 401 l 1,5,-1
 399 555 l 2,6,7
 417 651 417 651 461 722.5 c 128,-1,8
 505 794 505 794 598 872 c 2,9,-1
 705 965 l 1,10,-1
 713 972 l 2,11,12
 858 1098 858 1098 858 1165 c 0,13,14
 858 1222 858 1222 821 1253 c 128,-1,15
 784 1284 784 1284 715 1284 c 0,16,17
 626 1284 626 1284 523.5 1247.5 c 128,-1,18
 421 1211 421 1211 305 1139 c 1,19,-1
 358 1407 l 1,20,21
 460 1462 460 1462 567 1491 c 128,-1,22
 674 1520 674 1520 778 1520 c 0,23,24
 943 1520 943 1520 1042 1437.5 c 128,-1,25
 1141 1355 1141 1355 1141 1221 c 0,26,27
 1141 1126 1141 1126 1092 1043 c 128,-1,28
 1043 960 1043 960 926 862 c 2,29,-1
 821 776 l 1,30,-1
 813 769 l 2,31,32
 687 664 687 664 659 524 c 2,33,-1
 635 401 l 1,4,-1
EndSplineSet
EndChar

StartChar: at
Encoding: 64 64 33
Width: 1233
Flags: W
LayerCount: 2
Fore
SplineSet
723 301 m 0,0,1
 827 301 827 301 898 392.5 c 128,-1,2
 969 484 969 484 969 621 c 0,3,4
 969 698 969 698 928.5 742 c 128,-1,5
 888 786 888 786 817 786 c 0,6,7
 714 786 714 786 642.5 696.5 c 128,-1,8
 571 607 571 607 571 477 c 0,9,10
 571 394 571 394 611 347.5 c 128,-1,11
 651 301 651 301 723 301 c 0,0,1
1067 135 m 1,12,-1
 870 135 l 1,13,-1
 887 217 l 1,14,15
 844 168 844 168 787 141.5 c 128,-1,16
 730 115 730 115 670 115 c 0,17,18
 531 115 531 115 451 203 c 128,-1,19
 371 291 371 291 371 444 c 0,20,21
 371 666 371 666 498.5 819.5 c 128,-1,22
 626 973 626 973 809 973 c 0,23,24
 881 973 881 973 933 948.5 c 128,-1,25
 985 924 985 924 1014 877 c 1,26,27
 1023 912 1023 912 1027.5 945 c 128,-1,28
 1032 978 1032 978 1032 1008 c 0,29,30
 1032 1099 1032 1099 970 1152.5 c 128,-1,31
 908 1206 908 1206 803 1206 c 0,32,33
 679 1206 679 1206 566 1142.5 c 128,-1,34
 453 1079 453 1079 365 961 c 0,35,36
 274 838 274 838 226 690 c 128,-1,37
 178 542 178 542 178 387 c 0,38,39
 178 148 178 148 296 8.5 c 128,-1,40
 414 -131 414 -131 614 -131 c 0,41,42
 693 -131 693 -131 774 -107 c 128,-1,43
 855 -83 855 -83 936 -35 c 1,44,-1
 999 -209 l 1,45,46
 892 -266 892 -266 796.5 -292.5 c 128,-1,47
 701 -319 701 -319 606 -319 c 0,48,49
 321 -319 321 -319 153.5 -128 c 128,-1,50
 -14 63 -14 63 -14 387 c 0,51,52
 -14 551 -14 551 30 709 c 128,-1,53
 74 867 74 867 158 1004 c 0,54,55
 274 1190 274 1190 442 1292.5 c 128,-1,56
 610 1395 610 1395 799 1395 c 0,57,58
 993 1395 993 1395 1111 1292.5 c 128,-1,59
 1229 1190 1229 1190 1229 1022 c 0,60,61
 1229 992 1229 992 1225.5 960 c 128,-1,62
 1222 928 1222 928 1214 892 c 2,63,-1
 1067 135 l 1,12,-1
EndSplineSet
EndChar

StartChar: A
Encoding: 65 65 34
Width: 1233
Flags: W
LayerCount: 2
Fore
SplineSet
717 1219 m 1,0,-1
 453 612 l 1,1,-1
 737 612 l 1,2,-1
 717 1219 l 1,0,-1
582 1493 m 1,3,-1
 942 1493 l 1,4,-1
 1055 0 l 1,5,-1
 762 0 l 1,6,-1
 748 369 l 1,7,-1
 348 369 l 1,8,-1
 186 0 l 1,9,-1
 -113 0 l 1,10,-1
 582 1493 l 1,3,-1
EndSplineSet
EndChar

StartChar: B
Encoding: 66 66 35
Width: 1233
Flags: W
LayerCount: 2
Fore
SplineSet
397 678 m 1,0,-1
 311 236 l 1,1,-1
 508 236 l 2,2,3
 664 236 664 236 737.5 302.5 c 128,-1,4
 811 369 811 369 811 510 c 0,5,6
 811 596 811 596 758 637 c 128,-1,7
 705 678 705 678 594 678 c 2,8,-1
 397 678 l 1,0,-1
510 1260 m 1,9,-1
 442 913 l 1,10,-1
 639 913 l 2,11,12
 760 913 760 913 821.5 967.5 c 128,-1,13
 883 1022 883 1022 883 1128 c 0,14,15
 883 1196 883 1196 840 1228 c 128,-1,16
 797 1260 797 1260 707 1260 c 2,17,-1
 510 1260 l 1,9,-1
270 1495 m 1,18,-1
 752 1495 l 2,19,20
 963 1495 963 1495 1070.5 1412 c 128,-1,21
 1178 1329 1178 1329 1178 1165 c 0,22,23
 1178 1004 1178 1004 1083 905 c 128,-1,24
 988 806 988 806 813 786 c 1,25,26
 952 774 952 774 1029 695 c 128,-1,27
 1106 616 1106 616 1106 485 c 0,28,29
 1106 377 1106 377 1068 283.5 c 128,-1,30
 1030 190 1030 190 961 127 c 0,31,32
 886 60 886 60 771 30 c 128,-1,33
 656 0 656 0 461 0 c 2,34,-1
 -20 0 l 1,35,-1
 270 1495 l 1,18,-1
EndSplineSet
EndChar

StartChar: C
Encoding: 67 67 36
Width: 1233
Flags: W
LayerCount: 2
Fore
SplineSet
946 43 m 1,0,1
 869 7 869 7 788.5 -11 c 128,-1,2
 708 -29 708 -29 623 -29 c 0,3,4
 384 -29 384 -29 257.5 108.5 c 128,-1,5
 131 246 131 246 131 506 c 0,6,7
 131 736 131 736 201.5 947.5 c 128,-1,8
 272 1159 272 1159 393 1296 c 0,9,10
 490 1406 490 1406 620 1463 c 128,-1,11
 750 1520 750 1520 903 1520 c 0,12,13
 985 1520 985 1520 1063.5 1502 c 128,-1,14
 1142 1484 1142 1484 1219 1448 c 1,15,-1
 1155 1120 l 1,16,17
 1105 1188 1105 1188 1032.5 1222.5 c 128,-1,18
 960 1257 960 1257 872 1257 c 0,19,20
 792 1257 792 1257 715 1208.5 c 128,-1,21
 638 1160 638 1160 584 1075 c 0,22,23
 515 968 515 968 472.5 817.5 c 128,-1,24
 430 667 430 667 430 532 c 0,25,26
 430 386 430 386 493 308.5 c 128,-1,27
 556 231 556 231 674 231 c 0,28,29
 755 231 755 231 835.5 264.5 c 128,-1,30
 916 298 916 298 1010 371 c 1,31,-1
 946 43 l 1,0,1
EndSplineSet
EndChar

StartChar: D
Encoding: 68 68 37
Width: 1233
Flags: W
LayerCount: 2
Fore
SplineSet
524 1227 m 1,0,-1
 338 266 l 1,1,-1
 434 266 l 2,2,3
 546 266 546 266 623 310 c 128,-1,4
 700 354 700 354 743 442 c 0,5,6
 795 548 795 548 827.5 694.5 c 128,-1,7
 860 841 860 841 860 967 c 0,8,9
 860 1099 860 1099 797.5 1163 c 128,-1,10
 735 1227 735 1227 606 1227 c 2,11,-1
 524 1227 l 1,0,-1
283 1493 m 1,12,-1
 598 1493 l 2,13,14
 883 1493 883 1493 1024 1370 c 128,-1,15
 1165 1247 1165 1247 1165 999 c 0,16,17
 1165 912 1165 912 1151.5 813.5 c 128,-1,18
 1138 715 1138 715 1110 602 c 0,19,20
 1073 451 1073 451 1021 346 c 128,-1,21
 969 241 969 241 897 172 c 0,22,23
 803 80 803 80 672 40 c 128,-1,24
 541 0 541 0 322 0 c 2,25,-1
 -8 0 l 1,26,-1
 283 1493 l 1,12,-1
EndSplineSet
EndChar

StartChar: E
Encoding: 69 69 38
Width: 1233
Flags: W
LayerCount: 2
Fore
SplineSet
958 0 m 1,0,-1
 29 0 l 1,1,-1
 317 1493 l 1,2,-1
 1249 1493 l 1,3,-1
 1198 1233 l 1,4,-1
 563 1233 l 1,5,-1
 500 911 l 1,6,-1
 1075 911 l 1,7,-1
 1026 651 l 1,8,-1
 451 651 l 1,9,-1
 375 260 l 1,10,-1
 1010 260 l 1,11,-1
 958 0 l 1,0,-1
EndSplineSet
EndChar

StartChar: F
Encoding: 70 70 39
Width: 1233
Flags: W
LayerCount: 2
Fore
SplineSet
1217 1233 m 1,0,-1
 582 1233 l 1,1,-1
 520 911 l 1,2,-1
 1098 911 l 1,3,-1
 1047 651 l 1,4,-1
 469 651 l 1,5,-1
 342 0 l 1,6,-1
 47 0 l 1,7,-1
 338 1493 l 1,8,-1
 1268 1493 l 1,9,-1
 1217 1233 l 1,0,-1
EndSplineSet
EndChar

StartChar: G
Encoding: 71 71 40
Width: 1233
Flags: W
LayerCount: 2
Fore
SplineSet
991 94 m 1,0,1
 921 35 921 35 823 3 c 128,-1,2
 725 -29 725 -29 610 -29 c 0,3,4
 368 -29 368 -29 235 116 c 128,-1,5
 102 261 102 261 102 524 c 0,6,7
 102 739 102 739 174.5 949 c 128,-1,8
 247 1159 247 1159 367 1294 c 0,9,10
 465 1405 465 1405 595 1462.5 c 128,-1,11
 725 1520 725 1520 877 1520 c 0,12,13
 958 1520 958 1520 1036.5 1502 c 128,-1,14
 1115 1484 1115 1484 1192 1448 c 1,15,-1
 1126 1120 l 1,16,17
 1075 1187 1075 1187 1006 1222 c 128,-1,18
 937 1257 937 1257 856 1257 c 0,19,20
 785 1257 785 1257 720.5 1227.5 c 128,-1,21
 656 1198 656 1198 604 1141 c 0,22,23
 563 1094 563 1094 528.5 1031 c 128,-1,24
 494 968 494 968 469 891 c 0,25,26
 437 793 437 793 420 701.5 c 128,-1,27
 403 610 403 610 403 532 c 0,28,29
 403 388 403 388 467 309.5 c 128,-1,30
 531 231 531 231 647 231 c 0,31,32
 683 231 683 231 714.5 239.5 c 128,-1,33
 746 248 746 248 770 264 c 1,34,-1
 827 555 l 1,35,-1
 621 555 l 1,36,-1
 670 803 l 1,37,-1
 1130 803 l 1,38,-1
 991 94 l 1,0,1
EndSplineSet
EndChar

StartChar: H
Encoding: 72 72 41
Width: 1233
Flags: W
LayerCount: 2
Fore
SplineSet
283 1493 m 1,0,-1
 578 1493 l 1,1,-1
 467 924 l 1,2,-1
 836 924 l 1,3,-1
 946 1493 l 1,4,-1
 1241 1493 l 1,5,-1
 950 0 l 1,6,-1
 655 0 l 1,7,-1
 784 664 l 1,8,-1
 416 664 l 1,9,-1
 287 0 l 1,10,-1
 -8 0 l 1,11,-1
 283 1493 l 1,0,-1
EndSplineSet
EndChar

StartChar: I
Encoding: 73 73 42
Width: 1233
Flags: W
LayerCount: 2
Fore
SplineSet
266 1233 m 1,0,-1
 317 1493 l 1,1,-1
 1206 1493 l 1,2,-1
 1155 1233 l 1,3,-1
 858 1233 l 1,4,-1
 670 260 l 1,5,-1
 967 260 l 1,6,-1
 915 0 l 1,7,-1
 27 0 l 1,8,-1
 78 260 l 1,9,-1
 375 260 l 1,10,-1
 563 1233 l 1,11,-1
 266 1233 l 1,0,-1
EndSplineSet
EndChar

StartChar: J
Encoding: 74 74 43
Width: 1233
Flags: W
LayerCount: 2
Fore
SplineSet
-20 78 m 1,0,-1
 45 422 l 1,1,2
 123 326 123 326 211.5 278.5 c 128,-1,3
 300 231 300 231 403 231 c 0,4,5
 519 231 519 231 575.5 285 c 128,-1,6
 632 339 632 339 659 479 c 2,7,-1
 807 1233 l 1,8,-1
 446 1233 l 1,9,-1
 498 1493 l 1,10,-1
 1153 1493 l 1,11,-1
 954 479 l 2,12,13
 921 309 921 309 880 223 c 128,-1,14
 839 137 839 137 772 82 c 256,15,16
 705 27 705 27 614 -1 c 128,-1,17
 523 -29 523 -29 410 -29 c 0,18,19
 299 -29 299 -29 192 -2.5 c 128,-1,20
 85 24 85 24 -20 78 c 1,0,-1
EndSplineSet
EndChar

StartChar: K
Encoding: 75 75 44
Width: 1233
Flags: W
LayerCount: 2
Fore
SplineSet
270 1493 m 1,0,-1
 565 1493 l 1,1,-1
 457 936 l 1,2,-1
 1020 1493 l 1,3,-1
 1368 1493 l 1,4,-1
 762 889 l 1,5,-1
 1100 0 l 1,6,-1
 797 0 l 1,7,-1
 543 670 l 1,8,-1
 371 500 l 1,9,-1
 276 0 l 1,10,-1
 -18 0 l 1,11,-1
 270 1493 l 1,0,-1
EndSplineSet
EndChar

StartChar: L
Encoding: 76 76 45
Width: 1233
Flags: W
LayerCount: 2
Fore
SplineSet
80 0 m 1,0,-1
 371 1493 l 1,1,-1
 666 1493 l 1,2,-1
 426 260 l 1,3,-1
 1057 260 l 1,4,-1
 1006 0 l 1,5,-1
 80 0 l 1,0,-1
EndSplineSet
EndChar

StartChar: M
Encoding: 77 77 46
Width: 1233
Flags: W
LayerCount: 2
Fore
SplineSet
231 1493 m 1,0,-1
 584 1493 l 1,1,-1
 633 838 l 1,2,-1
 930 1493 l 1,3,-1
 1290 1493 l 1,4,-1
 1001 0 l 1,5,-1
 748 0 l 1,6,-1
 985 1198 l 1,7,-1
 692 543 l 1,8,-1
 473 543 l 1,9,-1
 426 1198 l 1,10,-1
 195 0 l 1,11,-1
 -57 0 l 1,12,-1
 231 1493 l 1,0,-1
EndSplineSet
EndChar

StartChar: N
Encoding: 78 78 47
Width: 1233
Flags: W
LayerCount: 2
Fore
SplineSet
266 1493 m 1,0,-1
 569 1493 l 1,1,-1
 784 408 l 1,2,-1
 995 1493 l 1,3,-1
 1255 1493 l 1,4,-1
 967 0 l 1,5,-1
 674 0 l 1,6,-1
 449 1085 l 1,7,-1
 238 0 l 1,8,-1
 -25 0 l 1,9,-1
 266 1493 l 1,0,-1
EndSplineSet
EndChar

StartChar: O
Encoding: 79 79 48
Width: 1233
Flags: W
LayerCount: 2
Fore
SplineSet
868 1020 m 0,0,1
 868 1140 868 1140 828 1200 c 128,-1,2
 788 1260 788 1260 707 1260 c 0,3,4
 648 1260 648 1260 598 1224.5 c 128,-1,5
 548 1189 548 1189 512 1120 c 0,6,7
 490 1081 490 1081 468.5 1016.5 c 128,-1,8
 447 952 447 952 424 860 c 0,9,10
 395 745 395 745 380 645.5 c 128,-1,11
 365 546 365 546 365 471 c 0,12,13
 365 351 365 351 405 292 c 128,-1,14
 445 233 445 233 526 233 c 0,15,16
 585 233 585 233 634.5 268.5 c 128,-1,17
 684 304 684 304 721 373 c 0,18,19
 744 417 744 417 766.5 482.5 c 128,-1,20
 789 548 789 548 809 631 c 0,21,22
 838 746 838 746 853 845.5 c 128,-1,23
 868 945 868 945 868 1020 c 0,0,1
61 465 m 0,24,25
 61 665 61 665 111 870 c 128,-1,26
 161 1075 161 1075 246 1229 c 0,27,28
 323 1369 323 1369 448 1444.5 c 128,-1,29
 573 1520 573 1520 729 1520 c 0,30,31
 944 1520 944 1520 1057.5 1394 c 128,-1,32
 1171 1268 1171 1268 1171 1030 c 0,33,34
 1171 828 1171 828 1122 621.5 c 128,-1,35
 1073 415 1073 415 989 264 c 0,36,37
 911 123 911 123 785.5 47 c 128,-1,38
 660 -29 660 -29 504 -29 c 0,39,40
 287 -29 287 -29 174 97.5 c 128,-1,41
 61 224 61 224 61 465 c 0,24,25
EndSplineSet
EndChar

StartChar: P
Encoding: 80 80 49
Width: 1233
Flags: W
LayerCount: 2
Fore
SplineSet
553 1245 m 1,0,-1
 469 807 l 1,1,-1
 612 807 l 2,2,3
 758 807 758 807 830.5 874.5 c 128,-1,4
 903 942 903 942 903 1077 c 0,5,6
 903 1168 903 1168 851 1206.5 c 128,-1,7
 799 1245 799 1245 674 1245 c 2,8,-1
 553 1245 l 1,0,-1
307 1493 m 1,9,-1
 727 1493 l 2,10,11
 963 1493 963 1493 1086.5 1401.5 c 128,-1,12
 1210 1310 1210 1310 1210 1135 c 0,13,14
 1210 1021 1210 1021 1173.5 909 c 128,-1,15
 1137 797 1137 797 1079 731 c 0,16,17
 1001 640 1001 640 885 599.5 c 128,-1,18
 769 559 769 559 584 559 c 2,19,-1
 420 559 l 1,20,-1
 311 0 l 1,21,-1
 16 0 l 1,22,-1
 307 1493 l 1,9,-1
EndSplineSet
EndChar

StartChar: Q
Encoding: 81 81 50
Width: 1233
Flags: W
LayerCount: 2
Fore
SplineSet
535 -29 m 1,0,-1
 508 -29 l 2,1,2
 290 -29 290 -29 175.5 96 c 128,-1,3
 61 221 61 221 61 461 c 0,4,5
 61 663 61 663 110.5 869.5 c 128,-1,6
 160 1076 160 1076 244 1227 c 0,7,8
 322 1368 322 1368 447.5 1444 c 128,-1,9
 573 1520 573 1520 729 1520 c 0,10,11
 940 1520 940 1520 1055.5 1396.5 c 128,-1,12
 1171 1273 1171 1273 1171 1049 c 0,13,14
 1171 836 1171 836 1122.5 626.5 c 128,-1,15
 1074 417 1074 417 989 262 c 0,16,17
 954 196 954 196 901.5 141 c 128,-1,18
 849 86 849 86 776 39 c 1,19,-1
 924 -147 l 1,20,-1
 713 -281 l 1,21,-1
 535 -29 l 1,0,-1
868 1020 m 0,22,23
 868 1140 868 1140 828 1200 c 128,-1,24
 788 1260 788 1260 707 1260 c 0,25,26
 648 1260 648 1260 598 1224.5 c 128,-1,27
 548 1189 548 1189 512 1120 c 0,28,29
 490 1081 490 1081 468.5 1016.5 c 128,-1,30
 447 952 447 952 424 860 c 0,31,32
 395 745 395 745 380 645.5 c 128,-1,33
 365 546 365 546 365 471 c 0,34,35
 365 351 365 351 405 292 c 128,-1,36
 445 233 445 233 526 233 c 0,37,38
 585 233 585 233 634.5 268.5 c 128,-1,39
 684 304 684 304 721 373 c 0,40,41
 744 417 744 417 766.5 482.5 c 128,-1,42
 789 548 789 548 809 631 c 0,43,44
 838 746 838 746 853 845.5 c 128,-1,45
 868 945 868 945 868 1020 c 0,22,23
EndSplineSet
EndChar

StartChar: R
Encoding: 82 82 51
Width: 1233
Flags: W
LayerCount: 2
Fore
SplineSet
788 705 m 1,0,1
 849 696 849 696 883 660 c 128,-1,2
 917 624 917 624 944 537 c 2,3,-1
 1108 0 l 1,4,-1
 807 0 l 1,5,-1
 701 376 l 2,6,7
 698 386 698 386 693 403 c 0,8,9
 640 590 640 590 535 590 c 2,10,-1
 418 590 l 1,11,-1
 303 0 l 1,12,-1
 8 0 l 1,13,-1
 299 1493 l 1,14,-1
 709 1493 l 2,15,16
 941 1493 941 1493 1053 1405.5 c 128,-1,17
 1165 1318 1165 1318 1165 1137 c 0,18,19
 1165 950 1165 950 1067 837.5 c 128,-1,20
 969 725 969 725 788 705 c 1,0,1
547 1245 m 1,21,-1
 467 838 l 1,22,-1
 590 838 l 2,23,24
 725 838 725 838 794.5 902 c 128,-1,25
 864 966 864 966 864 1090 c 0,26,27
 864 1168 864 1168 818 1206.5 c 128,-1,28
 772 1245 772 1245 680 1245 c 2,29,-1
 547 1245 l 1,21,-1
EndSplineSet
EndChar

StartChar: S
Encoding: 83 83 52
Width: 1233
Flags: W
LayerCount: 2
Fore
SplineSet
506 664 m 2,0,1
 314 744 314 744 252 819 c 128,-1,2
 190 894 190 894 190 1020 c 0,3,4
 190 1240 190 1240 351.5 1380 c 128,-1,5
 513 1520 513 1520 770 1520 c 0,6,7
 873 1520 873 1520 970.5 1499.5 c 128,-1,8
 1068 1479 1068 1479 1159 1438 c 1,9,-1
 1102 1153 l 1,10,11
 1034 1215 1034 1215 943 1246.5 c 128,-1,12
 852 1278 852 1278 741 1278 c 0,13,14
 623 1278 623 1278 549 1221.5 c 128,-1,15
 475 1165 475 1165 475 1077 c 0,16,17
 475 993 475 993 659 910 c 2,18,-1
 666 907 l 1,19,-1
 782 856 l 2,20,21
 928 791 928 791 995.5 699.5 c 128,-1,22
 1063 608 1063 608 1063 475 c 0,23,24
 1063 245 1063 245 902 108 c 128,-1,25
 741 -29 741 -29 467 -29 c 0,26,27
 357 -29 357 -29 242.5 -3 c 128,-1,28
 128 23 128 23 4 76 c 1,29,-1
 63 381 l 1,30,31
 160 300 160 300 266 257.5 c 128,-1,32
 372 215 372 215 479 215 c 0,33,34
 612 215 612 215 688 273.5 c 128,-1,35
 764 332 764 332 764 432 c 0,36,37
 764 494 764 494 729 539.5 c 128,-1,38
 694 585 694 585 625 614 c 2,39,-1
 506 664 l 2,0,1
EndSplineSet
EndChar

StartChar: T
Encoding: 84 84 53
Width: 1233
Flags: W
LayerCount: 2
Fore
SplineSet
618 0 m 1,0,-1
 324 0 l 1,1,-1
 563 1235 l 1,2,-1
 180 1235 l 1,3,-1
 229 1493 l 1,4,-1
 1288 1493 l 1,5,-1
 1237 1235 l 1,6,-1
 858 1235 l 1,7,-1
 618 0 l 1,0,-1
EndSplineSet
EndChar

StartChar: U
Encoding: 85 85 54
Width: 1233
Flags: W
LayerCount: 2
Fore
SplineSet
68 551 m 2,0,-1
 252 1493 l 1,1,-1
 547 1493 l 1,2,-1
 348 477 l 2,3,4
 348 475 348 475 347 471 c 0,5,6
 340 424 340 424 340 403 c 0,7,8
 340 321 340 321 386 276 c 128,-1,9
 432 231 432 231 516 231 c 0,10,11
 624 231 624 231 688.5 292 c 128,-1,12
 753 353 753 353 778 477 c 2,13,-1
 977 1493 l 1,14,-1
 1272 1493 l 1,15,-1
 1087 551 l 2,16,17
 1052 371 1052 371 1012 278.5 c 128,-1,18
 972 186 972 186 909 123 c 0,19,20
 833 49 833 49 729 10 c 128,-1,21
 625 -29 625 -29 500 -29 c 0,22,23
 281 -29 281 -29 163 70 c 128,-1,24
 45 169 45 169 45 352 c 0,25,26
 45 394 45 394 50.5 444 c 128,-1,27
 56 494 56 494 68 551 c 2,0,-1
EndSplineSet
EndChar

StartChar: V
Encoding: 86 86 55
Width: 1233
Flags: W
LayerCount: 2
Fore
SplineSet
518 242 m 1,0,-1
 1024 1493 l 1,1,-1
 1325 1493 l 1,2,-1
 680 0 l 1,3,-1
 268 0 l 1,4,-1
 203 1493 l 1,5,-1
 494 1493 l 1,6,-1
 518 242 l 1,0,-1
EndSplineSet
EndChar

StartChar: W
Encoding: 87 87 56
Width: 1233
Flags: W
LayerCount: 2
Fore
SplineSet
143 1493 m 1,0,-1
 397 1493 l 1,1,-1
 289 397 l 1,2,-1
 561 1106 l 1,3,-1
 799 1106 l 1,4,-1
 811 397 l 1,5,-1
 1108 1493 l 1,6,-1
 1370 1493 l 1,7,-1
 909 0 l 1,8,-1
 639 0 l 1,9,-1
 627 784 l 1,10,-1
 309 0 l 1,11,-1
 41 0 l 1,12,-1
 143 1493 l 1,0,-1
EndSplineSet
EndChar

StartChar: X
Encoding: 88 88 57
Width: 1233
Flags: W
LayerCount: 2
Fore
SplineSet
1071 0 m 1,0,-1
 780 0 l 1,1,-1
 580 512 l 1,2,-1
 180 0 l 1,3,-1
 -143 0 l 1,4,-1
 471 782 l 1,5,-1
 184 1493 l 1,6,-1
 475 1493 l 1,7,-1
 662 1030 l 1,8,-1
 1022 1493 l 1,9,-1
 1343 1493 l 1,10,-1
 770 756 l 1,11,-1
 1071 0 l 1,0,-1
EndSplineSet
EndChar

StartChar: Y
Encoding: 89 89 58
Width: 1233
Flags: W
LayerCount: 2
Fore
SplineSet
145 1493 m 1,0,-1
 438 1493 l 1,1,-1
 625 844 l 1,2,-1
 1036 1493 l 1,3,-1
 1358 1493 l 1,4,-1
 725 588 l 1,5,-1
 610 0 l 1,6,-1
 317 0 l 1,7,-1
 432 588 l 1,8,-1
 145 1493 l 1,0,-1
EndSplineSet
EndChar

StartChar: Z
Encoding: 90 90 59
Width: 1233
Flags: W
LayerCount: 2
Fore
SplineSet
281 1493 m 1,0,-1
 1290 1493 l 1,1,-1
 1241 1249 l 1,2,-1
 365 260 l 1,3,-1
 1065 260 l 1,4,-1
 1014 0 l 1,5,-1
 -33 0 l 1,6,-1
 14 244 l 1,7,-1
 872 1233 l 1,8,-1
 229 1233 l 1,9,-1
 281 1493 l 1,0,-1
EndSplineSet
EndChar

StartChar: bracketleft
Encoding: 91 91 60
Width: 1233
Flags: W
LayerCount: 2
Fore
SplineSet
580 1556 m 1,0,-1
 1087 1556 l 1,1,-1
 1049 1366 l 1,2,-1
 807 1366 l 1,3,-1
 526 -80 l 1,4,-1
 768 -80 l 1,5,-1
 731 -270 l 1,6,-1
 223 -270 l 1,7,-1
 580 1556 l 1,0,-1
EndSplineSet
EndChar

StartChar: backslash
Encoding: 92 92 61
Width: 1233
Flags: W
LayerCount: 2
Fore
SplineSet
543 1493 m 1,0,-1
 741 -190 l 1,1,-1
 539 -190 l 1,2,-1
 340 1493 l 1,3,-1
 543 1493 l 1,0,-1
EndSplineSet
EndChar

StartChar: bracketright
Encoding: 93 93 62
Width: 1233
Flags: W
LayerCount: 2
Fore
SplineSet
612 -270 m 1,0,-1
 106 -270 l 1,1,-1
 143 -80 l 1,2,-1
 385 -80 l 1,3,-1
 666 1366 l 1,4,-1
 424 1366 l 1,5,-1
 461 1556 l 1,6,-1
 969 1556 l 1,7,-1
 612 -270 l 1,0,-1
EndSplineSet
EndChar

StartChar: asciicircum
Encoding: 94 94 63
Width: 1233
Flags: W
LayerCount: 2
Fore
SplineSet
739 1493 m 1,0,-1
 1176 936 l 1,1,-1
 934 936 l 1,2,-1
 616 1237 l 1,3,-1
 299 936 l 1,4,-1
 57 936 l 1,5,-1
 494 1493 l 1,6,-1
 739 1493 l 1,0,-1
EndSplineSet
EndChar

StartChar: underscore
Encoding: 95 95 64
Width: 1233
Flags: W
LayerCount: 2
Fore
SplineSet
1233 -190 m 1,0,-1
 1233 -390 l 1,1,-1
 0 -390 l 1,2,-1
 0 -190 l 1,3,-1
 1233 -190 l 1,0,-1
EndSplineSet
EndChar

StartChar: grave
Encoding: 96 96 65
Width: 1233
Flags: W
LayerCount: 2
Fore
SplineSet
655 1638 m 1,0,-1
 864 1262 l 1,1,-1
 666 1262 l 1,2,-1
 371 1638 l 1,3,-1
 655 1638 l 1,0,-1
EndSplineSet
EndChar

StartChar: a
Encoding: 97 97 66
Width: 1233
Flags: W
LayerCount: 2
Fore
SplineSet
690 530 m 2,0,1
 518 530 518 530 435 478 c 128,-1,2
 352 426 352 426 352 317 c 0,3,4
 352 254 352 254 392.5 213 c 128,-1,5
 433 172 433 172 496 172 c 0,6,7
 614 172 614 172 694 265 c 128,-1,8
 774 358 774 358 803 530 c 1,9,-1
 690 530 l 2,0,1
1114 639 m 2,10,-1
 991 0 l 1,11,-1
 700 0 l 1,12,-1
 725 125 l 1,13,14
 658 48 658 48 571.5 9.5 c 128,-1,15
 485 -29 485 -29 375 -29 c 0,16,17
 224 -29 224 -29 135.5 58.5 c 128,-1,18
 47 146 47 146 47 295 c 0,19,20
 47 510 47 510 202.5 623.5 c 128,-1,21
 358 737 358 737 651 737 c 2,22,-1
 844 737 l 1,23,-1
 852 786 l 2,24,25
 853 792 853 792 853.5 797.5 c 128,-1,26
 854 803 854 803 854 815 c 0,27,28
 854 872 854 872 803 902 c 128,-1,29
 752 932 752 932 655 932 c 0,30,31
 573 932 573 932 469.5 903.5 c 128,-1,32
 366 875 366 875 248 819 c 1,33,-1
 295 1069 l 1,34,35
 408 1108 408 1108 508.5 1127.5 c 128,-1,36
 609 1147 609 1147 700 1147 c 0,37,38
 917 1147 917 1147 1029 1071 c 128,-1,39
 1141 995 1141 995 1141 848 c 0,40,41
 1141 809 1141 809 1134 756 c 128,-1,42
 1127 703 1127 703 1114 639 c 2,10,-1
EndSplineSet
EndChar

StartChar: b
Encoding: 98 98 67
Width: 1233
Flags: W
LayerCount: 2
Fore
SplineSet
600 209 m 0,0,1
 711 209 711 209 790.5 350.5 c 128,-1,2
 870 492 870 492 870 694 c 0,3,4
 870 795 870 795 828.5 851 c 128,-1,5
 787 907 787 907 713 907 c 0,6,7
 599 907 599 907 516.5 768.5 c 128,-1,8
 434 630 434 630 434 432 c 0,9,10
 434 328 434 328 479 268.5 c 128,-1,11
 524 209 524 209 600 209 c 0,0,1
381 207 m 1,12,-1
 340 0 l 1,13,-1
 47 0 l 1,14,-1
 350 1556 l 1,15,-1
 643 1556 l 1,16,-1
 524 952 l 1,17,18
 587 1048 587 1048 670 1097.5 c 128,-1,19
 753 1147 753 1147 848 1147 c 0,20,21
 994 1147 994 1147 1079.5 1037.5 c 128,-1,22
 1165 928 1165 928 1165 739 c 0,23,24
 1165 608 1165 608 1134.5 478.5 c 128,-1,25
 1104 349 1104 349 1049 244 c 0,26,27
 980 115 980 115 875 43 c 128,-1,28
 770 -29 770 -29 653 -29 c 0,29,30
 542 -29 542 -29 470 33.5 c 128,-1,31
 398 96 398 96 381 207 c 1,12,-1
EndSplineSet
EndChar

StartChar: c
Encoding: 99 99 68
Width: 1233
Flags: W
LayerCount: 2
Fore
SplineSet
956 37 m 1,0,1
 879 4 879 4 797.5 -12.5 c 128,-1,2
 716 -29 716 -29 633 -29 c 0,3,4
 407 -29 407 -29 278.5 95 c 128,-1,5
 150 219 150 219 150 434 c 0,6,7
 150 751 150 751 333.5 949 c 128,-1,8
 517 1147 517 1147 813 1147 c 0,9,10
 911 1147 911 1147 996 1126.5 c 128,-1,11
 1081 1106 1081 1106 1157 1063 c 1,12,-1
 1104 795 l 1,13,14
 1043 853 1043 853 975 881 c 128,-1,15
 907 909 907 909 829 909 c 0,16,17
 659 909 659 909 552.5 785 c 128,-1,18
 446 661 446 661 446 463 c 0,19,20
 446 335 446 335 507 272 c 128,-1,21
 568 209 568 209 692 209 c 0,22,23
 762 209 762 209 841.5 235 c 128,-1,24
 921 261 921 261 1012 313 c 1,25,-1
 956 37 l 1,0,1
EndSplineSet
EndChar

StartChar: d
Encoding: 100 100 69
Width: 1233
Flags: W
LayerCount: 2
Fore
SplineSet
633 909 m 0,0,1
 522 909 522 909 442 767.5 c 128,-1,2
 362 626 362 626 362 424 c 0,3,4
 362 323 362 323 403.5 267 c 128,-1,5
 445 211 445 211 518 211 c 0,6,7
 632 211 632 211 715.5 349.5 c 128,-1,8
 799 488 799 488 799 686 c 0,9,10
 799 790 799 790 754 849.5 c 128,-1,11
 709 909 709 909 633 909 c 0,0,1
854 911 m 1,12,-1
 979 1556 l 1,13,-1
 1272 1556 l 1,14,-1
 969 0 l 1,15,-1
 678 0 l 1,16,-1
 709 166 l 1,17,18
 643 70 643 70 560.5 20.5 c 128,-1,19
 478 -29 478 -29 383 -29 c 0,20,21
 237 -29 237 -29 151.5 81 c 128,-1,22
 66 191 66 191 66 381 c 0,23,24
 66 510 66 510 97 638.5 c 128,-1,25
 128 767 128 767 184 874 c 0,26,27
 253 1003 253 1003 358 1076 c 128,-1,28
 463 1149 463 1149 580 1149 c 0,29,30
 692 1149 692 1149 765.5 1085.5 c 128,-1,31
 839 1022 839 1022 854 911 c 1,12,-1
EndSplineSet
EndChar

StartChar: e
Encoding: 101 101 70
Width: 1233
Flags: W
LayerCount: 2
Fore
SplineSet
993 55 m 1,0,1
 898 13 898 13 795 -8 c 128,-1,2
 692 -29 692 -29 582 -29 c 0,3,4
 334 -29 334 -29 205 89.5 c 128,-1,5
 76 208 76 208 76 436 c 0,6,7
 76 577 76 577 120 709 c 128,-1,8
 164 841 164 841 244 938 c 0,9,10
 328 1040 328 1040 444 1094.5 c 128,-1,11
 560 1149 560 1149 694 1149 c 0,12,13
 903 1149 903 1149 1029 1029 c 128,-1,14
 1155 909 1155 909 1155 711 c 0,15,16
 1155 666 1155 666 1148.5 607 c 128,-1,17
 1142 548 1142 548 1128 465 c 1,18,-1
 369 465 l 1,19,20
 366 448 366 448 364.5 433 c 128,-1,21
 363 418 363 418 362 403 c 0,22,23
 362 304 362 304 429 253.5 c 128,-1,24
 496 203 496 203 627 203 c 0,25,26
 735 203 735 203 843 234 c 128,-1,27
 951 265 951 265 1044 324 c 1,28,-1
 993 55 l 1,0,1
876 684 m 1,29,30
 880 698 880 698 881.5 711.5 c 128,-1,31
 883 725 883 725 883 737 c 0,32,33
 883 822 883 822 832 871 c 128,-1,34
 781 920 781 920 692 920 c 0,35,36
 592 920 592 920 521 861 c 128,-1,37
 450 802 450 802 410 684 c 1,38,-1
 876 684 l 1,29,30
EndSplineSet
EndChar

StartChar: f
Encoding: 102 102 71
Width: 1233
Flags: W
LayerCount: 2
Fore
SplineSet
856 1196 m 2,0,-1
 840 1120 l 1,1,-1
 1184 1120 l 1,2,-1
 1141 895 l 1,3,-1
 797 895 l 1,4,-1
 623 0 l 1,5,-1
 330 0 l 1,6,-1
 504 895 l 1,7,-1
 231 895 l 1,8,-1
 274 1120 l 1,9,-1
 547 1120 l 1,10,-1
 563 1198 l 2,11,12
 605 1409 605 1409 697 1482.5 c 128,-1,13
 789 1556 789 1556 1028 1556 c 2,14,-1
 1268 1556 l 1,15,-1
 1225 1331 l 1,16,-1
 995 1331 l 2,17,18
 930 1331 930 1331 901 1303.5 c 128,-1,19
 872 1276 872 1276 856 1196 c 2,0,-1
EndSplineSet
EndChar

StartChar: g
Encoding: 103 103 72
Width: 1233
Flags: W
LayerCount: 2
Fore
SplineSet
520 246 m 0,0,1
 635 246 635 246 719 378.5 c 128,-1,2
 803 511 803 511 803 698 c 0,3,4
 803 798 803 798 762 853.5 c 128,-1,5
 721 909 721 909 649 909 c 0,6,7
 535 909 535 909 451 776.5 c 128,-1,8
 367 644 367 644 367 459 c 0,9,10
 367 357 367 357 407 301.5 c 128,-1,11
 447 246 447 246 520 246 c 0,0,1
987 84 m 2,12,13
 934 -193 934 -193 796 -308.5 c 128,-1,14
 658 -424 658 -424 385 -424 c 0,15,16
 287 -424 287 -424 196 -409 c 128,-1,17
 105 -394 105 -394 18 -365 c 1,18,-1
 72 -100 l 1,19,20
 147 -145 147 -145 229.5 -167.5 c 128,-1,21
 312 -190 312 -190 399 -190 c 0,22,23
 524 -190 524 -190 594.5 -131.5 c 128,-1,24
 665 -73 665 -73 688 51 c 2,25,-1
 715 184 l 1,26,27
 661 101 661 101 583.5 58.5 c 128,-1,28
 506 16 506 16 410 16 c 0,29,30
 253 16 253 16 160.5 120.5 c 128,-1,31
 68 225 68 225 68 403 c 0,32,33
 68 542 68 542 110 683 c 128,-1,34
 152 824 152 824 225 932 c 0,35,36
 295 1035 295 1035 395.5 1093 c 128,-1,37
 496 1151 496 1151 602 1151 c 0,38,39
 706 1151 706 1151 773.5 1096 c 128,-1,40
 841 1041 841 1041 862 938 c 1,41,-1
 897 1120 l 1,42,-1
 1190 1120 l 1,43,-1
 987 84 l 2,12,13
EndSplineSet
EndChar

StartChar: h
Encoding: 104 104 73
Width: 1233
Flags: W
LayerCount: 2
Fore
SplineSet
1102 728 m 2,0,-1
 961 0 l 1,1,-1
 668 0 l 1,2,-1
 801 682 l 2,3,4
 806 708 806 708 808.5 734.5 c 128,-1,5
 811 761 811 761 811 788 c 0,6,7
 811 846 811 846 782 876.5 c 128,-1,8
 753 907 753 907 698 907 c 0,9,10
 615 907 615 907 557 835.5 c 128,-1,11
 499 764 499 764 473 629 c 2,12,-1
 352 0 l 1,13,-1
 59 0 l 1,14,-1
 362 1556 l 1,15,-1
 653 1556 l 1,16,-1
 537 952 l 1,17,18
 585 1044 585 1044 669 1095.5 c 128,-1,19
 753 1147 753 1147 854 1147 c 0,20,21
 982 1147 982 1147 1051 1077.5 c 128,-1,22
 1120 1008 1120 1008 1120 881 c 0,23,24
 1120 851 1120 851 1115.5 813 c 128,-1,25
 1111 775 1111 775 1102 728 c 2,0,-1
EndSplineSet
EndChar

StartChar: i
Encoding: 105 105 74
Width: 1233
Flags: W
LayerCount: 2
Fore
SplineSet
309 1120 m 1,0,-1
 889 1120 l 1,1,-1
 715 225 l 1,2,-1
 1079 225 l 1,3,-1
 1036 0 l 1,4,-1
 14 0 l 1,5,-1
 57 225 l 1,6,-1
 422 225 l 1,7,-1
 553 895 l 1,8,-1
 266 895 l 1,9,-1
 309 1120 l 1,0,-1
702 1665 m 1,10,-1
 995 1665 l 1,11,-1
 928 1323 l 1,12,-1
 635 1323 l 1,13,-1
 702 1665 l 1,10,-1
EndSplineSet
EndChar

StartChar: j
Encoding: 106 106 75
Width: 1233
Flags: W
LayerCount: 2
Fore
SplineSet
733 43 m 2,0,1
 700 -124 700 -124 669.5 -195.5 c 128,-1,2
 639 -267 639 -267 592 -313 c 0,3,4
 533 -372 533 -372 452 -398 c 128,-1,5
 371 -424 371 -424 244 -424 c 2,6,-1
 -63 -424 l 1,7,-1
 -18 -199 l 1,8,-1
 213 -199 l 2,9,10
 313 -199 313 -199 364 -145.5 c 128,-1,11
 415 -92 415 -92 440 43 c 2,12,-1
 606 895 l 1,13,-1
 309 895 l 1,14,-1
 352 1120 l 1,15,-1
 942 1120 l 1,16,-1
 733 43 l 2,0,1
983 1323 m 1,17,-1
 690 1323 l 1,18,-1
 756 1665 l 1,19,-1
 1049 1665 l 1,20,-1
 983 1323 l 1,17,-1
EndSplineSet
EndChar

StartChar: k
Encoding: 107 107 76
Width: 1233
Flags: W
LayerCount: 2
Fore
SplineSet
383 1556 m 1,0,-1
 676 1556 l 1,1,-1
 524 774 l 1,2,-1
 928 1120 l 1,3,-1
 1298 1120 l 1,4,-1
 793 702 l 1,5,-1
 1106 0 l 1,6,-1
 795 0 l 1,7,-1
 573 524 l 1,8,-1
 457 428 l 1,9,-1
 375 0 l 1,10,-1
 82 0 l 1,11,-1
 383 1556 l 1,0,-1
EndSplineSet
EndChar

StartChar: l
Encoding: 108 108 77
Width: 1233
Flags: W
LayerCount: 2
Fore
SplineSet
625 365 m 2,0,1
 621 345 621 345 618.5 328.5 c 128,-1,2
 616 312 616 312 616 307 c 0,3,4
 616 262 616 262 647 243.5 c 128,-1,5
 678 225 678 225 756 225 c 2,6,-1
 1034 225 l 1,7,-1
 989 0 l 1,8,-1
 692 0 l 2,9,10
 487 0 487 0 402 56 c 128,-1,11
 317 112 317 112 317 242 c 0,12,13
 317 265 317 265 322 300 c 128,-1,14
 327 335 327 335 336 379 c 2,15,-1
 539 1331 l 1,16,-1
 233 1331 l 1,17,-1
 276 1556 l 1,18,-1
 874 1556 l 1,19,-1
 625 365 l 2,0,1
EndSplineSet
EndChar

StartChar: m
Encoding: 109 109 78
Width: 1233
Flags: W
LayerCount: 2
Fore
SplineSet
770 1008 m 1,0,1
 802 1072 802 1072 866 1109.5 c 128,-1,2
 930 1147 930 1147 1006 1147 c 0,3,4
 1098 1147 1098 1147 1152 1091 c 128,-1,5
 1206 1035 1206 1035 1206 938 c 0,6,7
 1206 891 1206 891 1200.5 842.5 c 128,-1,8
 1195 794 1195 794 1180 719 c 2,9,-1
 1040 0 l 1,10,-1
 801 0 l 1,11,-1
 940 719 l 2,12,13
 950 770 950 770 954 800.5 c 128,-1,14
 958 831 958 831 958 846 c 0,15,16
 958 886 958 886 940.5 907 c 128,-1,17
 923 928 923 928 889 928 c 0,18,19
 841 928 841 928 812.5 883 c 128,-1,20
 784 838 784 838 762 719 c 2,21,-1
 623 0 l 1,22,-1
 383 0 l 1,23,-1
 524 719 l 2,24,25
 532 761 532 761 536.5 794 c 128,-1,26
 541 827 541 827 541 846 c 0,27,28
 541 886 541 886 523 907 c 128,-1,29
 505 928 505 928 471 928 c 0,30,31
 424 928 424 928 396.5 884.5 c 128,-1,32
 369 841 369 841 346 719 c 2,33,-1
 207 0 l 1,34,-1
 -33 0 l 1,35,-1
 184 1120 l 1,36,-1
 397 1120 l 1,37,-1
 375 1004 l 1,38,39
 416 1072 416 1072 476.5 1109.5 c 128,-1,40
 537 1147 537 1147 606 1147 c 256,41,42
 675 1147 675 1147 718.5 1109.5 c 128,-1,43
 762 1072 762 1072 770 1008 c 1,0,1
EndSplineSet
EndChar

StartChar: n
Encoding: 110 110 79
Width: 1233
Flags: W
LayerCount: 2
Fore
SplineSet
1102 728 m 2,0,-1
 961 0 l 1,1,-1
 668 0 l 1,2,-1
 801 682 l 2,3,4
 806 708 806 708 808.5 734.5 c 128,-1,5
 811 761 811 761 811 788 c 0,6,7
 811 846 811 846 782 876.5 c 128,-1,8
 753 907 753 907 698 907 c 0,9,10
 616 907 616 907 557.5 835 c 128,-1,11
 499 763 499 763 473 629 c 2,12,-1
 352 0 l 1,13,-1
 59 0 l 1,14,-1
 276 1120 l 1,15,-1
 569 1120 l 1,16,-1
 537 952 l 1,17,18
 585 1044 585 1044 669 1095.5 c 128,-1,19
 753 1147 753 1147 854 1147 c 0,20,21
 982 1147 982 1147 1051 1077.5 c 128,-1,22
 1120 1008 1120 1008 1120 881 c 0,23,24
 1120 851 1120 851 1115.5 813 c 128,-1,25
 1111 775 1111 775 1102 728 c 2,0,-1
EndSplineSet
EndChar

StartChar: o
Encoding: 111 111 80
Width: 1233
Flags: W
LayerCount: 2
Fore
SplineSet
850 684 m 0,0,1
 850 793 850 793 803.5 852 c 128,-1,2
 757 911 757 911 672 911 c 0,3,4
 549 911 549 911 466 775 c 128,-1,5
 383 639 383 639 383 434 c 0,6,7
 383 328 383 328 431.5 267.5 c 128,-1,8
 480 207 480 207 563 207 c 0,9,10
 684 207 684 207 767 343.5 c 128,-1,11
 850 480 850 480 850 684 c 0,0,1
88 426 m 0,12,13
 88 748 88 748 254.5 948.5 c 128,-1,14
 421 1149 421 1149 688 1149 c 0,15,16
 903 1149 903 1149 1024 1028.5 c 128,-1,17
 1145 908 1145 908 1145 694 c 0,18,19
 1145 371 1145 371 978.5 171 c 128,-1,20
 812 -29 812 -29 545 -29 c 0,21,22
 330 -29 330 -29 209 91.5 c 128,-1,23
 88 212 88 212 88 426 c 0,12,13
EndSplineSet
EndChar

StartChar: p
Encoding: 112 112 81
Width: 1233
Flags: W
LayerCount: 2
Fore
SplineSet
379 207 m 1,0,-1
 256 -426 l 1,1,-1
 -37 -426 l 1,2,-1
 264 1120 l 1,3,-1
 557 1120 l 1,4,-1
 524 952 l 1,5,6
 595 1050 595 1050 677 1098.5 c 128,-1,7
 759 1147 759 1147 852 1147 c 0,8,9
 999 1147 999 1147 1084 1037.5 c 128,-1,10
 1169 928 1169 928 1169 739 c 0,11,12
 1169 610 1169 610 1138 480 c 128,-1,13
 1107 350 1107 350 1051 244 c 0,14,15
 982 115 982 115 877 43 c 128,-1,16
 772 -29 772 -29 655 -29 c 0,17,18
 543 -29 543 -29 471 33 c 128,-1,19
 399 95 399 95 379 207 c 1,0,-1
602 209 m 0,20,21
 713 209 713 209 793.5 351 c 128,-1,22
 874 493 874 493 874 694 c 0,23,24
 874 795 874 795 832.5 851 c 128,-1,25
 791 907 791 907 717 907 c 0,26,27
 603 907 603 907 519.5 768.5 c 128,-1,28
 436 630 436 630 436 432 c 0,29,30
 436 328 436 328 481 268.5 c 128,-1,31
 526 209 526 209 602 209 c 0,20,21
EndSplineSet
EndChar

StartChar: q
Encoding: 113 113 82
Width: 1233
Flags: W
LayerCount: 2
Fore
SplineSet
854 911 m 1,0,-1
 893 1120 l 1,1,-1
 1186 1120 l 1,2,-1
 885 -426 l 1,3,-1
 594 -426 l 1,4,-1
 709 166 l 1,5,6
 646 71 646 71 563 21 c 128,-1,7
 480 -29 480 -29 385 -29 c 0,8,9
 239 -29 239 -29 153.5 81 c 128,-1,10
 68 191 68 191 68 381 c 0,11,12
 68 510 68 510 99 638.5 c 128,-1,13
 130 767 130 767 186 874 c 0,14,15
 256 1004 256 1004 360 1076.5 c 128,-1,16
 464 1149 464 1149 580 1149 c 0,17,18
 691 1149 691 1149 763.5 1086.5 c 128,-1,19
 836 1024 836 1024 854 911 c 1,0,-1
633 909 m 0,20,21
 522 909 522 909 442 767.5 c 128,-1,22
 362 626 362 626 362 424 c 0,23,24
 362 324 362 324 404 267.5 c 128,-1,25
 446 211 446 211 520 211 c 0,26,27
 634 211 634 211 716.5 349.5 c 128,-1,28
 799 488 799 488 799 686 c 0,29,30
 799 790 799 790 754 849.5 c 128,-1,31
 709 909 709 909 633 909 c 0,20,21
EndSplineSet
EndChar

StartChar: r
Encoding: 114 114 83
Width: 1233
Flags: W
LayerCount: 2
Fore
SplineSet
1174 815 m 1,0,1
 1126 858 1126 858 1067 878.5 c 128,-1,2
 1008 899 1008 899 934 899 c 0,3,4
 768 899 768 899 678.5 811 c 128,-1,5
 589 723 589 723 549 516 c 2,6,-1
 449 0 l 1,7,-1
 154 0 l 1,8,-1
 373 1120 l 1,9,-1
 666 1120 l 1,10,-1
 631 946 l 1,11,12
 693 1042 693 1042 792 1094.5 c 128,-1,13
 891 1147 891 1147 1010 1147 c 0,14,15
 1072 1147 1072 1147 1127.5 1132 c 128,-1,16
 1183 1117 1183 1117 1227 1090 c 1,17,-1
 1174 815 l 1,0,1
EndSplineSet
EndChar

StartChar: s
Encoding: 115 115 84
Width: 1233
Flags: W
LayerCount: 2
Fore
SplineSet
1094 1085 m 1,0,-1
 1044 831 l 1,1,2
 969 884 969 884 882 911 c 128,-1,3
 795 938 795 938 702 938 c 0,4,5
 608 938 608 938 553 903 c 128,-1,6
 498 868 498 868 498 809 c 0,7,8
 498 764 498 764 534.5 736.5 c 128,-1,9
 571 709 571 709 700 672 c 2,10,-1
 774 651 l 2,11,12
 902 614 902 614 961 544 c 128,-1,13
 1020 474 1020 474 1020 360 c 0,14,15
 1020 178 1020 178 882.5 74.5 c 128,-1,16
 745 -29 745 -29 500 -29 c 0,17,18
 396 -29 396 -29 292.5 -11.5 c 128,-1,19
 189 6 189 6 90 41 c 1,20,-1
 141 297 l 1,21,22
 227 241 227 241 322 211.5 c 128,-1,23
 417 182 417 182 510 182 c 0,24,25
 620 182 620 182 681.5 219.5 c 128,-1,26
 743 257 743 257 743 324 c 0,27,28
 743 370 743 370 712.5 396 c 128,-1,29
 682 422 682 422 549 461 c 2,30,-1
 461 485 l 2,31,32
 339 521 339 521 282 590.5 c 128,-1,33
 225 660 225 660 225 772 c 0,34,35
 225 940 225 940 361 1043.5 c 128,-1,36
 497 1147 497 1147 723 1147 c 0,37,38
 816 1147 816 1147 909 1131.5 c 128,-1,39
 1002 1116 1002 1116 1094 1085 c 1,0,-1
EndSplineSet
EndChar

StartChar: t
Encoding: 116 116 85
Width: 1233
Flags: W
LayerCount: 2
Fore
SplineSet
848 1438 m 1,0,-1
 786 1120 l 1,1,-1
 1169 1120 l 1,2,-1
 1126 895 l 1,3,-1
 743 895 l 1,4,-1
 639 365 l 2,5,6
 635 345 635 345 633 330 c 128,-1,7
 631 315 631 315 631 307 c 0,8,9
 631 262 631 262 661 243.5 c 128,-1,10
 691 225 691 225 770 225 c 2,11,-1
 995 225 l 1,12,-1
 952 0 l 1,13,-1
 707 0 l 2,14,15
 503 0 503 0 417.5 55.5 c 128,-1,16
 332 111 332 111 332 240 c 0,17,18
 332 261 332 261 336.5 295 c 128,-1,19
 341 329 341 329 350 379 c 2,20,-1
 451 895 l 1,21,-1
 164 895 l 1,22,-1
 207 1120 l 1,23,-1
 494 1120 l 1,24,-1
 555 1438 l 1,25,-1
 848 1438 l 1,0,-1
EndSplineSet
EndChar

StartChar: u
Encoding: 117 117 86
Width: 1233
Flags: W
LayerCount: 2
Fore
SplineSet
123 391 m 2,0,-1
 266 1120 l 1,1,-1
 557 1120 l 1,2,-1
 426 436 l 2,3,4
 421 409 421 409 418.5 383 c 128,-1,5
 416 357 416 357 416 332 c 0,6,7
 416 274 416 274 445 242.5 c 128,-1,8
 474 211 474 211 528 211 c 0,9,10
 611 211 611 211 667.5 281 c 128,-1,11
 724 351 724 351 752 489 c 2,12,-1
 874 1120 l 1,13,-1
 1165 1120 l 1,14,-1
 948 0 l 1,15,-1
 655 0 l 1,16,-1
 688 166 l 1,17,18
 644 76 644 76 559 23.5 c 128,-1,19
 474 -29 474 -29 373 -29 c 0,20,21
 244 -29 244 -29 175 41.5 c 128,-1,22
 106 112 106 112 106 244 c 0,23,24
 106 272 106 272 110 308 c 128,-1,25
 114 344 114 344 123 391 c 2,0,-1
EndSplineSet
EndChar

StartChar: v
Encoding: 118 118 87
Width: 1233
Flags: W
LayerCount: 2
Fore
SplineSet
1231 1120 m 1,0,-1
 680 0 l 1,1,-1
 311 0 l 1,2,-1
 172 1120 l 1,3,-1
 455 1120 l 1,4,-1
 535 242 l 1,5,-1
 924 1120 l 1,6,-1
 1231 1120 l 1,0,-1
EndSplineSet
EndChar

StartChar: w
Encoding: 119 119 88
Width: 1233
Flags: W
LayerCount: 2
Fore
SplineSet
96 1120 m 1,0,-1
 336 1120 l 1,1,-1
 303 262 l 1,2,-1
 530 827 l 1,3,-1
 760 827 l 1,4,-1
 782 262 l 1,5,-1
 1073 1120 l 1,6,-1
 1325 1120 l 1,7,-1
 907 0 l 1,8,-1
 627 0 l 1,9,-1
 608 590 l 1,10,-1
 369 0 l 1,11,-1
 90 0 l 1,12,-1
 96 1120 l 1,0,-1
EndSplineSet
EndChar

StartChar: x
Encoding: 120 120 89
Width: 1233
Flags: W
LayerCount: 2
Fore
SplineSet
1227 1120 m 1,0,-1
 750 567 l 1,1,-1
 1028 0 l 1,2,-1
 729 0 l 1,3,-1
 559 356 l 1,4,-1
 256 0 l 1,5,-1
 -76 0 l 1,6,-1
 436 594 l 1,7,-1
 178 1120 l 1,8,-1
 479 1120 l 1,9,-1
 627 803 l 1,10,-1
 895 1120 l 1,11,-1
 1227 1120 l 1,0,-1
EndSplineSet
EndChar

StartChar: y
Encoding: 121 121 90
Width: 1233
Flags: W
LayerCount: 2
Fore
SplineSet
551 -121 m 2,0,1
 439 -319 439 -319 357.5 -371.5 c 128,-1,2
 276 -424 276 -424 150 -424 c 2,3,-1
 -90 -424 l 1,4,-1
 -45 -201 l 1,5,-1
 72 -201 l 2,6,7
 159 -201 159 -201 209 -171 c 128,-1,8
 259 -141 259 -141 319 -29 c 2,9,-1
 358 45 l 1,10,-1
 141 1120 l 1,11,-1
 438 1120 l 1,12,-1
 565 420 l 1,13,-1
 948 1120 l 1,14,-1
 1257 1120 l 1,15,-1
 551 -121 l 2,0,1
EndSplineSet
EndChar

StartChar: z
Encoding: 122 122 91
Width: 1233
Flags: W
LayerCount: 2
Fore
SplineSet
293 1120 m 1,0,-1
 1188 1120 l 1,1,-1
 1143 891 l 1,2,-1
 436 219 l 1,3,-1
 1012 219 l 1,4,-1
 969 0 l 1,5,-1
 49 0 l 1,6,-1
 94 229 l 1,7,-1
 801 901 l 1,8,-1
 250 901 l 1,9,-1
 293 1120 l 1,0,-1
EndSplineSet
EndChar

StartChar: braceleft
Encoding: 123 123 92
Width: 1233
Flags: W
LayerCount: 2
Fore
SplineSet
879 -143 m 1,0,-1
 842 -334 l 1,1,-1
 694 -334 l 2,2,3
 498 -334 498 -334 414 -279.5 c 128,-1,4
 330 -225 330 -225 330 -100 c 0,5,6
 330 -77 330 -77 333.5 -49 c 128,-1,7
 337 -21 337 -21 348 35 c 2,8,-1
 391 250 l 2,9,10
 400 298 400 298 404 328.5 c 128,-1,11
 408 359 408 359 408 379 c 0,12,13
 408 455 408 455 360 485.5 c 128,-1,14
 312 516 312 516 193 516 c 2,15,-1
 131 516 l 1,16,-1
 168 707 l 1,17,-1
 229 707 l 2,18,19
 372 707 372 707 436 762 c 128,-1,20
 500 817 500 817 530 973 c 2,21,-1
 571 1188 l 2,22,23
 614 1412 614 1412 707.5 1484 c 128,-1,24
 801 1556 801 1556 1061 1556 c 2,25,-1
 1210 1556 l 1,26,-1
 1174 1366 l 1,27,-1
 1051 1366 l 2,28,29
 947 1366 947 1366 902.5 1323 c 128,-1,30
 858 1280 858 1280 831 1139 c 2,31,-1
 793 930 l 2,32,33
 761 763 761 763 698.5 696 c 128,-1,34
 636 629 636 629 506 612 c 1,35,36
 601 591 601 591 642.5 547.5 c 128,-1,37
 684 504 684 504 684 428 c 0,38,39
 684 399 684 399 680 364.5 c 128,-1,40
 676 330 676 330 668 291 c 2,41,-1
 627 86 l 2,42,43
 618 40 618 40 614 12 c 128,-1,44
 610 -16 610 -16 610 -33 c 0,45,46
 610 -92 610 -92 644 -117.5 c 128,-1,47
 678 -143 678 -143 758 -143 c 2,48,-1
 879 -143 l 1,0,-1
EndSplineSet
EndChar

StartChar: bar
Encoding: 124 124 93
Width: 1233
Flags: W
LayerCount: 2
Fore
SplineSet
729 1565 m 1,0,-1
 729 -483 l 1,1,-1
 502 -483 l 1,2,-1
 502 1565 l 1,3,-1
 729 1565 l 1,0,-1
EndSplineSet
EndChar

StartChar: braceright
Encoding: 125 125 94
Width: 1233
Flags: W
LayerCount: 2
Fore
SplineSet
6 -143 m 1,0,-1
 129 -143 l 2,1,2
 232 -143 232 -143 276 -100.5 c 128,-1,3
 320 -58 320 -58 348 86 c 2,4,-1
 387 291 l 2,5,6
 419 455 419 455 482 524 c 128,-1,7
 545 593 545 593 674 612 c 1,8,9
 580 628 580 628 538 670 c 128,-1,10
 496 712 496 712 496 791 c 0,11,12
 496 817 496 817 500 852.5 c 128,-1,13
 504 888 504 888 512 930 c 2,14,-1
 553 1139 l 2,15,16
 562 1187 562 1187 565.5 1214 c 128,-1,17
 569 1241 569 1241 569 1257 c 0,18,19
 569 1317 569 1317 536 1341.5 c 128,-1,20
 503 1366 503 1366 422 1366 c 2,21,-1
 301 1366 l 1,22,-1
 338 1556 l 1,23,-1
 485 1556 l 2,24,25
 690 1556 690 1556 772 1508 c 128,-1,26
 854 1460 854 1460 854 1346 c 0,27,28
 854 1311 854 1311 834 1202 c 2,29,-1
 831 1187 l 1,30,-1
 790 972 l 2,31,32
 784 940 784 940 780 911 c 128,-1,33
 776 882 776 882 776 862 c 0,34,35
 776 777 776 777 823.5 742 c 128,-1,36
 871 707 871 707 987 707 c 2,37,-1
 1049 707 l 1,38,-1
 1012 516 l 1,39,-1
 950 516 l 2,40,41
 809 516 809 516 743.5 458 c 128,-1,42
 678 400 678 400 649 250 c 2,43,-1
 608 35 l 2,44,45
 565 -187 565 -187 466 -260.5 c 128,-1,46
 367 -334 367 -334 119 -334 c 2,47,-1
 -31 -334 l 1,48,-1
 6 -143 l 1,0,-1
EndSplineSet
EndChar

StartChar: asciitilde
Encoding: 126 126 95
Width: 1233
Flags: W
LayerCount: 2
Fore
SplineSet
1226 637 m 1,0,1
 1093 432 1093 432 994 359 c 0,2,3
 893 287 893 287 801 287 c 1,4,5
 729 291 729 291 672 328.5 c 128,-1,6
 615 366 615 366 572 436 c 2,7,-1
 459 625 l 2,8,9
 431 671 431 671 372 670 c 0,10,11
 306 670 306 670 259 607 c 0,12,13
 202 535 202 535 130 414 c 1,14,-1
 -13 508 l 1,15,16
 94 709 94 709 200 794 c 0,17,18
 256 839 256 839 308.5 860.5 c 128,-1,19
 361 882 361 882 409 882 c 0,20,21
 497 883 497 883 564.5 831 c 128,-1,22
 632 779 632 779 678 678 c 0,23,24
 720 587 720 587 760 540.5 c 128,-1,25
 800 494 800 494 838 494 c 0,26,27
 905 494 905 494 965 570 c 0,28,29
 999 613 999 613 1029.5 657 c 128,-1,30
 1060 701 1060 701 1087 747 c 1,31,-1
 1226 637 l 1,0,1
EndSplineSet
EndChar

StartChar: exclamdown
Encoding: 161 161 97
Width: 1233
Flags: W
LayerCount: 2
Fore
SplineSet
840 1210 m 1,0,-1
 573 1210 l 1,1,-1
 629 1493 l 1,2,-1
 895 1493 l 1,3,-1
 840 1210 l 1,0,-1
604 0 m 1,4,-1
 338 0 l 1,5,-1
 465 655 l 1,6,-1
 567 1012 l 1,7,-1
 766 1012 l 1,8,-1
 731 655 l 1,9,-1
 604 0 l 1,4,-1
EndSplineSet
EndChar

StartChar: cent
Encoding: 162 162 98
Width: 1233
Flags: W
LayerCount: 2
Fore
SplineSet
1102 1077 m 1,0,-1
 1049 813 l 1,1,2
 1004 853 1004 853 949 876.5 c 128,-1,3
 894 900 894 900 830 907 c 1,4,-1
 695 215 l 1,5,6
 759 220 759 220 823.5 243 c 128,-1,7
 888 266 888 266 952 307 c 1,8,-1
 901 43 l 1,9,10
 839 12 839 12 775.5 -5 c 128,-1,11
 712 -22 712 -22 647 -25 c 1,12,-1
 592 -313 l 1,13,-1
 451 -313 l 1,14,-1
 506 -25 l 1,15,16
 312 -3 312 -3 208 115.5 c 128,-1,17
 104 234 104 234 104 434 c 0,18,19
 104 589 104 589 158.5 727 c 128,-1,20
 213 865 213 865 315 971 c 0,21,22
 395 1054 395 1054 502.5 1098.5 c 128,-1,23
 610 1143 610 1143 733 1145 c 1,24,-1
 788 1432 l 1,25,-1
 930 1432 l 1,26,-1
 875 1145 l 1,27,28
 928 1142 928 1142 985 1125 c 128,-1,29
 1042 1108 1042 1108 1102 1077 c 1,0,-1
552 215 m 1,30,-1
 688 907 l 1,31,32
 552 892 552 892 458.5 761.5 c 128,-1,33
 365 631 365 631 365 457 c 0,34,35
 365 351 365 351 417 284.5 c 128,-1,36
 469 218 469 218 552 215 c 1,30,-1
EndSplineSet
EndChar

StartChar: sterling
Encoding: 163 163 99
Width: 1233
Flags: W
LayerCount: 2
Fore
SplineSet
1245 1456 m 1,0,-1
 1192 1190 l 1,1,2
 1132 1231 1132 1231 1073 1251.5 c 128,-1,3
 1014 1272 1014 1272 952 1272 c 0,4,5
 847 1272 847 1272 783.5 1205 c 128,-1,6
 720 1138 720 1138 692 995 c 2,7,-1
 659 819 l 1,8,-1
 995 819 l 1,9,-1
 952 594 l 1,10,-1
 614 594 l 1,11,-1
 551 260 l 1,12,-1
 1032 260 l 1,13,-1
 981 0 l 1,14,-1
 -23 0 l 1,15,-1
 29 260 l 1,16,-1
 264 260 l 1,17,-1
 328 594 l 1,18,-1
 129 594 l 1,19,-1
 174 819 l 1,20,-1
 373 819 l 1,21,-1
 410 1016 l 2,22,23
 461 1284 461 1284 589 1402 c 128,-1,24
 717 1520 717 1520 956 1520 c 0,25,26
 1030 1520 1030 1520 1102 1504 c 128,-1,27
 1174 1488 1174 1488 1245 1456 c 1,0,-1
EndSplineSet
EndChar

StartChar: currency
Encoding: 164 164 100
Width: 1233
Flags: W
LayerCount: 2
Fore
SplineSet
827 643 m 0,0,1
 827 716 827 716 777 765.5 c 128,-1,2
 727 815 727 815 653 815 c 0,3,4
 580 815 580 815 529.5 765.5 c 128,-1,5
 479 716 479 716 479 643 c 0,6,7
 479 569 479 569 529.5 518 c 128,-1,8
 580 467 580 467 653 467 c 0,9,10
 727 467 727 467 777 518 c 128,-1,11
 827 569 827 569 827 643 c 0,0,1
819 938 m 1,12,-1
 991 1108 l 1,13,-1
 1118 979 l 1,14,-1
 948 809 l 1,15,16
 971 768 971 768 982 726.5 c 128,-1,17
 993 685 993 685 993 641 c 0,18,19
 993 594 993 594 981.5 553.5 c 128,-1,20
 970 513 970 513 946 477 c 1,21,-1
 1118 307 l 1,22,-1
 987 176 l 1,23,-1
 817 348 l 1,24,25
 781 324 781 324 741 312.5 c 128,-1,26
 701 301 701 301 653 301 c 0,27,28
 614 301 614 301 572 311.5 c 128,-1,29
 530 322 530 322 485 344 c 1,30,-1
 315 176 l 1,31,-1
 186 305 l 1,32,-1
 356 475 l 1,33,34
 334 517 334 517 322.5 558.5 c 128,-1,35
 311 600 311 600 311 641 c 0,36,37
 311 688 311 688 322.5 728.5 c 128,-1,38
 334 769 334 769 358 807 c 1,39,-1
 186 977 l 1,40,-1
 317 1108 l 1,41,-1
 483 936 l 1,42,43
 524 960 524 960 565.5 971.5 c 128,-1,44
 607 983 607 983 653 983 c 0,45,46
 692 983 692 983 732.5 972 c 128,-1,47
 773 961 773 961 819 938 c 1,12,-1
EndSplineSet
EndChar

StartChar: yen
Encoding: 165 165 101
Width: 1233
Flags: W
LayerCount: 2
Fore
SplineSet
127 1493 m 1,0,-1
 444 1493 l 1,1,-1
 618 893 l 1,2,-1
 1026 1493 l 1,3,-1
 1343 1493 l 1,4,-1
 969 965 l 1,5,-1
 1192 965 l 1,6,-1
 1155 778 l 1,7,-1
 834 778 l 1,8,-1
 719 627 l 1,9,-1
 1126 627 l 1,10,-1
 1090 438 l 1,11,-1
 678 438 l 1,12,-1
 592 0 l 1,13,-1
 299 0 l 1,14,-1
 383 438 l 1,15,-1
 -29 438 l 1,16,-1
 8 627 l 1,17,-1
 416 627 l 1,18,-1
 358 778 l 1,19,-1
 37 778 l 1,20,-1
 74 965 l 1,21,-1
 297 965 l 1,22,-1
 127 1493 l 1,0,-1
EndSplineSet
EndChar

StartChar: brokenbar
Encoding: 166 166 102
Width: 1233
Flags: W
LayerCount: 2
Fore
SplineSet
729 408 m 1,0,-1
 729 -350 l 1,1,-1
 502 -350 l 1,2,-1
 502 408 l 1,3,-1
 729 408 l 1,0,-1
729 1432 m 1,4,-1
 729 674 l 1,5,-1
 502 674 l 1,6,-1
 502 1432 l 1,7,-1
 729 1432 l 1,4,-1
EndSplineSet
EndChar

StartChar: section
Encoding: 167 167 103
Width: 1233
Flags: W
LayerCount: 2
Fore
SplineSet
649 795 m 2,0,1
 648 795 648 795 608 822.5 c 128,-1,2
 568 850 568 850 530 877 c 1,3,4
 472 833 472 833 441 789 c 128,-1,5
 410 745 410 745 410 707 c 0,6,7
 410 668 410 668 427.5 639 c 128,-1,8
 445 610 445 610 483 584 c 2,9,-1
 561 530 l 2,10,11
 583 515 583 515 612 496 c 128,-1,12
 641 477 641 477 682 451 c 1,13,14
 739 490 739 490 770 534 c 128,-1,15
 801 578 801 578 801 618 c 0,16,17
 801 653 801 653 782 685 c 128,-1,18
 763 717 763 717 729 741 c 2,19,-1
 649 795 l 2,0,1
1059 1460 m 1,20,-1
 1014 1231 l 1,21,22
 946 1265 946 1265 880.5 1281.5 c 128,-1,23
 815 1298 815 1298 752 1298 c 0,24,25
 667 1298 667 1298 620 1264 c 128,-1,26
 573 1230 573 1230 573 1167 c 0,27,28
 573 1126 573 1126 603.5 1090 c 128,-1,29
 634 1054 634 1054 743 985 c 2,30,-1
 848 918 l 2,31,32
 947 853 947 853 989.5 792 c 128,-1,33
 1032 731 1032 731 1032 655 c 0,34,35
 1032 571 1032 571 976.5 496 c 128,-1,36
 921 421 921 421 807 354 c 1,37,38
 852 311 852 311 873.5 260.5 c 128,-1,39
 895 210 895 210 895 147 c 0,40,41
 895 -5 895 -5 775.5 -100 c 128,-1,42
 656 -195 656 -195 461 -195 c 0,43,44
 379 -195 379 -195 290.5 -180 c 128,-1,45
 202 -165 202 -165 104 -135 c 1,46,-1
 150 94 l 1,47,48
 224 61 224 61 303 44 c 128,-1,49
 382 27 382 27 457 27 c 0,50,51
 543 27 543 27 590 61 c 128,-1,52
 637 95 637 95 637 158 c 0,53,54
 637 227 637 227 485 328 c 2,55,-1
 467 340 l 1,56,-1
 367 408 l 2,57,58
 258 480 258 480 218 537.5 c 128,-1,59
 178 595 178 595 178 670 c 0,60,61
 178 763 178 763 239 840 c 128,-1,62
 300 917 300 917 414 967 c 1,63,64
 363 1008 363 1008 339 1057 c 128,-1,65
 315 1106 315 1106 315 1169 c 0,66,67
 315 1326 315 1326 432.5 1423 c 128,-1,68
 550 1520 550 1520 741 1520 c 0,69,70
 812 1520 812 1520 892 1505 c 128,-1,71
 972 1490 972 1490 1059 1460 c 1,20,-1
EndSplineSet
EndChar

StartChar: dieresis
Encoding: 168 168 104
Width: 1233
Flags: W
LayerCount: 2
Fore
SplineSet
858 1585 m 1,0,-1
 1096 1585 l 1,1,-1
 1047 1339 l 1,2,-1
 811 1339 l 1,3,-1
 858 1585 l 1,0,-1
463 1585 m 1,4,-1
 700 1585 l 1,5,-1
 651 1339 l 1,6,-1
 416 1339 l 1,7,-1
 463 1585 l 1,4,-1
EndSplineSet
EndChar

StartChar: copyright
Encoding: 169 169 105
Width: 1233
Flags: W
LayerCount: 2
Fore
SplineSet
848 1049 m 1,0,-1
 848 881 l 1,1,2
 796 912 796 912 750.5 926 c 128,-1,3
 705 940 705 940 657 940 c 0,4,5
 560 940 560 940 506.5 888 c 128,-1,6
 453 836 453 836 453 741 c 256,7,8
 453 646 453 646 506 594.5 c 128,-1,9
 559 543 559 543 657 543 c 0,10,11
 710 543 710 543 758 557.5 c 128,-1,12
 806 572 806 572 848 602 c 1,13,-1
 848 434 l 1,14,15
 793 417 793 417 740 408 c 128,-1,16
 687 399 687 399 637 399 c 0,17,18
 468 399 468 399 367 492.5 c 128,-1,19
 266 586 266 586 266 741 c 0,20,21
 266 897 266 897 367 990 c 128,-1,22
 468 1083 468 1083 637 1083 c 0,23,24
 692 1083 692 1083 744.5 1074.5 c 128,-1,25
 797 1066 797 1066 848 1049 c 1,0,-1
616 1358 m 0,26,27
 743 1358 743 1358 852 1313 c 128,-1,28
 961 1268 961 1268 1051 1178 c 0,29,30
 1141 1087 1141 1087 1187 977 c 128,-1,31
 1233 867 1233 867 1233 741 c 0,32,33
 1233 616 1233 616 1187.5 507 c 128,-1,34
 1142 398 1142 398 1051 307 c 256,35,36
 960 216 960 216 851 170.5 c 128,-1,37
 742 125 742 125 616 125 c 0,38,39
 491 125 491 125 382 170.5 c 128,-1,40
 273 216 273 216 182 307 c 256,41,42
 91 398 91 398 45.5 507 c 128,-1,43
 0 616 0 616 0 741 c 0,44,45
 0 867 0 867 46 977 c 128,-1,46
 92 1087 92 1087 182 1178 c 0,47,48
 272 1268 272 1268 381 1313 c 128,-1,49
 490 1358 490 1358 616 1358 c 0,26,27
616 1229 m 0,50,51
 517 1229 517 1229 432 1193.5 c 128,-1,52
 347 1158 347 1158 274 1085 c 0,53,54
 203 1014 203 1014 167 928 c 128,-1,55
 131 842 131 842 131 741 c 0,56,57
 131 643 131 643 167 558 c 128,-1,58
 203 473 203 473 274 401 c 256,59,60
 345 329 345 329 431 292.5 c 128,-1,61
 517 256 517 256 616 256 c 0,62,63
 716 256 716 256 802 292.5 c 128,-1,64
 888 329 888 329 958 401 c 0,65,66
 1030 473 1030 473 1066 558 c 128,-1,67
 1102 643 1102 643 1102 741 c 0,68,69
 1102 842 1102 842 1066 928 c 128,-1,70
 1030 1014 1030 1014 958 1085 c 0,71,72
 886 1158 886 1158 801.5 1193.5 c 128,-1,73
 717 1229 717 1229 616 1229 c 0,50,51
EndSplineSet
EndChar

StartChar: ordfeminine
Encoding: 170 170 106
Width: 1233
Flags: W
LayerCount: 2
Fore
SplineSet
1032 1165 m 2,0,-1
 944 717 l 1,1,-1
 737 717 l 1,2,-1
 756 805 l 1,3,4
 710 751 710 751 648.5 724.5 c 128,-1,5
 587 698 587 698 508 698 c 0,6,7
 401 698 401 698 337.5 759 c 128,-1,8
 274 820 274 820 274 924 c 0,9,10
 274 1073 274 1073 385.5 1153 c 128,-1,11
 497 1233 497 1233 705 1233 c 2,12,-1
 840 1233 l 1,13,-1
 846 1268 l 2,14,15
 847 1271 847 1271 847.5 1275 c 128,-1,16
 848 1279 848 1279 848 1286 c 0,17,18
 848 1326 848 1326 811.5 1347 c 128,-1,19
 775 1368 775 1368 705 1368 c 0,20,21
 648 1368 648 1368 574.5 1348 c 128,-1,22
 501 1328 501 1328 418 1290 c 1,23,-1
 451 1464 l 1,24,25
 531 1492 531 1492 602.5 1506 c 128,-1,26
 674 1520 674 1520 739 1520 c 0,27,28
 887 1520 887 1520 969 1467.5 c 128,-1,29
 1051 1415 1051 1415 1051 1321 c 0,30,31
 1051 1289 1051 1289 1047 1254.5 c 128,-1,32
 1043 1220 1043 1220 1032 1165 c 2,0,-1
731 1087 m 2,33,34
 609 1087 609 1087 550.5 1051 c 128,-1,35
 492 1015 492 1015 492 940 c 0,36,37
 492 896 492 896 521 867 c 128,-1,38
 550 838 550 838 594 838 c 0,39,40
 679 838 679 838 735 902.5 c 128,-1,41
 791 967 791 967 811 1087 c 1,42,-1
 731 1087 l 2,33,34
246 598 m 1,43,-1
 934 598 l 1,44,-1
 899 428 l 1,45,-1
 211 428 l 1,46,-1
 246 598 l 1,43,-1
EndSplineSet
EndChar

StartChar: guillemotleft
Encoding: 171 171 107
Width: 1233
Flags: W
LayerCount: 2
Fore
SplineSet
1102 1059 m 1,0,-1
 1057 821 l 1,1,-1
 737 600 l 1,2,-1
 971 379 l 1,3,-1
 926 141 l 1,4,-1
 532 535 l 1,5,-1
 557 666 l 1,6,-1
 1102 1059 l 1,0,-1
649 1059 m 1,7,-1
 602 821 l 1,8,-1
 283 600 l 1,9,-1
 516 379 l 1,10,-1
 471 141 l 1,11,-1
 78 535 l 1,12,-1
 102 666 l 1,13,-1
 649 1059 l 1,7,-1
EndSplineSet
EndChar

StartChar: logicalnot
Encoding: 172 172 108
Width: 1233
Flags: W
LayerCount: 2
Fore
SplineSet
88 899 m 1,0,-1
 1145 899 l 1,1,-1
 1145 362 l 1,2,-1
 907 362 l 1,3,-1
 907 662 l 1,4,-1
 88 662 l 1,5,-1
 88 899 l 1,0,-1
EndSplineSet
EndChar

StartChar: sfthyphen
Encoding: 173 173 109
Width: 1233
Flags: W
LayerCount: 2
Fore
SplineSet
124 724 m 1,0,-1
 1114 724 l 1,1,-1
 1070 455 l 1,2,-1
 80 455 l 1,3,-1
 124 724 l 1,0,-1
EndSplineSet
EndChar

StartChar: registered
Encoding: 174 174 110
Width: 1233
Flags: W
LayerCount: 2
Fore
SplineSet
616 1358 m 0,0,1
 743 1358 743 1358 852 1313 c 128,-1,2
 961 1268 961 1268 1051 1178 c 0,3,4
 1141 1087 1141 1087 1187 977 c 128,-1,5
 1233 867 1233 867 1233 741 c 0,6,7
 1233 616 1233 616 1187.5 507 c 128,-1,8
 1142 398 1142 398 1051 307 c 256,9,10
 960 216 960 216 851 170.5 c 128,-1,11
 742 125 742 125 616 125 c 0,12,13
 491 125 491 125 382 170.5 c 128,-1,14
 273 216 273 216 182 307 c 256,15,16
 91 398 91 398 45.5 507 c 128,-1,17
 0 616 0 616 0 741 c 0,18,19
 0 867 0 867 46 977 c 128,-1,20
 92 1087 92 1087 182 1178 c 0,21,22
 272 1268 272 1268 381 1313 c 128,-1,23
 490 1358 490 1358 616 1358 c 0,0,1
588 944 m 2,24,-1
 524 944 l 1,25,-1
 524 780 l 1,26,-1
 588 780 l 2,27,28
 645 780 645 780 673.5 800 c 128,-1,29
 702 820 702 820 702 860 c 0,30,31
 702 903 702 903 674 923.5 c 128,-1,32
 646 944 646 944 588 944 c 2,24,-1
606 1055 m 2,33,34
 739 1055 739 1055 803.5 1011 c 128,-1,35
 868 967 868 967 868 877 c 0,36,37
 868 812 868 812 829 769.5 c 128,-1,38
 790 727 790 727 719 715 c 1,39,40
 757 701 757 701 784.5 673 c 128,-1,41
 812 645 812 645 836 596 c 2,42,-1
 915 430 l 1,43,-1
 743 430 l 1,44,-1
 680 563 l 2,45,46
 653 621 653 621 624.5 644.5 c 128,-1,47
 596 668 596 668 555 670 c 2,48,-1
 524 670 l 1,49,-1
 524 430 l 1,50,-1
 360 430 l 1,51,-1
 360 1055 l 1,52,-1
 606 1055 l 2,33,34
616 1229 m 0,53,54
 517 1229 517 1229 432 1193.5 c 128,-1,55
 347 1158 347 1158 274 1085 c 0,56,57
 203 1014 203 1014 167 928 c 128,-1,58
 131 842 131 842 131 741 c 0,59,60
 131 643 131 643 167 558 c 128,-1,61
 203 473 203 473 274 399 c 0,62,63
 346 328 346 328 431.5 292 c 128,-1,64
 517 256 517 256 616 256 c 256,65,66
 715 256 715 256 801 292 c 128,-1,67
 887 328 887 328 958 399 c 0,68,69
 1030 473 1030 473 1066 558 c 128,-1,70
 1102 643 1102 643 1102 741 c 0,71,72
 1102 842 1102 842 1066 928 c 128,-1,73
 1030 1014 1030 1014 958 1085 c 0,74,75
 886 1158 886 1158 801.5 1193.5 c 128,-1,76
 717 1229 717 1229 616 1229 c 0,53,54
EndSplineSet
EndChar

StartChar: macron
Encoding: 175 175 111
Width: 1233
Flags: W
LayerCount: 2
Fore
SplineSet
120 1512 m 1,0,-1
 1122 1512 l 1,1,-1
 1089 1330 l 1,2,-1
 87 1330 l 1,3,-1
 120 1512 l 1,0,-1
EndSplineSet
EndChar

StartChar: degree
Encoding: 176 176 112
Width: 1233
Flags: W
LayerCount: 2
Fore
SplineSet
616 1520 m 0,0,1
 683 1520 683 1520 744 1494.5 c 128,-1,2
 805 1469 805 1469 852 1421 c 0,3,4
 899 1374 899 1374 923.5 1314 c 128,-1,5
 948 1254 948 1254 948 1186 c 0,6,7
 948 1120 948 1120 923 1059 c 128,-1,8
 898 998 898 998 852 952 c 0,9,10
 804 905 804 905 743 879.5 c 128,-1,11
 682 854 682 854 614 854 c 0,12,13
 473 854 473 854 378 949 c 128,-1,14
 283 1044 283 1044 283 1186 c 0,15,16
 283 1327 283 1327 379 1423.5 c 128,-1,17
 475 1520 475 1520 616 1520 c 0,0,1
616 1358 m 0,18,19
 544 1358 544 1358 494 1308 c 128,-1,20
 444 1258 444 1258 444 1186 c 256,21,22
 444 1114 444 1114 493 1065 c 128,-1,23
 542 1016 542 1016 614 1016 c 256,24,25
 686 1016 686 1016 736 1065.5 c 128,-1,26
 786 1115 786 1115 786 1186 c 0,27,28
 786 1258 786 1258 736.5 1308 c 128,-1,29
 687 1358 687 1358 616 1358 c 0,18,19
EndSplineSet
EndChar

StartChar: plusminus
Encoding: 177 177 113
Width: 1233
Flags: W
LayerCount: 2
Fore
SplineSet
735 1284 m 1,0,-1
 735 930 l 1,1,-1
 1145 930 l 1,2,-1
 1145 694 l 1,3,-1
 735 694 l 1,4,-1
 735 340 l 1,5,-1
 498 340 l 1,6,-1
 498 694 l 1,7,-1
 88 694 l 1,8,-1
 88 930 l 1,9,-1
 498 930 l 1,10,-1
 498 1284 l 1,11,-1
 735 1284 l 1,0,-1
88 238 m 1,12,-1
 1145 238 l 1,13,-1
 1145 0 l 1,14,-1
 88 0 l 1,15,-1
 88 238 l 1,12,-1
EndSplineSet
EndChar

StartChar: twosuperior
Encoding: 178 178 114
Width: 1233
Flags: W
LayerCount: 2
Fore
SplineSet
514 813 m 1,0,-1
 952 813 l 1,1,-1
 924 668 l 1,2,-1
 260 668 l 1,3,-1
 289 809 l 1,4,5
 340 846 340 846 431 911 c 0,6,7
 831 1197 831 1197 831 1288 c 0,8,9
 831 1333 831 1333 795 1357.5 c 128,-1,10
 759 1382 759 1382 692 1382 c 0,11,12
 629 1382 629 1382 554.5 1364 c 128,-1,13
 480 1346 480 1346 403 1311 c 1,14,-1
 434 1473 l 1,15,16
 510 1496 510 1496 583 1508 c 128,-1,17
 656 1520 656 1520 729 1520 c 0,18,19
 873 1520 873 1520 950.5 1466 c 128,-1,20
 1028 1412 1028 1412 1028 1313 c 0,21,22
 1028 1173 1028 1173 618 886 c 0,23,24
 550 839 550 839 514 813 c 1,0,-1
EndSplineSet
EndChar

StartChar: threesuperior
Encoding: 179 179 115
Width: 1233
Flags: W
LayerCount: 2
Fore
SplineSet
639 1042 m 2,0,-1
 528 1042 l 1,1,-1
 557 1188 l 1,2,-1
 666 1188 l 2,3,4
 754 1188 754 1188 801 1215.5 c 128,-1,5
 848 1243 848 1243 848 1294 c 0,6,7
 848 1334 848 1334 808 1357 c 128,-1,8
 768 1380 768 1380 698 1380 c 0,9,10
 650 1380 650 1380 581 1368 c 128,-1,11
 512 1356 512 1356 432 1333 c 1,12,-1
 461 1485 l 1,13,14
 534 1502 534 1502 604.5 1511 c 128,-1,15
 675 1520 675 1520 741 1520 c 0,16,17
 882 1520 882 1520 961 1469 c 128,-1,18
 1040 1418 1040 1418 1040 1329 c 0,19,20
 1040 1239 1040 1239 979.5 1183.5 c 128,-1,21
 919 1128 919 1128 807 1116 c 1,22,23
 890 1107 890 1107 939.5 1057.5 c 128,-1,24
 989 1008 989 1008 989 934 c 0,25,26
 989 800 989 800 879.5 726.5 c 128,-1,27
 770 653 770 653 567 653 c 0,28,29
 492 653 492 653 418.5 663.5 c 128,-1,30
 345 674 345 674 276 694 c 1,31,-1
 307 848 l 1,32,33
 369 821 369 821 442 807 c 128,-1,34
 515 793 515 793 594 793 c 0,35,36
 690 793 690 793 745.5 833.5 c 128,-1,37
 801 874 801 874 801 944 c 0,38,39
 801 989 801 989 757.5 1015.5 c 128,-1,40
 714 1042 714 1042 639 1042 c 2,0,-1
EndSplineSet
EndChar

StartChar: acute
Encoding: 180 180 116
Width: 1233
Flags: W
LayerCount: 2
Fore
SplineSet
887 1638 m 1,0,-1
 1208 1638 l 1,1,-1
 766 1262 l 1,2,-1
 569 1262 l 1,3,-1
 887 1638 l 1,0,-1
EndSplineSet
EndChar

StartChar: mu
Encoding: 181 181 117
Width: 1233
Flags: W
LayerCount: 2
Fore
SplineSet
-55 -428 m 1,0,-1
 246 1120 l 1,1,-1
 535 1120 l 1,2,-1
 403 440 l 2,3,4
 397 412 397 412 394 388 c 128,-1,5
 391 364 391 364 391 346 c 0,6,7
 391 283 391 283 425 248 c 128,-1,8
 459 213 459 213 520 213 c 0,9,10
 602 213 602 213 653 269 c 128,-1,11
 704 325 704 325 727 440 c 2,12,-1
 858 1120 l 1,13,-1
 1147 1120 l 1,14,-1
 997 344 l 2,15,16
 992 309 992 309 989.5 292.5 c 128,-1,17
 987 276 987 276 987 268 c 0,18,19
 987 241 987 241 997.5 227 c 128,-1,20
 1008 213 1008 213 1028 213 c 0,21,22
 1040 213 1040 213 1054.5 219 c 128,-1,23
 1069 225 1069 225 1090 238 c 1,24,-1
 1047 16 l 1,25,26
 1001 -7 1001 -7 961 -18 c 128,-1,27
 921 -29 921 -29 885 -29 c 0,28,29
 813 -29 813 -29 775 8.5 c 128,-1,30
 737 46 737 46 725 129 c 1,31,32
 672 50 672 50 610.5 10.5 c 128,-1,33
 549 -29 549 -29 479 -29 c 0,34,35
 421 -29 421 -29 383 -5 c 128,-1,36
 345 19 345 19 330 66 c 1,37,-1
 233 -428 l 1,38,-1
 -55 -428 l 1,0,-1
EndSplineSet
EndChar

StartChar: paragraph
Encoding: 182 182 118
Width: 1233
Flags: W
LayerCount: 2
Fore
SplineSet
672 1493 m 2,0,-1
 1190 1493 l 1,1,-1
 862 -197 l 1,2,-1
 672 -197 l 1,3,-1
 973 1346 l 1,4,-1
 782 1346 l 1,5,-1
 483 -197 l 1,6,-1
 293 -197 l 1,7,-1
 457 649 l 1,8,9
 286 667 286 667 194 753 c 128,-1,10
 102 839 102 839 102 981 c 0,11,12
 102 1198 102 1198 264.5 1345.5 c 128,-1,13
 427 1493 427 1493 672 1493 c 2,0,-1
EndSplineSet
EndChar

StartChar: periodcentered
Encoding: 183 183 119
Width: 1233
Flags: W
LayerCount: 2
Fore
SplineSet
479 895 m 1,0,-1
 813 895 l 1,1,-1
 741 530 l 1,2,-1
 408 530 l 1,3,-1
 479 895 l 1,0,-1
EndSplineSet
EndChar

StartChar: onesuperior
Encoding: 185 185 121
Width: 1233
Flags: W
LayerCount: 2
Fore
SplineSet
315 813 m 1,0,-1
 551 813 l 1,1,-1
 657 1356 l 1,2,-1
 428 1313 l 1,3,-1
 457 1462 l 1,4,-1
 686 1503 l 1,5,-1
 883 1503 l 1,6,-1
 748 813 l 1,7,-1
 975 813 l 1,8,-1
 946 668 l 1,9,-1
 289 668 l 1,10,-1
 315 813 l 1,0,-1
EndSplineSet
EndChar

StartChar: ordmasculine
Encoding: 186 186 122
Width: 1233
Flags: W
LayerCount: 2
Fore
SplineSet
307 1016 m 0,0,1
 307 1240 307 1240 426.5 1380 c 128,-1,2
 546 1520 546 1520 739 1520 c 0,3,4
 894 1520 894 1520 980.5 1436 c 128,-1,5
 1067 1352 1067 1352 1067 1202 c 0,6,7
 1067 977 1067 977 948 837.5 c 128,-1,8
 829 698 829 698 637 698 c 0,9,10
 481 698 481 698 394 782 c 128,-1,11
 307 866 307 866 307 1016 c 0,0,1
856 1196 m 0,12,13
 856 1272 856 1272 822 1314 c 128,-1,14
 788 1356 788 1356 727 1356 c 0,15,16
 640 1356 640 1356 580 1260 c 128,-1,17
 520 1164 520 1164 520 1022 c 0,18,19
 520 947 520 947 554.5 904.5 c 128,-1,20
 589 862 589 862 649 862 c 0,21,22
 736 862 736 862 796 958 c 128,-1,23
 856 1054 856 1054 856 1196 c 0,12,13
254 598 m 1,24,-1
 942 598 l 1,25,-1
 909 428 l 1,26,-1
 221 428 l 1,27,-1
 254 598 l 1,24,-1
EndSplineSet
EndChar

StartChar: guillemotright
Encoding: 187 187 123
Width: 1233
Flags: W
LayerCount: 2
Fore
SplineSet
260 1059 m 1,0,-1
 653 666 l 1,1,-1
 627 535 l 1,2,-1
 82 141 l 1,3,-1
 127 379 l 1,4,-1
 449 600 l 1,5,-1
 215 821 l 1,6,-1
 260 1059 l 1,0,-1
715 1059 m 1,7,-1
 1108 666 l 1,8,-1
 1081 535 l 1,9,-1
 537 141 l 1,10,-1
 582 379 l 1,11,-1
 903 600 l 1,12,-1
 670 821 l 1,13,-1
 715 1059 l 1,7,-1
EndSplineSet
EndChar

StartChar: questiondown
Encoding: 191 191 127
Width: 1233
Flags: W
LayerCount: 2
Fore
SplineSet
594 1092 m 1,0,-1
 860 1092 l 1,1,-1
 831 938 l 2,2,3
 814 843 814 843 769.5 772 c 128,-1,4
 725 701 725 701 631 621 c 2,5,-1
 526 528 l 1,6,-1
 511 515 l 2,7,8
 371 393 371 393 371 328 c 0,9,10
 371 271 371 271 408 240 c 128,-1,11
 445 209 445 209 514 209 c 0,12,13
 603 209 603 209 705.5 245.5 c 128,-1,14
 808 282 808 282 924 354 c 1,15,-1
 872 86 l 1,16,17
 771 31 771 31 664 2 c 128,-1,18
 557 -27 557 -27 453 -27 c 0,19,20
 288 -27 288 -27 189 55.5 c 128,-1,21
 90 138 90 138 90 272 c 0,22,23
 90 367 90 367 139 450 c 128,-1,24
 188 533 188 533 305 631 c 2,25,-1
 410 717 l 1,26,-1
 418 724 l 2,27,28
 544 829 544 829 571 969 c 2,29,-1
 594 1092 l 1,0,-1
885 1210 m 1,30,-1
 618 1210 l 1,31,-1
 672 1493 l 1,32,-1
 940 1493 l 1,33,-1
 885 1210 l 1,30,-1
EndSplineSet
EndChar

StartChar: Aring
Encoding: 197 197 133
Width: 1233
Flags: W
LayerCount: 2
Fore
SplineSet
623 1616 m 256,0,1
 623 1562 623 1562 661.5 1523.5 c 128,-1,2
 700 1485 700 1485 754 1485 c 256,3,4
 808 1485 808 1485 846.5 1523.5 c 128,-1,5
 885 1562 885 1562 885 1616 c 256,6,7
 885 1670 885 1670 846 1708.5 c 128,-1,8
 807 1747 807 1747 754 1747 c 0,9,10
 700 1747 700 1747 661.5 1708.5 c 128,-1,11
 623 1670 623 1670 623 1616 c 256,0,1
948 1409 m 1,12,-1
 1055 0 l 1,13,-1
 760 0 l 1,14,-1
 739 369 l 1,15,-1
 344 369 l 1,16,-1
 182 0 l 1,17,-1
 -113 0 l 1,18,-1
 547 1421 l 1,19,20
 511 1457 511 1457 490 1510 c 128,-1,21
 469 1563 469 1563 469 1616 c 0,22,23
 469 1733 469 1733 552.5 1817 c 128,-1,24
 636 1901 636 1901 754 1901 c 0,25,26
 870 1901 870 1901 954 1817 c 128,-1,27
 1038 1733 1038 1733 1038 1616 c 0,28,29
 1038 1557 1038 1557 1014.5 1503 c 128,-1,30
 991 1449 991 1449 948 1409 c 1,12,-1
709 1223 m 1,31,-1
 451 612 l 1,32,-1
 729 612 l 1,33,-1
 709 1223 l 1,31,-1
EndSplineSet
Ligature2: "<27,0> Canonical Decomposition lookup 1 subtable" A uni030A
EndChar

StartChar: AE
Encoding: 198 198 134
Width: 1233
Flags: W
LayerCount: 2
Fore
SplineSet
1311 1493 m 1,0,-1
 1260 1233 l 1,1,-1
 969 1233 l 1,2,-1
 909 922 l 1,3,-1
 1169 922 l 1,4,-1
 1118 662 l 1,5,-1
 858 662 l 1,6,-1
 780 260 l 1,7,-1
 1090 260 l 1,8,-1
 1038 0 l 1,9,-1
 475 0 l 1,10,-1
 547 362 l 1,11,-1
 264 362 l 1,12,-1
 109 0 l 1,13,-1
 -150 0 l 1,14,-1
 502 1493 l 1,15,-1
 1311 1493 l 1,0,-1
637 1233 m 1,16,-1
 365 598 l 1,17,-1
 592 598 l 1,18,-1
 717 1233 l 1,19,-1
 637 1233 l 1,16,-1
EndSplineSet
EndChar

StartChar: Eth
Encoding: 208 208 144
Width: 1233
Flags: W
LayerCount: 2
Fore
SplineSet
283 1493 m 1,0,-1
 598 1493 l 2,1,2
 883 1493 883 1493 1024 1370 c 128,-1,3
 1165 1247 1165 1247 1165 999 c 0,4,5
 1165 912 1165 912 1151.5 813.5 c 128,-1,6
 1138 715 1138 715 1110 602 c 0,7,8
 1073 451 1073 451 1021 346 c 128,-1,9
 969 241 969 241 897 172 c 0,10,11
 803 80 803 80 672 40 c 128,-1,12
 541 0 541 0 322 0 c 2,13,-1
 -8 0 l 1,14,-1
 121 664 l 1,15,-1
 -16 664 l 1,16,-1
 31 901 l 1,17,-1
 166 901 l 1,18,-1
 283 1493 l 1,0,-1
524 1227 m 1,19,-1
 461 901 l 1,20,-1
 672 901 l 1,21,-1
 627 664 l 1,22,-1
 416 664 l 1,23,-1
 338 266 l 1,24,-1
 434 266 l 2,25,26
 546 266 546 266 623 310 c 128,-1,27
 700 354 700 354 743 442 c 0,28,29
 795 548 795 548 827.5 694.5 c 128,-1,30
 860 841 860 841 860 967 c 0,31,32
 860 1099 860 1099 797.5 1163 c 128,-1,33
 735 1227 735 1227 606 1227 c 2,34,-1
 524 1227 l 1,19,-1
EndSplineSet
EndChar

StartChar: multiply
Encoding: 215 215 151
Width: 1233
Flags: W
LayerCount: 2
Fore
SplineSet
1112 971 m 1,0,-1
 782 643 l 1,1,-1
 1112 313 l 1,2,-1
 944 147 l 1,3,-1
 614 475 l 1,4,-1
 287 147 l 1,5,-1
 119 313 l 1,6,-1
 449 643 l 1,7,-1
 119 971 l 1,8,-1
 287 1139 l 1,9,-1
 614 811 l 1,10,-1
 944 1139 l 1,11,-1
 1112 971 l 1,0,-1
EndSplineSet
EndChar

StartChar: Oslash
Encoding: 216 216 152
Width: 1233
Flags: W
LayerCount: 2
Fore
SplineSet
375 354 m 1,0,1
 393 294 393 294 431.5 263.5 c 128,-1,2
 470 233 470 233 526 233 c 0,3,4
 651 233 651 233 728.5 386 c 128,-1,5
 806 539 806 539 858 889 c 1,6,-1
 375 354 l 1,0,1
78 295 m 1,7,8
 70 329 70 329 65.5 366 c 128,-1,9
 61 403 61 403 61 442 c 0,10,11
 61 656 61 656 110 865 c 128,-1,12
 159 1074 159 1074 244 1227 c 0,13,14
 322 1369 322 1369 448 1444.5 c 128,-1,15
 574 1520 574 1520 731 1520 c 0,16,17
 836 1520 836 1520 919 1487 c 128,-1,18
 1002 1454 1002 1454 1063 1389 c 1,19,-1
 1217 1559 l 1,20,-1
 1356 1444 l 1,21,-1
 1151 1217 l 1,22,23
 1161 1161 1161 1161 1166 1112.5 c 128,-1,24
 1171 1064 1171 1064 1171 1020 c 0,25,26
 1171 958 1171 958 1164 887 c 128,-1,27
 1157 816 1157 816 1143 737 c 0,28,29
 1118 598 1118 598 1080 480 c 128,-1,30
 1042 362 1042 362 989 264 c 0,31,32
 911 123 911 123 785.5 47 c 128,-1,33
 660 -29 660 -29 504 -29 c 0,34,35
 390 -29 390 -29 303.5 8 c 128,-1,36
 217 45 217 45 160 117 c 1,37,-1
 0 -63 l 1,38,-1
 -141 51 l 1,39,-1
 78 295 l 1,7,8
852 1153 m 1,40,41
 834 1205 834 1205 796.5 1232.5 c 128,-1,42
 759 1260 759 1260 707 1260 c 0,43,44
 586 1260 586 1260 509.5 1113.5 c 128,-1,45
 433 967 433 967 379 629 c 1,46,-1
 852 1153 l 1,40,41
EndSplineSet
EndChar

StartChar: Thorn
Encoding: 222 222 158
Width: 1233
Flags: W
LayerCount: 2
Fore
SplineSet
375 332 m 1,0,-1
 311 0 l 1,1,-1
 16 0 l 1,2,-1
 307 1493 l 1,3,-1
 602 1493 l 1,4,-1
 555 1266 l 1,5,-1
 682 1266 l 2,6,7
 918 1266 918 1266 1041.5 1174 c 128,-1,8
 1165 1082 1165 1082 1165 907 c 0,9,10
 1165 794 1165 794 1128.5 683 c 128,-1,11
 1092 572 1092 572 1034 506 c 0,12,13
 956 414 956 414 839.5 373 c 128,-1,14
 723 332 723 332 539 332 c 2,15,-1
 375 332 l 1,0,-1
510 1018 m 1,16,-1
 424 580 l 1,17,-1
 569 580 l 2,18,19
 715 580 715 580 786.5 647 c 128,-1,20
 858 714 858 714 858 850 c 0,21,22
 858 941 858 941 806.5 979.5 c 128,-1,23
 755 1018 755 1018 631 1018 c 2,24,-1
 510 1018 l 1,16,-1
EndSplineSet
EndChar

StartChar: germandbls
Encoding: 223 223 159
Width: 1233
Flags: W
LayerCount: 2
Fore
SplineSet
1145 1059 m 1,0,1
 1004 1051 1004 1051 926 1001 c 128,-1,2
 848 951 848 951 848 868 c 0,3,4
 848 811 848 811 944 715 c 2,5,-1
 950 709 l 1,6,-1
 1026 633 l 2,7,8
 1085 574 1085 574 1114 511.5 c 128,-1,9
 1143 449 1143 449 1143 381 c 0,10,11
 1143 193 1143 193 1014.5 82 c 128,-1,12
 886 -29 886 -29 666 -29 c 0,13,14
 600 -29 600 -29 535 -16.5 c 128,-1,15
 470 -4 470 -4 406 20 c 1,16,-1
 455 270 l 1,17,18
 513 239 513 239 566.5 223 c 128,-1,19
 620 207 620 207 666 207 c 0,20,21
 756 207 756 207 808 246.5 c 128,-1,22
 860 286 860 286 860 354 c 0,23,24
 860 420 860 420 749 531 c 2,25,-1
 743 537 l 1,26,-1
 674 608 l 2,27,28
 630 653 630 653 609 704.5 c 128,-1,29
 588 756 588 756 588 815 c 0,30,31
 588 950 588 950 679.5 1043.5 c 128,-1,32
 771 1137 771 1137 940 1174 c 1,33,-1
 940 1190 l 2,34,35
 940 1254 940 1254 895 1289.5 c 128,-1,36
 850 1325 850 1325 768 1325 c 0,37,38
 675 1325 675 1325 618 1274 c 128,-1,39
 561 1223 561 1223 541 1122 c 2,40,-1
 322 0 l 1,41,-1
 29 0 l 1,42,-1
 248 1126 l 2,43,44
 289 1338 289 1338 420.5 1448.5 c 128,-1,45
 552 1559 552 1559 764 1559 c 0,46,47
 962 1559 962 1559 1059.5 1472 c 128,-1,48
 1157 1385 1157 1385 1157 1208 c 0,49,50
 1157 1165 1157 1165 1146 1065 c 1,51,-1
 1145 1059 l 1,0,1
EndSplineSet
EndChar

StartChar: ae
Encoding: 230 230 166
Width: 1233
Flags: W
LayerCount: 2
Fore
SplineSet
463 401 m 2,0,-1
 477 479 l 1,1,-1
 403 479 l 2,2,3
 305 479 305 479 246.5 427.5 c 128,-1,4
 188 376 188 376 188 291 c 0,5,6
 188 240 188 240 217 210 c 128,-1,7
 246 180 246 180 295 180 c 0,8,9
 362 180 362 180 402 232 c 128,-1,10
 442 284 442 284 463 401 c 2,0,-1
991 688 m 1,11,-1
 1003 755 l 2,12,13
 1007 772 1007 772 1008.5 789 c 128,-1,14
 1010 806 1010 806 1010 834 c 0,15,16
 1010 885 1010 885 990 908.5 c 128,-1,17
 970 932 970 932 926 932 c 0,18,19
 870 932 870 932 834.5 890 c 128,-1,20
 799 848 799 848 780 760 c 2,21,-1
 766 688 l 1,22,-1
 991 688 l 1,11,-1
1176 477 m 1,23,-1
 725 477 l 1,24,25
 717 428 717 428 714 401.5 c 128,-1,26
 711 375 711 375 711 356 c 0,27,28
 711 276 711 276 753.5 228 c 128,-1,29
 796 180 796 180 866 180 c 0,30,31
 922 180 922 180 990.5 208.5 c 128,-1,32
 1059 237 1059 237 1124 289 c 1,33,-1
 1077 51 l 1,34,35
 1020 11 1020 11 952 -9 c 128,-1,36
 884 -29 884 -29 803 -29 c 0,37,38
 709 -29 709 -29 642 13.5 c 128,-1,39
 575 56 575 56 543 135 c 1,40,41
 482 52 482 52 408.5 11.5 c 128,-1,42
 335 -29 335 -29 246 -29 c 0,43,44
 119 -29 119 -29 44 50 c 128,-1,45
 -31 129 -31 129 -31 262 c 0,46,47
 -31 455 -31 455 90.5 572.5 c 128,-1,48
 212 690 212 690 416 690 c 2,49,-1
 524 690 l 1,50,-1
 535 748 l 2,51,52
 538 763 538 763 539.5 778 c 128,-1,53
 541 793 541 793 541 807 c 0,54,55
 541 868 541 868 507 900 c 128,-1,56
 473 932 473 932 408 932 c 0,57,58
 356 932 356 932 286.5 906.5 c 128,-1,59
 217 881 217 881 131 831 c 1,60,-1
 178 1069 l 1,61,62
 257 1108 257 1108 329.5 1127.5 c 128,-1,63
 402 1147 402 1147 471 1147 c 0,64,65
 553 1147 553 1147 611 1112 c 128,-1,66
 669 1077 669 1077 694 1014 c 1,67,68
 746 1079 746 1079 815.5 1113 c 128,-1,69
 885 1147 885 1147 969 1147 c 0,70,71
 1095 1147 1095 1147 1163 1077 c 128,-1,72
 1231 1007 1231 1007 1231 877 c 0,73,74
 1231 828 1231 828 1223 761 c 128,-1,75
 1215 694 1215 694 1198 606 c 2,76,-1
 1176 477 l 1,23,-1
EndSplineSet
EndChar

StartChar: eth
Encoding: 240 240 176
Width: 1233
Flags: W
LayerCount: 2
Fore
SplineSet
838 778 m 1,0,1
 800 799 800 799 759 809 c 128,-1,2
 718 819 718 819 674 819 c 0,3,4
 545 819 545 819 460 708.5 c 128,-1,5
 375 598 375 598 375 428 c 0,6,7
 375 327 375 327 425 267 c 128,-1,8
 475 207 475 207 559 207 c 0,9,10
 685 207 685 207 766.5 332.5 c 128,-1,11
 848 458 848 458 848 655 c 0,12,13
 848 688 848 688 845.5 718 c 128,-1,14
 843 748 843 748 838 778 c 1,0,1
903 1329 m 1,15,16
 1023 1147 1023 1147 1082 979.5 c 128,-1,17
 1141 812 1141 812 1141 653 c 0,18,19
 1141 345 1141 345 976 158 c 128,-1,20
 811 -29 811 -29 539 -29 c 0,21,22
 321 -29 321 -29 201.5 86.5 c 128,-1,23
 82 202 82 202 82 412 c 0,24,25
 82 693 82 693 242 873 c 128,-1,26
 402 1053 402 1053 651 1053 c 0,27,28
 693 1053 693 1053 726 1047 c 128,-1,29
 759 1041 759 1041 788 1028 c 1,30,31
 761 1091 761 1091 733.5 1144.5 c 128,-1,32
 706 1198 706 1198 678 1243 c 1,33,-1
 348 1120 l 1,34,-1
 307 1235 l 1,35,-1
 614 1350 l 1,36,-1
 489 1556 l 1,37,-1
 768 1556 l 1,38,-1
 842 1436 l 1,39,-1
 1165 1554 l 1,40,-1
 1206 1442 l 1,41,-1
 903 1329 l 1,15,16
EndSplineSet
EndChar

StartChar: divide
Encoding: 247 247 183
Width: 1233
Flags: W
LayerCount: 2
Fore
SplineSet
461 1198 m 1,0,-1
 770 1198 l 1,1,-1
 770 889 l 1,2,-1
 461 889 l 1,3,-1
 461 1198 l 1,0,-1
461 395 m 1,4,-1
 770 395 l 1,5,-1
 770 86 l 1,6,-1
 461 86 l 1,7,-1
 461 395 l 1,4,-1
66 762 m 1,8,-1
 1165 762 l 1,9,-1
 1165 524 l 1,10,-1
 66 524 l 1,11,-1
 66 762 l 1,8,-1
EndSplineSet
EndChar

StartChar: oslash
Encoding: 248 248 184
Width: 1233
Flags: W
LayerCount: 2
Fore
SplineSet
434 266 m 1,0,1
 458 236 458 236 489.5 221.5 c 128,-1,2
 521 207 521 207 561 207 c 0,3,4
 682 207 682 207 758 328 c 128,-1,5
 834 449 834 449 850 670 c 1,6,-1
 434 266 l 1,0,1
129 209 m 1,7,8
 109 255 109 255 98.5 308 c 128,-1,9
 88 361 88 361 88 422 c 0,10,11
 88 749 88 749 253.5 949 c 128,-1,12
 419 1149 419 1149 688 1149 c 0,13,14
 780 1149 780 1149 857.5 1124 c 128,-1,15
 935 1099 935 1099 1001 1049 c 1,16,-1
 1194 1235 l 1,17,-1
 1311 1114 l 1,18,-1
 1104 913 l 1,19,20
 1124 864 1124 864 1134.5 809.5 c 128,-1,21
 1145 755 1145 755 1145 696 c 0,22,23
 1145 370 1145 370 979 170.5 c 128,-1,24
 813 -29 813 -29 543 -29 c 0,25,26
 445 -29 445 -29 369.5 -4 c 128,-1,27
 294 21 294 21 233 72 c 1,28,-1
 35 -117 l 1,29,-1
 -82 2 l 1,30,-1
 129 209 l 1,7,8
801 856 m 1,31,32
 776 884 776 884 744.5 897.5 c 128,-1,33
 713 911 713 911 674 911 c 0,34,35
 553 911 553 911 477.5 793 c 128,-1,36
 402 675 402 675 383 453 c 1,37,-1
 801 856 l 1,31,32
EndSplineSet
EndChar

StartChar: thorn
Encoding: 254 254 190
Width: 1233
Flags: W
LayerCount: 2
Fore
SplineSet
602 209 m 0,0,1
 713 209 713 209 793.5 351 c 128,-1,2
 874 493 874 493 874 694 c 0,3,4
 874 795 874 795 832.5 851 c 128,-1,5
 791 907 791 907 717 907 c 0,6,7
 603 907 603 907 519.5 768.5 c 128,-1,8
 436 630 436 630 436 432 c 0,9,10
 436 328 436 328 481 268.5 c 128,-1,11
 526 209 526 209 602 209 c 0,0,1
379 207 m 1,12,-1
 256 -426 l 1,13,-1
 -37 -426 l 1,14,-1
 348 1556 l 1,15,-1
 641 1556 l 1,16,-1
 524 952 l 1,17,18
 595 1050 595 1050 677 1098.5 c 128,-1,19
 759 1147 759 1147 852 1147 c 0,20,21
 999 1147 999 1147 1084 1037.5 c 128,-1,22
 1169 928 1169 928 1169 739 c 0,23,24
 1169 610 1169 610 1138 480 c 128,-1,25
 1107 350 1107 350 1051 244 c 0,26,27
 982 115 982 115 877 43 c 128,-1,28
 772 -29 772 -29 655 -29 c 0,29,30
 543 -29 543 -29 471 33 c 128,-1,31
 399 95 399 95 379 207 c 1,12,-1
EndSplineSet
EndChar

StartChar: dcroat
Encoding: 273 273 209
Width: 1233
Flags: W
LayerCount: 2
Fore
SplineSet
854 911 m 1,0,-1
 920 1251 l 1,1,-1
 616 1251 l 1,2,-1
 653 1440 l 1,3,-1
 956 1440 l 1,4,-1
 979 1556 l 1,5,-1
 1272 1556 l 1,6,-1
 1249 1440 l 1,7,-1
 1395 1440 l 1,8,-1
 1358 1251 l 1,9,-1
 1212 1251 l 1,10,-1
 969 0 l 1,11,-1
 678 0 l 1,12,-1
 709 166 l 1,13,14
 643 70 643 70 560.5 20.5 c 128,-1,15
 478 -29 478 -29 383 -29 c 0,16,17
 237 -29 237 -29 151.5 81 c 128,-1,18
 66 191 66 191 66 381 c 0,19,20
 66 510 66 510 97 638.5 c 128,-1,21
 128 767 128 767 184 874 c 0,22,23
 253 1003 253 1003 358 1076 c 128,-1,24
 463 1149 463 1149 580 1149 c 0,25,26
 692 1149 692 1149 765.5 1085.5 c 128,-1,27
 839 1022 839 1022 854 911 c 1,0,-1
633 909 m 0,28,29
 522 909 522 909 442 767.5 c 128,-1,30
 362 626 362 626 362 424 c 0,31,32
 362 323 362 323 403.5 267 c 128,-1,33
 445 211 445 211 518 211 c 0,34,35
 632 211 632 211 715.5 349.5 c 128,-1,36
 799 488 799 488 799 686 c 0,37,38
 799 790 799 790 754 849.5 c 128,-1,39
 709 909 709 909 633 909 c 0,28,29
EndSplineSet
EndChar

StartChar: Hbar
Encoding: 294 294 230
Width: 1233
Flags: W
LayerCount: 2
Fore
SplineSet
282 1493 m 1,0,-1
 577 1493 l 1,1,-1
 534 1269 l 1,2,-1
 903 1269 l 1,3,-1
 946 1493 l 1,4,-1
 1240 1493 l 1,5,-1
 1197 1269 l 1,6,-1
 1332 1269 l 1,7,-1
 1300 1105 l 1,8,-1
 1165 1105 l 1,9,-1
 950 0 l 1,10,-1
 656 0 l 1,11,-1
 785 664 l 1,12,-1
 416 664 l 1,13,-1
 287 0 l 1,14,-1
 -8 0 l 1,15,-1
 207 1105 l 1,16,-1
 73 1105 l 1,17,-1
 105 1269 l 1,18,-1
 239 1269 l 1,19,-1
 282 1493 l 1,0,-1
502 1105 m 1,20,-1
 467 924 l 1,21,-1
 836 924 l 1,22,-1
 871 1105 l 1,23,-1
 502 1105 l 1,20,-1
EndSplineSet
EndChar

StartChar: hbar
Encoding: 295 295 231
Width: 1233
Flags: W
LayerCount: 2
Fore
SplineSet
1061 727 m 2,0,-1
 920 0 l 1,1,-1
 629 0 l 1,2,-1
 761 682 l 2,3,4
 770 726 770 726 772 746 c 0,5,6
 774 773 774 773 774 800 c 0,7,8
 774 858 774 858 745 888.5 c 128,-1,9
 716 919 716 919 661 919 c 0,10,11
 578 919 578 919 520 847.5 c 128,-1,12
 462 776 462 776 436 641 c 2,13,-1
 312 0 l 1,14,-1
 21 0 l 1,15,-1
 268 1270 l 1,16,-1
 108 1270 l 1,17,-1
 140 1434 l 1,18,-1
 300 1434 l 1,19,-1
 323 1556 l 1,20,-1
 614 1556 l 1,21,-1
 591 1434 l 1,22,-1
 868 1434 l 1,23,-1
 836 1270 l 1,24,-1
 559 1270 l 1,25,-1
 497 952 l 1,26,27
 545 1044 545 1044 629 1095.5 c 128,-1,28
 713 1147 713 1147 814 1147 c 0,29,30
 942 1147 942 1147 1011 1077.5 c 128,-1,31
 1080 1008 1080 1008 1080 881 c 0,32,33
 1080 851 1080 851 1076 813 c 0,34,35
 1072 784 1072 784 1061 727 c 2,0,-1
EndSplineSet
EndChar

StartChar: dotlessi
Encoding: 305 305 241
Width: 1233
Flags: W
LayerCount: 2
Fore
SplineSet
309 1120 m 1,0,-1
 889 1120 l 1,1,-1
 715 225 l 1,2,-1
 1079 225 l 1,3,-1
 1036 0 l 1,4,-1
 14 0 l 1,5,-1
 57 225 l 1,6,-1
 422 225 l 1,7,-1
 553 895 l 1,8,-1
 266 895 l 1,9,-1
 309 1120 l 1,0,-1
EndSplineSet
EndChar

StartChar: IJ
Encoding: 306 306 242
Width: 1233
Flags: W
LayerCount: 2
Fore
SplineSet
635 74 m 1,0,-1
 697 418 l 1,1,2
 741 322 741 322 795 274.5 c 128,-1,3
 849 227 849 227 915 227 c 0,4,5
 989 227 989 227 1028.5 281 c 128,-1,6
 1068 335 1068 335 1093 475 c 2,7,-1
 1232 1229 l 1,8,-1
 1001 1229 l 1,9,-1
 1050 1489 l 1,10,-1
 1469 1489 l 1,11,-1
 1282 475 l 2,12,13
 1251 305 1251 305 1220 219 c 128,-1,14
 1189 133 1189 133 1142.5 78 c 128,-1,15
 1096 23 1096 23 1036.5 -5 c 128,-1,16
 977 -33 977 -33 904 -33 c 0,17,18
 833 -33 833 -33 766 -6.5 c 128,-1,19
 699 20 699 20 635 74 c 1,0,-1
243 1233 m 1,20,-1
 290 1493 l 1,21,-1
 859 1493 l 1,22,-1
 812 1233 l 1,23,-1
 621 1233 l 1,24,-1
 444 260 l 1,25,-1
 634 260 l 1,26,-1
 586 0 l 1,27,-1
 17 0 l 1,28,-1
 65 260 l 1,29,-1
 255 260 l 1,30,-1
 433 1233 l 1,31,-1
 243 1233 l 1,20,-1
EndSplineSet
EndChar

StartChar: ij
Encoding: 307 307 243
Width: 1233
Flags: W
LayerCount: 2
Fore
SplineSet
1119 72 m 2,0,1
 1084 -95 1084 -95 1057 -166.5 c 128,-1,2
 1030 -238 1030 -238 993 -284 c 0,3,4
 946 -343 946 -343 885 -369 c 128,-1,5
 824 -395 824 -395 731 -395 c 2,6,-1
 507 -395 l 1,7,-1
 555 -170 l 1,8,-1
 723 -170 l 2,9,10
 796 -170 796 -170 837 -116.5 c 128,-1,11
 878 -63 878 -63 905 72 c 2,12,-1
 1081 924 l 1,13,-1
 864 924 l 1,14,-1
 910 1149 l 1,15,-1
 1341 1149 l 1,16,-1
 1119 72 l 2,0,1
1384 1352 m 1,17,-1
 1170 1352 l 1,18,-1
 1241 1694 l 1,19,-1
 1455 1694 l 1,20,-1
 1384 1352 l 1,17,-1
298 1120 m 1,21,-1
 722 1120 l 1,22,-1
 537 225 l 1,23,-1
 802 225 l 1,24,-1
 756 0 l 1,25,-1
 10 0 l 1,26,-1
 56 225 l 1,27,-1
 323 225 l 1,28,-1
 462 895 l 1,29,-1
 252 895 l 1,30,-1
 298 1120 l 1,21,-1
621 1665 m 1,31,-1
 834 1665 l 1,32,-1
 763 1323 l 1,33,-1
 549 1323 l 1,34,-1
 621 1665 l 1,31,-1
EndSplineSet
EndChar

StartChar: kgreenlandic
Encoding: 312 312 248
Width: 1233
Flags: W
LayerCount: 2
Fore
SplineSet
283 1120 m 1,0,-1
 576 1120 l 1,1,-1
 502 739 l 1,2,-1
 928 1120 l 1,3,-1
 1283 1120 l 1,4,-1
 778 702 l 1,5,-1
 1089 0 l 1,6,-1
 765 0 l 1,7,-1
 560 524 l 1,8,-1
 441 428 l 1,9,-1
 358 0 l 1,10,-1
 65 0 l 1,11,-1
 283 1120 l 1,0,-1
EndSplineSet
EndChar

StartChar: Lslash
Encoding: 321 321 257
Width: 1233
Flags: W
LayerCount: 2
Fore
SplineSet
80 0 m 1,0,-1
 176 502 l 1,1,-1
 45 403 l 1,2,-1
 -70 557 l 1,3,-1
 229 768 l 1,4,-1
 371 1493 l 1,5,-1
 666 1493 l 1,6,-1
 571 1012 l 1,7,-1
 821 1186 l 1,8,-1
 936 1032 l 1,9,-1
 518 737 l 1,10,-1
 426 260 l 1,11,-1
 1057 260 l 1,12,-1
 1006 0 l 1,13,-1
 80 0 l 1,0,-1
EndSplineSet
EndChar

StartChar: lslash
Encoding: 322 322 258
Width: 1233
Flags: W
LayerCount: 2
Fore
SplineSet
639 364 m 2,0,1
 635 345 635 345 633 329 c 128,-1,2
 631 313 631 313 631 307 c 0,3,4
 631 262 631 262 661.5 243.5 c 128,-1,5
 692 225 692 225 770 225 c 2,6,-1
 1049 225 l 1,7,-1
 1004 0 l 1,8,-1
 707 0 l 2,9,10
 501 0 501 0 416.5 56 c 128,-1,11
 332 112 332 112 332 242 c 0,12,13
 332 265 332 265 336.5 300 c 128,-1,14
 341 335 341 335 350 379 c 2,15,-1
 403 639 l 1,16,-1
 127 444 l 1,17,-1
 37 590 l 1,18,-1
 455 874 l 1,19,-1
 553 1331 l 1,20,-1
 248 1331 l 1,21,-1
 291 1556 l 1,22,-1
 889 1556 l 1,23,-1
 795 1102 l 1,24,-1
 1085 1305 l 1,25,-1
 1188 1167 l 1,26,-1
 745 866 l 1,27,-1
 639 364 l 2,0,1
EndSplineSet
EndChar

StartChar: Eng
Encoding: 330 330 266
Width: 1233
Flags: W
LayerCount: 2
Fore
SplineSet
922 1015 m 2,0,1
 947 1144 947 1144 910.5 1199.5 c 128,-1,2
 874 1255 874 1255 768 1255 c 0,3,4
 659 1255 659 1255 586 1180 c 0,5,6
 509 1102 509 1102 483 972 c 2,7,-1
 294 0 l 1,8,-1
 -1 0 l 1,9,-1
 290 1493 l 1,10,-1
 585 1493 l 1,11,-1
 538 1253 l 1,12,13
 600 1381 600 1381 703 1451.5 c 128,-1,14
 806 1522 806 1522 932 1522 c 0,15,16
 1121 1522 1121 1522 1189.5 1376.5 c 128,-1,17
 1258 1231 1258 1231 1202 942 c 2,18,-1
 1030 58 l 2,19,20
 978 -208 978 -208 865 -318 c 0,21,22
 752 -426 752 -426 544 -426 c 2,23,-1
 423 -426 l 1,24,-1
 467 -199 l 1,25,-1
 504 -199 l 2,26,27
 604 -199 604 -199 655.5 -144 c 128,-1,28
 707 -89 707 -89 733 44 c 2,29,-1
 922 1015 l 2,0,1
EndSplineSet
EndChar

StartChar: eng
Encoding: 331 331 267
Width: 1233
Flags: W
LayerCount: 2
Fore
SplineSet
1142 727 m 2,0,-1
 1009 43 l 2,1,2
 960 -209 960 -209 848 -316 c 0,3,4
 737 -424 737 -424 527 -424 c 2,5,-1
 406 -424 l 1,6,-1
 450 -199 l 1,7,-1
 489 -199 l 2,8,9
 589 -199 589 -199 641 -144 c 0,10,11
 692 -89 692 -89 718 43 c 2,12,-1
 842 682 l 2,13,14
 854 743 854 743 854 786 c 0,15,16
 854 830 854 830 842 856 c 0,17,18
 817 909 817 909 739 909 c 0,19,20
 660 909 660 909 601 838 c 128,-1,21
 542 767 542 767 517 641 c 2,22,-1
 393 0 l 1,23,-1
 102 0 l 1,24,-1
 319 1120 l 1,25,-1
 610 1120 l 1,26,-1
 578 952 l 1,27,28
 627 1045 627 1045 712 1096 c 128,-1,29
 797 1147 797 1147 903 1147 c 0,30,31
 1062 1147 1062 1147 1122 1042 c 0,32,33
 1158 979 1158 979 1158 878 c 0,34,35
 1158 811 1158 811 1142 727 c 2,0,-1
EndSplineSet
EndChar

StartChar: OE
Encoding: 338 338 274
Width: 1233
Flags: W
LayerCount: 2
Fore
SplineSet
1122 260 m 1,0,-1
 1071 0 l 1,1,-1
 494 0 l 2,2,3
 243 0 243 0 137 90.5 c 128,-1,4
 31 181 31 181 31 391 c 0,5,6
 31 541 31 541 64.5 724 c 128,-1,7
 98 907 98 907 158 1083 c 0,8,9
 229 1295 229 1295 352.5 1394 c 128,-1,10
 476 1493 476 1493 666 1493 c 2,11,-1
 1352 1493 l 1,12,-1
 1300 1233 l 1,13,-1
 969 1233 l 1,14,-1
 909 922 l 1,15,-1
 1210 922 l 1,16,-1
 1159 662 l 1,17,-1
 858 662 l 1,18,-1
 780 260 l 1,19,-1
 1122 260 l 1,0,-1
664 1233 m 2,20,21
 577 1233 577 1233 520.5 1186 c 128,-1,22
 464 1139 464 1139 430 1038 c 0,23,24
 378 886 378 886 346.5 716.5 c 128,-1,25
 315 547 315 547 315 434 c 0,26,27
 315 344 315 344 353.5 302 c 128,-1,28
 392 260 392 260 475 260 c 2,29,-1
 526 260 l 1,30,-1
 715 1233 l 1,31,-1
 664 1233 l 2,20,21
EndSplineSet
EndChar

StartChar: oe
Encoding: 339 339 275
Width: 1233
Flags: W
LayerCount: 2
Fore
SplineSet
1022 690 m 1,0,-1
 1032 756 l 2,1,2
 1036 776 1036 776 1038 795.5 c 128,-1,3
 1040 815 1040 815 1040 834 c 0,4,5
 1040 886 1040 886 1020 910 c 128,-1,6
 1000 934 1000 934 956 934 c 0,7,8
 901 934 901 934 865.5 891.5 c 128,-1,9
 830 849 830 849 811 760 c 2,10,-1
 797 690 l 1,11,-1
 1022 690 l 1,0,-1
1206 479 m 1,12,-1
 756 479 l 1,13,14
 747 426 747 426 744 400 c 128,-1,15
 741 374 741 374 741 356 c 0,16,17
 741 277 741 277 784 230.5 c 128,-1,18
 827 184 827 184 899 184 c 0,19,20
 956 184 956 184 1023.5 211.5 c 128,-1,21
 1091 239 1091 239 1155 289 c 1,22,-1
 1108 51 l 1,23,24
 1051 11 1051 11 982 -9 c 128,-1,25
 913 -29 913 -29 831 -29 c 0,26,27
 737 -29 737 -29 670.5 11.5 c 128,-1,28
 604 52 604 52 584 121 c 1,29,30
 534 46 534 46 462.5 8.5 c 128,-1,31
 391 -29 391 -29 299 -29 c 0,32,33
 144 -29 144 -29 62 55 c 128,-1,34
 -20 139 -20 139 -20 297 c 0,35,36
 -20 437 -20 437 12 595 c 128,-1,37
 44 753 44 753 98 881 c 0,38,39
 154 1010 154 1010 253.5 1078.5 c 128,-1,40
 353 1147 353 1147 485 1147 c 0,41,42
 568 1147 568 1147 628 1116.5 c 128,-1,43
 688 1086 688 1086 725 1026 c 1,44,45
 773 1085 773 1085 842 1116 c 128,-1,46
 911 1147 911 1147 993 1147 c 0,47,48
 1123 1147 1123 1147 1192.5 1077.5 c 128,-1,49
 1262 1008 1262 1008 1262 877 c 0,50,51
 1262 828 1262 828 1253.5 761 c 128,-1,52
 1245 694 1245 694 1229 606 c 2,53,-1
 1206 479 l 1,12,-1
319 184 m 0,54,55
 371 184 371 184 405 216 c 128,-1,56
 439 248 439 248 465 322 c 0,57,58
 474 344 474 344 487.5 403 c 128,-1,59
 501 462 501 462 520 559 c 0,60,61
 538 649 538 649 547.5 709 c 128,-1,62
 557 769 557 769 557 797 c 0,63,64
 557 869 557 869 531.5 901.5 c 128,-1,65
 506 934 506 934 449 934 c 0,66,67
 397 934 397 934 363 902 c 128,-1,68
 329 870 329 870 303 797 c 0,69,70
 289 755 289 755 273.5 693 c 128,-1,71
 258 631 258 631 244 559 c 0,72,73
 228 478 228 478 219.5 417 c 128,-1,74
 211 356 211 356 211 322 c 0,75,76
 211 249 211 249 236.5 216.5 c 128,-1,77
 262 184 262 184 319 184 c 0,54,55
EndSplineSet
EndChar

StartChar: Tbar
Encoding: 358 358 294
Width: 1233
Flags: W
LayerCount: 2
Fore
SplineSet
619 0 m 1,0,-1
 324 0 l 1,1,-1
 428 538 l 1,2,-1
 181 538 l 1,3,-1
 219 730 l 1,4,-1
 466 730 l 1,5,-1
 564 1235 l 1,6,-1
 185 1235 l 1,7,-1
 235 1493 l 1,8,-1
 1288 1493 l 1,9,-1
 1238 1235 l 1,10,-1
 859 1235 l 1,11,-1
 761 730 l 1,12,-1
 1008 730 l 1,13,-1
 970 538 l 1,14,-1
 723 538 l 1,15,-1
 619 0 l 1,0,-1
EndSplineSet
EndChar

StartChar: tbar
Encoding: 359 359 295
Width: 1233
Flags: W
LayerCount: 2
Fore
SplineSet
830 1438 m 1,0,-1
 768 1120 l 1,1,-1
 1151 1120 l 1,2,-1
 1107 895 l 1,3,-1
 724 895 l 1,4,-1
 697 753 l 1,5,-1
 881 753 l 1,6,-1
 843 561 l 1,7,-1
 659 561 l 1,8,-1
 621 365 l 2,9,10
 616 340 616 340 616 320 c 0,11,12
 616 279 616 279 636 258 c 0,13,14
 667 225 667 225 752 225 c 2,15,-1
 977 225 l 1,16,-1
 933 0 l 1,17,-1
 687 0 l 2,18,19
 435 0 435 0 362 80 c 0,20,21
 315 131 315 131 315 238 c 0,22,23
 315 299 315 299 331 379 c 2,24,-1
 366 561 l 1,25,-1
 188 561 l 1,26,-1
 226 753 l 1,27,-1
 404 753 l 1,28,-1
 431 895 l 1,29,-1
 145 895 l 1,30,-1
 189 1120 l 1,31,-1
 475 1120 l 1,32,-1
 537 1438 l 1,33,-1
 830 1438 l 1,0,-1
EndSplineSet
EndChar

StartChar: longs
Encoding: 383 383 319
Width: 1233
Flags: W
LayerCount: 2
Fore
SplineSet
623 0 m 1,0,-1
 330 0 l 1,1,-1
 504 895 l 1,2,-1
 231 895 l 1,3,-1
 274 1120 l 1,4,-1
 547 1120 l 1,5,-1
 563 1198 l 2,6,7
 605 1409 605 1409 697 1482.5 c 128,-1,8
 789 1556 789 1556 1028 1556 c 2,9,-1
 1268 1556 l 1,10,-1
 1225 1331 l 1,11,-1
 995 1331 l 2,12,13
 930 1331 930 1331 901 1303.5 c 128,-1,14
 872 1276 872 1276 856 1196 c 2,15,-1
 623 0 l 1,0,-1
EndSplineSet
EndChar

StartChar: uni0180
Encoding: 384 384 320
Width: 1233
Flags: W
LayerCount: 2
Fore
SplineSet
381 207 m 1,0,-1
 340 0 l 1,1,-1
 47 0 l 1,2,-1
 294 1270 l 1,3,-1
 108 1270 l 1,4,-1
 140 1434 l 1,5,-1
 326 1434 l 1,6,-1
 350 1556 l 1,7,-1
 643 1556 l 1,8,-1
 619 1434 l 1,9,-1
 868 1434 l 1,10,-1
 836 1270 l 1,11,-1
 587 1270 l 1,12,-1
 524 952 l 1,13,14
 587 1048 587 1048 670 1097.5 c 128,-1,15
 753 1147 753 1147 848 1147 c 0,16,17
 994 1147 994 1147 1079.5 1037.5 c 128,-1,18
 1165 928 1165 928 1165 739 c 0,19,20
 1165 608 1165 608 1134.5 478.5 c 128,-1,21
 1104 349 1104 349 1049 244 c 0,22,23
 980 115 980 115 875 43 c 128,-1,24
 770 -29 770 -29 653 -29 c 0,25,26
 542 -29 542 -29 470 33.5 c 128,-1,27
 398 96 398 96 381 207 c 1,0,-1
600 209 m 0,28,29
 711 209 711 209 790.5 350.5 c 128,-1,30
 870 492 870 492 870 694 c 0,31,32
 870 795 870 795 828.5 851 c 128,-1,33
 787 907 787 907 713 907 c 0,34,35
 599 907 599 907 516.5 768.5 c 128,-1,36
 434 630 434 630 434 432 c 0,37,38
 434 328 434 328 479 268.5 c 128,-1,39
 524 209 524 209 600 209 c 0,28,29
EndSplineSet
EndChar

StartChar: uni0181
Encoding: 385 385 321
Width: 1233
Flags: W
LayerCount: 2
Fore
SplineSet
486 1495 m 1,0,-1
 816 1495 l 2,1,2
 1065 1495 1065 1495 1172.5 1400.5 c 128,-1,3
 1280 1306 1280 1306 1243 1118 c 0,4,5
 1215 974 1215 974 1125.5 893 c 128,-1,6
 1036 812 1036 812 890 799 c 1,7,8
 1058 782 1058 782 1125.5 684 c 128,-1,9
 1193 586 1193 586 1158 410 c 0,10,11
 1116 194 1116 194 967.5 97 c 128,-1,12
 819 0 819 0 526 0 c 2,13,-1
 196 0 l 1,14,-1
 432 1216 l 1,15,16
 413 1216 413 1216 412 1215 c 0,17,18
 368 1214 368 1214 348 1195 c 0,19,20
 310 1158 310 1158 298 1111 c 0,21,22
 295 1097 295 1097 289 1064 c 1,23,-1
 34 1064 l 1,24,-1
 48 1141 l 2,25,26
 79 1296 79 1296 139 1361 c 0,27,28
 162 1385 162 1385 200 1414 c 0,29,30
 306 1490 306 1490 429 1490 c 0,31,32
 533 1490 533 1490 486 1495 c 1,0,-1
726 1260 m 1,33,-1
 658 913 l 1,34,-1
 703 913 l 2,35,36
 815 913 815 913 870.5 953 c 128,-1,37
 926 993 926 993 943.5 1085 c 128,-1,38
 961 1177 961 1177 921 1218.5 c 128,-1,39
 881 1260 881 1260 771 1260 c 2,40,-1
 726 1260 l 1,33,-1
612 678 m 1,41,-1
 527 236 l 1,42,-1
 572 236 l 2,43,44
 713 236 713 236 778.5 284 c 128,-1,45
 844 332 844 332 867 451 c 0,46,47
 891 572 891 572 842 625 c 128,-1,48
 793 678 793 678 657 678 c 2,49,-1
 612 678 l 1,41,-1
EndSplineSet
EndChar

StartChar: uni0183
Encoding: 387 387 323
Width: 1233
Flags: W
LayerCount: 2
Fore
SplineSet
585 -29 m 0,0,1
 380 -29 380 -29 326 166 c 1,2,-1
 294 0 l 1,3,-1
 2 0 l 1,4,-1
 304 1556 l 1,5,-1
 1103 1556 l 1,6,-1
 1062 1347 l 1,7,-1
 555 1347 l 1,8,-1
 480 961 l 1,9,10
 625 1147 625 1147 804 1147 c 0,11,12
 1005 1147 1005 1147 1083 991 c 0,13,14
 1158 841 1158 841 1103 559 c 0,15,16
 1049 279 1049 279 913 125 c 128,-1,17
 777 -29 777 -29 585 -29 c 0,0,1
809.5 557 m 128,-1,19
 841 719 841 719 805 811 c 128,-1,20
 769 903 769 903 674 903 c 128,-1,21
 579 903 579 903 506 811 c 128,-1,22
 433 719 433 719 401.5 557 c 128,-1,23
 370 395 370 395 407.5 303 c 128,-1,24
 445 211 445 211 540 211 c 128,-1,25
 635 211 635 211 706.5 303 c 128,-1,18
 778 395 778 395 809.5 557 c 128,-1,19
EndSplineSet
EndChar

StartChar: uni0184
Encoding: 388 388 324
Width: 1233
Flags: W
LayerCount: 2
Fore
SplineSet
403 248 m 1,0,-1
 524 248 l 2,1,2
 669 248 669 248 737 297 c 128,-1,3
 805 346 805 346 828.5 467 c 128,-1,4
 852 588 852 588 803 637 c 128,-1,5
 754 686 754 686 609 686 c 2,6,-1
 488 686 l 1,7,-1
 403 248 l 1,0,-1
60 0 m 1,8,-1
 241 934 l 1,9,-1
 105 1068 l 1,10,-1
 645 1493 l 1,11,-1
 536 934 l 1,12,-1
 646 934 l 2,13,14
 955 934 955 934 1069.5 824 c 128,-1,15
 1184 714 1184 714 1136 467 c 128,-1,16
 1088 220 1088 220 931 110 c 128,-1,17
 774 0 774 0 465 0 c 2,18,-1
 60 0 l 1,8,-1
EndSplineSet
EndChar

StartChar: uni0185
Encoding: 389 389 325
Width: 1233
Flags: W
LayerCount: 2
Fore
SplineSet
854.5 557 m 128,-1,1
 886 719 886 719 850 811 c 128,-1,2
 814 903 814 903 719 903 c 128,-1,3
 624 903 624 903 551 811 c 128,-1,4
 478 719 478 719 446.5 557 c 128,-1,5
 415 395 415 395 452.5 303 c 128,-1,6
 490 211 490 211 585 211 c 128,-1,7
 680 211 680 211 751.5 303 c 128,-1,0
 823 395 823 395 854.5 557 c 128,-1,1
525 961 m 1,8,9
 597 1054 597 1054 678 1100.5 c 128,-1,10
 759 1147 759 1147 849 1147 c 0,11,12
 1048 1147 1048 1147 1125.5 995 c 128,-1,13
 1203 843 1203 843 1148 559 c 0,14,15
 1094 279 1094 279 958 125 c 128,-1,16
 822 -29 822 -29 630 -29 c 0,17,18
 529 -29 529 -29 463.5 20 c 128,-1,19
 398 69 398 69 371 166 c 1,20,-1
 339 0 l 1,21,-1
 47 0 l 1,22,-1
 228 934 l 1,23,-1
 104 1068 l 1,24,-1
 641 1556 l 1,25,-1
 525 961 l 1,8,9
EndSplineSet
EndChar

StartChar: uni0186
Encoding: 390 390 326
Width: 1233
Flags: W
LayerCount: 2
Fore
SplineSet
15 43 m 1,0,1
 15 43 15 43 79 371 c 1,2,3
 142 301 142 301 207 268.5 c 128,-1,4
 272 236 272 236 348 236 c 0,5,6
 510 236 510 236 617.5 364.5 c 128,-1,7
 725 493 725 493 774 745 c 0,8,9
 823 998 823 998 765.5 1126.5 c 128,-1,10
 708 1255 708 1255 546 1255 c 0,11,12
 470 1255 470 1255 392 1222.5 c 128,-1,13
 314 1190 314 1190 225 1120 c 1,14,-1
 289 1448 l 1,15,16
 364 1484 364 1484 445.5 1502 c 128,-1,17
 527 1520 527 1520 612 1520 c 0,18,19
 914 1520 914 1520 1034 1321 c 128,-1,20
 1154 1122 1154 1122 1081 745 c 0,21,22
 1008 369 1008 369 810 170 c 128,-1,23
 612 -29 612 -29 310 -29 c 0,24,25
 225 -29 225 -29 151.5 -11 c 128,-1,26
 78 7 78 7 15 43 c 1,0,1
EndSplineSet
EndChar

StartChar: uni0187
Encoding: 391 391 327
Width: 1233
Flags: W
LayerCount: 2
Fore
SplineSet
675 236 m 0,0,1
 823 236 823 236 996 371 c 1,2,-1
 932 43 l 1,3,4
 778 -29 778 -29 609 -29 c 0,5,6
 307 -29 307 -29 187 170 c 128,-1,7
 67 369 67 369 140 745 c 0,8,9
 246 1292 246 1292 603 1456 c 0,10,11
 742 1520 742 1520 911 1520 c 0,12,13
 958 1520 958 1520 1003 1514 c 1,14,15
 1115 1643 1115 1643 1344 1643 c 2,16,-1
 1440 1643 l 1,17,-1
 1397 1418 l 1,18,-1
 1382 1418 l 2,19,20
 1289 1418 1289 1418 1230 1363 c 0,21,22
 1180 1317 1180 1317 1153 1176 c 2,23,-1
 1142 1120 l 1,24,25
 1022 1255 1022 1255 873 1255 c 0,26,27
 711 1255 711 1255 603.5 1126.5 c 128,-1,28
 496 998 496 998 447 745 c 0,29,30
 354 267 354 267 638 238 c 0,31,32
 656 236 656 236 675 236 c 0,0,1
EndSplineSet
EndChar

StartChar: uni0188
Encoding: 392 392 328
Width: 1233
Flags: W
LayerCount: 2
Fore
SplineSet
655 211 m 0,0,1
 823 211 823 211 976 326 c 1,2,-1
 924 57 l 1,3,4
 759 -29 759 -29 565 -29 c 0,5,6
 306 -29 306 -29 190.5 127 c 128,-1,7
 75 283 75 283 128 559 c 0,8,9
 182 836 182 836 359.5 992.5 c 128,-1,10
 537 1149 537 1149 796 1149 c 0,11,12
 823 1149 823 1149 849 1147 c 1,13,14
 907 1362 907 1362 995 1448 c 0,15,16
 1106 1556 1106 1556 1316 1556 c 2,17,-1
 1437 1556 l 1,18,-1
 1393 1331 l 1,19,-1
 1354 1331 l 2,20,21
 1259 1331 1259 1331 1203 1276 c 0,22,23
 1159 1233 1159 1233 1125 1089 c 2,24,-1
 1119 1063 l 1,25,-1
 1067 795 l 1,26,27
 957 909 957 909 790 909 c 0,28,29
 620 909 620 909 520 782 c 0,30,31
 452 697 452 697 425 559 c 0,32,33
 373 291 373 291 547 228 c 0,34,35
 594 211 594 211 655 211 c 0,0,1
EndSplineSet
EndChar

StartChar: uni018A
Encoding: 394 394 330
Width: 1233
Flags: W
LayerCount: 2
Fore
SplineSet
371 1206 m 1,0,1
 342 1206 342 1206 324 1168 c 0,2,3
 299 1116 299 1116 293 1088 c 2,4,-1
 289 1064 l 1,5,-1
 34 1064 l 1,6,-1
 49 1141 l 2,7,8
 78 1291 78 1291 140 1361 c 0,9,10
 235 1470 235 1470 375 1489 c 0,11,12
 401 1493 401 1493 427 1493 c 2,13,-1
 663 1493 l 2,14,15
 1029 1493 1029 1493 1156 1318.5 c 128,-1,16
 1283 1144 1283 1144 1206 748 c 0,17,18
 1129 351 1129 351 934 175.5 c 128,-1,19
 739 0 739 0 373 0 c 2,20,-1
 137 0 l 1,21,-1
 371 1206 l 1,0,1
670 1227 m 1,22,-1
 484 266 l 1,23,24
 658 266 658 266 753 375.5 c 128,-1,25
 848 485 848 485 899 748 c 0,26,27
 950 1009 950 1009 897 1118 c 128,-1,28
 844 1227 844 1227 670 1227 c 1,22,-1
EndSplineSet
EndChar

StartChar: uni018B
Encoding: 395 395 331
Width: 1233
Flags: W
LayerCount: 2
Fore
SplineSet
861 678 m 1,0,-1
 665 678 l 2,1,2
 529 678 529 678 459.5 625 c 128,-1,3
 390 572 390 572 366 451 c 0,4,5
 343 332 343 332 390.5 284 c 128,-1,6
 438 236 438 236 579 236 c 2,7,-1
 775 236 l 1,8,-1
 861 678 l 1,0,-1
352 1494 m 1,9,-1
 1304 1493 l 1,10,-1
 1014 0 l 1,11,-1
 533 0 l 2,12,13
 240 0 240 0 129 97 c 128,-1,14
 18 194 18 194 59 410 c 0,15,16
 61 420 61 420 63 429 c 0,17,18
 100 603 100 603 187 684 c 0,19,20
 195 691 195 691 217 713 c 2,21,-1
 269 763 l 1,22,23
 438 910 438 910 710 913 c 2,24,-1
 906 913 l 1,25,-1
 974 1260 l 1,26,-1
 307 1260 l 1,27,-1
 352 1494 l 1,9,-1
EndSplineSet
EndChar

StartChar: uni018C
Encoding: 396 396 332
Width: 1233
Flags: W
LayerCount: 2
Fore
SplineSet
400 -29 m 0,0,1
 208 -29 208 -29 132 125 c 128,-1,2
 56 279 56 279 110 559 c 0,3,4
 165 841 165 841 298 991 c 0,5,6
 437 1147 437 1147 639 1147 c 0,7,8
 818 1147 818 1147 889 961 c 1,9,-1
 964 1347 l 1,10,-1
 457 1347 l 1,11,-1
 498 1556 l 1,12,-1
 1297 1556 l 1,13,-1
 995 0 l 1,14,-1
 703 0 l 1,15,-1
 735 166 l 1,16,17
 604 -29 604 -29 400 -29 c 0,0,1
402.5 557 m 128,-1,19
 371 395 371 395 407.5 303 c 128,-1,20
 444 211 444 211 539 211 c 128,-1,21
 634 211 634 211 706.5 303 c 128,-1,22
 779 395 779 395 810.5 557 c 128,-1,23
 842 719 842 719 805 811 c 128,-1,24
 768 903 768 903 673 903 c 128,-1,25
 578 903 578 903 506 811 c 128,-1,18
 434 719 434 719 402.5 557 c 128,-1,19
EndSplineSet
EndChar

StartChar: uni018D
Encoding: 397 397 333
Width: 1233
Flags: W
LayerCount: 2
Fore
SplineSet
848 53 m 1,0,1
 980 -10 980 -10 951 -161 c 0,2,3
 925 -296 925 -296 784 -374 c 0,4,5
 643 -451 643 -451 420 -451 c 0,6,7
 321 -451 321 -451 239 -439 c 0,8,9
 234 -438 234 -438 229 -437 c 0,10,11
 199 -433 199 -433 84 -403 c 1,12,-1
 126 -188 l 1,13,14
 137 -192 137 -192 150 -196 c 0,15,16
 239 -227 239 -227 276 -234 c 0,17,18
 363 -249 363 -249 444 -249 c 0,19,20
 548 -249 548 -249 613 -215 c 1,21,-1
 637 -200 l 2,22,23
 677 -175 677 -175 686 -131 c 0,24,25
 706 -29 706 -29 543 -29 c 0,26,27
 305 -29 305 -29 195 129.5 c 128,-1,28
 85 288 85 288 138 559 c 128,-1,29
 191 830 191 830 362 988.5 c 128,-1,30
 533 1147 533 1147 771 1147 c 0,31,32
 1008 1147 1008 1147 1118 988.5 c 128,-1,33
 1228 830 1228 830 1175 559 c 0,34,35
 1124 296 1124 296 951 130 c 0,36,37
 874 55 874 55 848 53 c 1,0,1
589 209 m 0,38,39
 694 209 694 209 772 301.5 c 128,-1,40
 850 394 850 394 882 559 c 128,-1,41
 914 724 914 724 872 816.5 c 128,-1,42
 830 909 830 909 725 909 c 0,43,44
 619 909 619 909 541 816.5 c 128,-1,45
 463 724 463 724 431 559 c 128,-1,46
 399 394 399 394 441 301.5 c 128,-1,47
 483 209 483 209 589 209 c 0,38,39
EndSplineSet
EndChar

StartChar: uni018E
Encoding: 398 398 334
Width: 1233
Flags: W
LayerCount: 2
Fore
SplineSet
23 0 m 1,0,-1
 73 260 l 1,1,-1
 708 260 l 1,2,-1
 784 651 l 1,3,-1
 209 651 l 1,4,-1
 260 911 l 1,5,-1
 835 911 l 1,6,-1
 898 1233 l 1,7,-1
 263 1233 l 1,8,-1
 313 1493 l 1,9,-1
 1243 1493 l 1,10,-1
 953 0 l 1,11,-1
 23 0 l 1,0,-1
EndSplineSet
EndChar

StartChar: uni018F
Encoding: 399 399 335
Width: 1233
Flags: W
LayerCount: 2
Fore
SplineSet
851 840 m 1,0,1
 881 1036 881 1036 858 1134 c 0,2,3
 829 1255 829 1255 701 1255 c 0,4,5
 625 1255 625 1255 547 1222.5 c 128,-1,6
 469 1190 469 1190 380 1120 c 1,7,-1
 444 1448 l 1,8,9
 521 1484 521 1484 601.5 1502 c 128,-1,10
 682 1520 682 1520 767 1520 c 0,11,12
 1027 1520 1027 1520 1121 1324 c 128,-1,13
 1215 1128 1215 1128 1141 745 c 0,14,15
 1067 363 1067 363 896 167 c 128,-1,16
 725 -29 725 -29 465 -29 c 0,17,18
 206 -29 206 -29 112 167 c 128,-1,19
 18 363 18 363 92 745 c 2,20,-1
 110 840 l 1,21,-1
 851 840 l 1,0,1
373 580 m 1,22,23
 357 436 357 436 375 356 c 0,24,25
 404 236 404 236 517 236 c 0,26,27
 631 236 631 236 706 356 c 0,28,29
 756 436 756 436 796 580 c 1,30,-1
 373 580 l 1,22,23
EndSplineSet
EndChar

StartChar: uni0190
Encoding: 400 400 336
Width: 1233
Flags: W
LayerCount: 2
Fore
SplineSet
661 668 m 2,0,1
 533 668 533 668 451 605.5 c 128,-1,2
 369 543 369 543 346 428 c 0,3,4
 328 334 328 334 387 278.5 c 128,-1,5
 446 223 446 223 566 223 c 128,-1,6
 686 223 686 223 800 247.5 c 128,-1,7
 914 272 914 272 1017 319 c 1,8,-1
 964 45 l 1,9,10
 857 9 857 9 743.5 -10 c 128,-1,11
 630 -29 630 -29 517 -29 c 0,12,13
 252 -29 252 -29 135.5 85 c 128,-1,14
 19 199 19 199 61 416 c 0,15,16
 92 578 92 578 195.5 677.5 c 128,-1,17
 299 777 299 777 465 805 c 1,18,19
 329 831 329 831 269 915.5 c 128,-1,20
 209 1000 209 1000 235 1133 c 0,21,22
 271 1314 271 1314 423 1417 c 128,-1,23
 575 1520 575 1520 811 1520 c 0,24,25
 903 1520 903 1520 999.5 1503.5 c 128,-1,26
 1096 1487 1096 1487 1193 1456 c 1,27,-1
 1141 1188 l 1,28,29
 1046 1228 1046 1228 954 1249 c 128,-1,30
 862 1270 862 1270 778 1270 c 0,31,32
 668 1270 668 1270 598.5 1223.5 c 128,-1,33
 529 1177 529 1177 513 1094 c 0,34,35
 497 1015 497 1015 549 971.5 c 128,-1,36
 601 928 601 928 711 928 c 2,37,-1
 869 928 l 1,38,-1
 819 668 l 1,39,-1
 661 668 l 2,0,1
EndSplineSet
EndChar

StartChar: uni0191
Encoding: 401 401 337
Width: 1233
Flags: W
LayerCount: 2
Fore
SplineSet
1261 1233 m 1,0,-1
 721 1233 l 1,1,-1
 658 911 l 1,2,-1
 1141 911 l 1,3,-1
 1090 651 l 1,4,-1
 608 651 l 1,5,-1
 514 168 l 1,6,-1
 490 43 l 1,7,-1
 481 0 l 1,8,9
 431 -216 431 -216 329 -316 c 0,10,11
 218 -424 218 -424 8 -424 c 2,12,-1
 -78 -424 l 1,13,-1
 -34 -199 l 1,14,15
 70 -199 70 -199 121 -144 c 0,16,17
 168 -94 168 -94 195 43 c 2,18,-1
 219 168 l 1,19,-1
 477 1493 l 1,20,-1
 1311 1493 l 1,21,-1
 1261 1233 l 1,0,-1
EndSplineSet
EndChar

StartChar: florin
Encoding: 402 402 338
Width: 1233
Flags: W
LayerCount: 2
Fore
SplineSet
925 1218 m 2,0,-1
 906 1120 l 1,1,-1
 1250 1120 l 1,2,-1
 1206 895 l 1,3,-1
 862 895 l 1,4,-1
 688 0 l 1,5,6
 640 -217 640 -217 537 -316 c 0,7,8
 424 -424 424 -424 215 -424 c 2,9,-1
 -101 -424 l 1,10,-1
 -58 -199 l 1,11,-1
 176 -199 l 2,12,13
 275 -199 275 -199 326 -144 c 0,14,15
 378 -88 378 -88 403 43 c 2,16,-1
 569 895 l 1,17,-1
 297 895 l 1,18,-1
 341 1120 l 1,19,-1
 613 1120 l 1,20,-1
 628 1198 l 2,21,22
 667 1400 667 1400 766 1478 c 128,-1,23
 865 1556 865 1556 1093 1556 c 2,24,-1
 1334 1556 l 1,25,-1
 1291 1331 l 1,26,-1
 1062 1331 l 2,27,28
 951 1332 951 1332 925 1218 c 2,0,-1
EndSplineSet
EndChar

StartChar: uni0193
Encoding: 403 403 339
Width: 1233
Flags: W
LayerCount: 2
Fore
SplineSet
547 236 m 0,0,1
 640 236 640 236 689 270 c 1,2,-1
 744 555 l 1,3,-1
 542 555 l 1,4,-1
 590 803 l 1,5,-1
 1050 803 l 1,6,-1
 917 119 l 1,7,8
 716 -29 716 -29 481 -29 c 0,9,10
 191 -29 191 -29 72.5 172.5 c 128,-1,11
 -46 374 -46 374 26 745 c 0,12,13
 131 1287 131 1287 484 1453 c 0,14,15
 626 1520 626 1520 797 1520 c 0,16,17
 857 1520 857 1520 915 1508 c 1,18,19
 927 1523 927 1523 940 1535 c 0,20,21
 1050 1643 1050 1643 1260 1643 c 2,22,-1
 1358 1643 l 1,23,-1
 1314 1418 l 1,24,-1
 1299 1418 l 2,25,26
 1206 1418 1206 1418 1147 1363 c 0,27,28
 1097 1317 1097 1317 1070 1176 c 2,29,-1
 1054 1094 l 1,30,-1
 1051 1098 l 1,31,32
 958 1255 958 1255 766 1255 c 0,33,34
 451 1255 451 1255 345 801 c 0,35,36
 339 774 339 774 333 745 c 0,37,38
 253 333 253 333 449 254 c 0,39,40
 492 236 492 236 547 236 c 0,0,1
EndSplineSet
EndChar

StartChar: uni0194
Encoding: 404 404 340
Width: 1233
Flags: W
LayerCount: 2
Fore
SplineSet
598 510 m 1024,0,-1
463 762 m 1,1,-1
 206 1493 l 1,2,-1
 528 1493 l 1,3,-1
 696 1012 l 1,4,-1
 1050 1493 l 1,5,-1
 1373 1493 l 1,6,-1
 833 762 l 1,7,8
 967 380 967 380 892 -14 c 0,9,10
 841 -285 841 -285 436.5 -290 c 128,-1,11
 32 -295 32 -295 84 -14 c 0,12,13
 150 335 150 335 463 762 c 1,1,-1
598 510 m 1,14,15
 403 243 403 243 381 126 c 0,16,17
 358 0 358 0 494 0 c 0,18,19
 633 0 633 0 658 130 c 0,20,21
 687 279 687 279 598 510 c 1,14,15
EndSplineSet
EndChar

StartChar: uni0195
Encoding: 405 405 341
Width: 1233
Flags: W
LayerCount: 2
Fore
SplineSet
1181 569 m 2,0,1
 1135 316 1135 316 1001 158 c 0,2,3
 873 4 873 4 712 0 c 2,4,-1
 623 -2 l 2,5,6
 486 -5 486 -5 442 116 c 0,7,8
 395 241 395 241 436 460 c 2,9,-1
 487 727 l 2,10,11
 500 813 500 813 485 855 c 0,12,13
 468 907 468 907 405 907 c 0,14,15
 341 907 341 907 291 836 c 0,16,17
 242 766 242 766 218 641 c 2,18,-1
 93 0 l 1,19,-1
 -139 0 l 1,20,-1
 163 1556 l 1,21,-1
 395 1556 l 1,22,-1
 278 952 l 1,23,24
 321 1045 321 1045 391 1096 c 128,-1,25
 461 1147 461 1147 546 1147 c 0,26,27
 673 1147 673 1147 718 1042 c 0,28,29
 762 936 762 936 721 727 c 2,30,-1
 670 460 l 2,31,32
 639 289 639 289 642 279 c 0,33,34
 660 227 660 227 690 231 c 2,35,-1
 703 233 l 2,36,37
 794 246 794 246 853 330 c 0,38,39
 920 424 920 424 947 560 c 2,40,-1
 1020 936 l 1,41,-1
 1252 936 l 1,42,-1
 1181 569 l 2,0,1
EndSplineSet
EndChar

StartChar: uni0196
Encoding: 406 406 342
Width: 1233
Flags: W
LayerCount: 2
Fore
SplineSet
415 462 m 2,0,-1
 564 1233 l 1,1,-1
 267 1233 l 1,2,-1
 317 1493 l 1,3,-1
 1206 1493 l 1,4,-1
 1156 1233 l 1,5,-1
 859 1233 l 1,6,-1
 715 495 l 2,7,8
 688 353 688 353 717 307 c 0,9,10
 746 262 746 262 848 261 c 2,11,-1
 1033 260 l 1,12,-1
 983 0 l 1,13,-1
 749 0 l 2,14,15
 544 0 544 0 458 118 c 0,16,17
 371 238 371 238 415 462 c 2,0,-1
EndSplineSet
EndChar

StartChar: uni0197
Encoding: 407 407 343
Width: 1233
Flags: W
LayerCount: 2
Fore
SplineSet
267 1233 m 1,0,-1
 317 1493 l 1,1,-1
 1206 1493 l 1,2,-1
 1156 1233 l 1,3,-1
 859 1233 l 1,4,-1
 761 730 l 1,5,-1
 1008 730 l 1,6,-1
 970 538 l 1,7,-1
 723 538 l 1,8,-1
 669 260 l 1,9,-1
 966 260 l 1,10,-1
 916 0 l 1,11,-1
 27 0 l 1,12,-1
 77 260 l 1,13,-1
 374 260 l 1,14,-1
 428 538 l 1,15,-1
 181 538 l 1,16,-1
 219 730 l 1,17,-1
 466 730 l 1,18,-1
 564 1233 l 1,19,-1
 267 1233 l 1,0,-1
EndSplineSet
EndChar

StartChar: uni0198
Encoding: 408 408 344
Width: 1233
Flags: W
LayerCount: 2
Fore
SplineSet
825 1060 m 2,0,-1
 670 905 l 1,1,-1
 982 0 l 1,2,-1
 654 0 l 1,3,-1
 431 672 l 1,4,-1
 268 506 l 1,5,-1
 169 0 l 1,6,-1
 -126 0 l 1,7,-1
 165 1493 l 1,8,-1
 460 1493 l 1,9,-1
 345 903 l 1,10,-1
 665 1230 l 2,11,12
 881 1451 881 1451 1020 1479 c 0,13,14
 1155 1505 1155 1505 1275 1392 c 2,15,-1
 1329 1341 l 1,16,-1
 1154 1165 l 1,17,18
 1090 1226 1090 1226 1019 1210 c 0,19,20
 961 1197 961 1197 825 1060 c 2,0,-1
EndSplineSet
EndChar

StartChar: uni0199
Encoding: 409 409 345
Width: 1233
Flags: W
LayerCount: 2
Fore
SplineSet
234 1089 m 2,0,1
 283 1339 283 1339 395 1448 c 0,2,3
 506 1556 506 1556 716 1556 c 2,4,-1
 837 1556 l 1,5,-1
 793 1331 l 1,6,-1
 754 1331 l 2,7,8
 656 1331 656 1331 603 1276 c 0,9,10
 552 1223 552 1223 525 1089 c 1,11,-1
 527 1089 l 1,12,-1
 459 739 l 1,13,-1
 885 1120 l 1,14,-1
 1240 1120 l 1,15,-1
 735 702 l 1,16,-1
 1047 0 l 1,17,-1
 723 0 l 1,18,-1
 518 524 l 1,19,-1
 399 428 l 1,20,-1
 316 0 l 1,21,-1
 23 0 l 1,22,-1
 210 964 l 1,23,-1
 234 1089 l 2,0,1
EndSplineSet
EndChar

StartChar: uni019A
Encoding: 410 410 346
Width: 1233
Flags: W
LayerCount: 2
Fore
SplineSet
685 753 m 1,0,-1
 869 753 l 1,1,-1
 832 561 l 1,2,-1
 648 561 l 1,3,-1
 638 561 l 1,4,-1
 620 467 l 2,5,6
 594 335 594 335 624.5 280 c 128,-1,7
 655 225 655 225 753 225 c 2,8,-1
 987 225 l 1,9,-1
 943 0 l 1,10,-1
 627 0 l 2,11,12
 418 0 418 0 348 108 c 128,-1,13
 278 216 278 216 327 467 c 2,14,-1
 345 561 l 1,15,-1
 177 561 l 1,16,-1
 214 753 l 1,17,-1
 382 753 l 1,18,-1
 494 1331 l 1,19,-1
 197 1331 l 1,20,-1
 241 1556 l 1,21,-1
 831 1556 l 1,22,-1
 675 753 l 1,23,-1
 685 753 l 1,0,-1
EndSplineSet
EndChar

StartChar: uni019B
Encoding: 411 411 347
Width: 1233
Flags: W
LayerCount: 2
Fore
SplineSet
912 1518 m 1,0,-1
 984 1358 l 1,1,-1
 722 1195 l 1,2,-1
 1002 0 l 1,3,-1
 705 0 l 1,4,-1
 566 596 l 1,5,-1
 226 0 l 1,6,-1
 -71 0 l 1,7,-1
 479 965 l 1,8,-1
 463 1034 l 1,9,-1
 224 885 l 1,10,-1
 155 1047 l 1,11,-1
 421 1213 l 1,12,-1
 341 1556 l 1,13,-1
 638 1556 l 1,14,-1
 681 1374 l 1,15,-1
 912 1518 l 1,0,-1
EndSplineSet
EndChar

StartChar: uni019C
Encoding: 412 412 348
Width: 1233
Flags: W
LayerCount: 2
Fore
SplineSet
426 112 m 1,0,1
 379 41 379 41 321.5 7 c 128,-1,2
 264 -27 264 -27 190 -27 c 0,3,4
 45 -27 45 -27 9 73 c 128,-1,5
 -27 173 -27 173 35 489 c 2,6,-1
 230 1493 l 1,7,-1
 470 1493 l 1,8,-1
 257 401 l 2,9,10
 233 276 233 276 244 234 c 128,-1,11
 255 192 255 192 305 192 c 128,-1,12
 355 192 355 192 383.5 235 c 128,-1,13
 412 278 412 278 435 401 c 2,14,-1
 648 1493 l 1,15,-1
 885 1493 l 1,16,-1
 672 401 l 2,17,18
 649 278 649 278 660.5 235 c 128,-1,19
 672 192 672 192 722 192 c 128,-1,20
 772 192 772 192 799 234 c 128,-1,21
 826 276 826 276 850 401 c 2,22,-1
 1063 1493 l 1,23,-1
 1303 1493 l 1,24,-1
 1013 0 l 1,25,-1
 800 0 l 1,26,-1
 822 116 l 1,27,28
 784 50 784 50 721.5 11.5 c 128,-1,29
 659 -27 659 -27 591 -27 c 128,-1,30
 523 -27 523 -27 475 13.5 c 128,-1,31
 427 54 427 54 426 112 c 1,0,1
EndSplineSet
EndChar

StartChar: uni019D
Encoding: 413 413 349
Width: 1233
Flags: W
LayerCount: 2
Fore
SplineSet
365 0 m 1,0,1
 301 -284 301 -284 136 -374 c 0,2,3
 41 -426 41 -426 -108 -426 c 2,4,-1
 -156 -426 l 1,5,-1
 -112 -201 l 1,6,-1
 -52 -201 l 2,7,8
 6 -201 6 -201 64 -126 c 0,9,10
 87 -97 87 -97 114 41 c 2,11,-1
 396 1493 l 1,12,-1
 713 1493 l 1,13,-1
 918 408 l 1,14,-1
 1129 1493 l 1,15,-1
 1389 1493 l 1,16,-1
 1099 0 l 1,17,-1
 784 0 l 1,18,-1
 577 1085 l 1,19,-1
 366 0 l 1,20,-1
 365 0 l 1,0,1
EndSplineSet
EndChar

StartChar: uni019E
Encoding: 414 414 350
Width: 1233
Flags: W
LayerCount: 2
Fore
SplineSet
1142 727 m 2,0,-1
 918 -426 l 1,1,-1
 627 -426 l 1,2,-1
 842 682 l 2,3,4
 866 804 866 804 842 856.5 c 128,-1,5
 818 909 818 909 740 909 c 0,6,7
 661 909 661 909 601.5 838 c 128,-1,8
 542 767 542 767 518 641 c 2,9,-1
 393 0 l 1,10,-1
 102 0 l 1,11,-1
 320 1120 l 1,12,-1
 611 1120 l 1,13,-1
 578 952 l 1,14,15
 627 1045 627 1045 712 1096 c 128,-1,16
 797 1147 797 1147 903 1147 c 0,17,18
 1062 1147 1062 1147 1122.5 1041.5 c 128,-1,19
 1183 936 1183 936 1142 727 c 2,0,-1
EndSplineSet
EndChar

StartChar: uni019F
Encoding: 415 415 351
Width: 1233
Flags: W
LayerCount: 2
Fore
SplineSet
465 -29 m 0,0,1
 97 -29 97 -29 63 362 c 0,2,3
 49 522 49 522 92 745 c 0,4,5
 214 1373 214 1373 586 1493 c 0,6,7
 670 1520 670 1520 767 1520 c 0,8,9
 1027 1520 1027 1520 1121 1324 c 128,-1,10
 1215 1128 1215 1128 1141 745 c 0,11,12
 1016 105 1016 105 631 -7 c 0,13,14
 553 -29 553 -29 465 -29 c 0,0,1
860 911 m 1,15,16
 880 1108 880 1108 838 1187 c 0,17,18
 800 1255 800 1255 715 1255 c 0,19,20
 567 1255 567 1255 481 1041 c 0,21,22
 460 991 460 991 437 911 c 1,23,-1
 860 911 l 1,15,16
814 651 m 1,24,-1
 383 651 l 1,25,26
 353 451 353 451 375 356 c 0,27,28
 404 236 404 236 517 236 c 0,29,30
 631 236 631 236 706 356 c 0,31,32
 765 449 765 449 814 651 c 1,24,-1
EndSplineSet
EndChar

StartChar: uni01A2
Encoding: 418 418 354
Width: 1233
Flags: W
LayerCount: 2
Fore
SplineSet
351 -29 m 0,0,1
 19 -29 19 -29 -4 362 c 0,2,3
 -14 522 -14 522 30 745 c 0,4,5
 154 1384 154 1384 501 1497 c 0,6,7
 572 1520 572 1520 652 1520 c 0,8,9
 860 1520 860 1520 947 1365 c 1,10,-1
 1065 1493 l 1,11,-1
 1349 1493 l 1,12,-1
 1058 0 l 1,13,-1
 824 0 l 1,14,-1
 1045 1136 l 1,15,-1
 899 976 l 1,16,-1
 742 167 l 1,17,18
 585 -29 585 -29 351 -29 c 0,0,1
306 745 m 0,19,20
 238 394 238 394 302 289 c 0,21,22
 335 236 335 236 402 236 c 0,23,24
 505 236 505 236 575 356 c 1,25,-1
 726 1134 l 1,26,27
 703 1255 703 1255 600 1255 c 0,28,29
 459 1255 459 1255 374 1011 c 0,30,31
 337 907 337 907 306 745 c 0,19,20
EndSplineSet
EndChar

StartChar: uni01A3
Encoding: 419 419 355
Width: 1233
Flags: W
LayerCount: 2
Fore
SplineSet
56.5 559 m 128,-1,1
 109 830 109 830 280.5 988.5 c 128,-1,2
 452 1147 452 1147 689 1147 c 0,3,4
 844 1147 844 1147 947 1023 c 1,5,-1
 1098 1124 l 1,6,-1
 1381 1124 l 1,7,-1
 1080 -426 l 1,8,-1
 846 -426 l 1,9,-1
 1085 804 l 1,10,-1
 916 690 l 1,11,-1
 807 130 l 1,12,13
 636 -29 636 -29 460 -29 c 0,14,15
 223 -29 223 -29 113.5 129.5 c 128,-1,0
 4 288 4 288 56.5 559 c 128,-1,1
643 909 m 0,16,17
 538 909 538 909 460 816.5 c 128,-1,18
 382 724 382 724 350 559 c 128,-1,19
 318 394 318 394 360 301.5 c 128,-1,20
 402 209 402 209 507 209 c 0,21,22
 550 209 550 209 628 302 c 1,23,-1
 728 816 l 1,24,25
 686 909 686 909 643 909 c 0,16,17
EndSplineSet
EndChar

StartChar: uni01A4
Encoding: 420 420 356
Width: 1233
Flags: W
LayerCount: 2
Fore
SplineSet
722 1245 m 1,0,-1
 637 807 l 1,1,-1
 656 807 l 2,2,3
 801 807 801 807 869 856 c 128,-1,4
 937 905 937 905 960.5 1026 c 128,-1,5
 984 1147 984 1147 935 1196 c 128,-1,6
 886 1245 886 1245 741 1245 c 2,7,-1
 722 1245 l 1,0,-1
419 1206 m 1,8,9
 390 1206 390 1206 372 1168 c 0,10,11
 347 1116 347 1116 341 1088 c 2,12,-1
 337 1064 l 1,13,-1
 82 1064 l 1,14,-1
 97 1141 l 2,15,16
 126 1291 126 1291 188 1361 c 0,17,18
 283 1470 283 1470 423 1489 c 0,19,20
 449 1493 449 1493 475 1493 c 2,21,-1
 778 1493 l 2,22,23
 1087 1493 1087 1493 1201 1383 c 128,-1,24
 1315 1273 1315 1273 1267 1026 c 128,-1,25
 1219 779 1219 779 1062.5 669 c 128,-1,26
 906 559 906 559 597 559 c 2,27,-1
 589 559 l 1,28,-1
 480 0 l 1,29,-1
 185 0 l 1,30,-1
 419 1206 l 1,8,9
EndSplineSet
EndChar

StartChar: uni01A5
Encoding: 421 421 357
Width: 1233
Flags: W
LayerCount: 2
Fore
SplineSet
849.5 561 m 128,-1,1
 881 723 881 723 844.5 815 c 128,-1,2
 808 907 808 907 713 907 c 128,-1,3
 618 907 618 907 545.5 815 c 128,-1,4
 473 723 473 723 441.5 561 c 128,-1,5
 410 399 410 399 447 307 c 128,-1,6
 484 215 484 215 579 215 c 128,-1,7
 674 215 674 215 746 307 c 128,-1,0
 818 399 818 399 849.5 561 c 128,-1,1
614 -29 m 0,8,9
 434 -29 434 -29 363 158 c 1,10,-1
 249 -426 l 1,11,-1
 -43 -426 l 1,12,-1
 248 1063 l 1,13,-1
 247 1063 l 1,14,-1
 253 1089 l 2,15,16
 314 1351 314 1351 414 1448 c 0,17,18
 525 1556 525 1556 735 1556 c 2,19,-1
 856 1556 l 1,20,-1
 812 1331 l 1,21,-1
 773 1331 l 2,22,23
 678 1331 678 1331 621 1276 c 0,24,25
 577 1233 577 1233 544 1089 c 1,26,-1
 545 1089 l 1,27,-1
 517 952 l 1,28,29
 648 1147 648 1147 852 1147 c 0,30,31
 1044 1147 1044 1147 1120 993 c 128,-1,32
 1196 839 1196 839 1142 559 c 0,33,34
 1059 134 1059 134 805 13 c 0,35,36
 715 -29 715 -29 614 -29 c 0,8,9
EndSplineSet
EndChar

StartChar: uni01A6
Encoding: 422 422 358
Width: 1233
Flags: W
LayerCount: 2
Fore
SplineSet
776 467 m 1,0,1
 818 458 818 458 844 426 c 128,-1,2
 870 394 870 394 899 299 c 2,3,-1
 1065 -238 l 1,4,-1
 741 -238 l 1,5,-1
 622 183 l 2,6,7
 575 352 575 352 468 352 c 2,8,-1
 374 352 l 1,9,-1
 306 0 l 1,10,-1
 11 0 l 1,11,-1
 301 1493 l 1,12,-1
 596 1493 l 1,13,-1
 550 1255 l 1,14,-1
 681 1255 l 2,15,16
 969 1255 969 1255 1075 1153 c 0,17,18
 1149 1081 1149 1081 1149 946 c 0,19,20
 1149 889 1149 889 1136 821 c 0,21,22
 1106 667 1106 667 1013 576 c 128,-1,23
 920 485 920 485 776 467 c 1,0,1
502 1007 m 1,24,-1
 423 600 l 1,25,-1
 562 600 l 2,26,27
 683 600 683 600 744.5 647.5 c 128,-1,28
 806 695 806 695 827 804 c 0,29,30
 834 840 834 840 834 884 c 0,31,32
 834 1007 834 1007 641 1007 c 2,33,-1
 502 1007 l 1,24,-1
EndSplineSet
EndChar

StartChar: uni01A7
Encoding: 423 423 359
Width: 1233
Flags: W
LayerCount: 2
Fore
SplineSet
711 655 m 2,0,1
 711 655 711 655 556 600 c 0,2,3
 474 571 474 571 424 520.5 c 128,-1,4
 374 470 374 470 361 403 c 0,5,6
 344 314 344 314 394.5 264.5 c 128,-1,7
 445 215 445 215 554 215 c 0,8,9
 662 215 662 215 780.5 256 c 128,-1,10
 899 297 899 297 1033 381 c 1,11,-1
 974 76 l 1,12,13
 860 24 860 24 743 -2.5 c 128,-1,14
 626 -29 626 -29 515 -29 c 0,15,16
 245 -29 245 -29 133.5 82.5 c 128,-1,17
 22 194 22 194 66 420 c 0,18,19
 98 586 98 586 204 695 c 128,-1,20
 310 804 310 804 503 870 c 2,21,-1
 640 918 l 2,22,23
 781 967 781 967 830.5 1007.5 c 128,-1,24
 880 1048 880 1048 892 1110 c 0,25,26
 907 1190 907 1190 858.5 1233 c 128,-1,27
 810 1276 810 1276 703 1276 c 0,28,29
 607 1276 607 1276 502.5 1241 c 128,-1,30
 398 1206 398 1206 289 1139 c 1,31,-1
 345 1427 l 1,32,33
 455 1473 455 1473 563 1496.5 c 128,-1,34
 671 1520 671 1520 774 1520 c 0,35,36
 1001 1520 1001 1520 1108 1404 c 128,-1,37
 1215 1288 1215 1288 1176 1085 c 0,38,39
 1145 927 1145 927 1048 833.5 c 128,-1,40
 951 740 951 740 711 655 c 2,0,1
EndSplineSet
EndChar

StartChar: uni01A8
Encoding: 424 424 360
Width: 1233
Flags: W
LayerCount: 2
Fore
SplineSet
350 1085 m 1,0,1
 445 1116 445 1116 542.5 1131.5 c 128,-1,2
 640 1147 640 1147 735 1147 c 0,3,4
 947 1147 947 1147 1046.5 1057 c 128,-1,5
 1146 967 1146 967 1115 805 c 0,6,7
 1088 669 1088 669 995.5 588 c 128,-1,8
 903 507 903 507 728 469 c 2,9,-1
 643 451 l 2,10,11
 495 417 495 417 452 387 c 128,-1,12
 409 357 409 357 398 301 c 0,13,14
 387 244 387 244 434 214 c 128,-1,15
 481 184 481 184 584 184 c 0,16,17
 678 184 678 184 784 213 c 128,-1,18
 890 242 890 242 998 297 c 1,19,-1
 948 41 l 1,20,21
 833 6 833 6 723.5 -11.5 c 128,-1,22
 614 -29 614 -29 513 -29 c 0,23,24
 285 -29 285 -29 188 57.5 c 128,-1,25
 91 144 91 144 125 317 c 0,26,27
 153 461 153 461 244 545.5 c 128,-1,28
 335 630 335 630 502 668 c 2,29,-1
 590 688 l 1,30,-1
 602 691 l 1,31,32
 825 741 825 741 841 821 c 0,33,34
 852 877 852 877 807.5 905.5 c 128,-1,35
 763 934 763 934 665 934 c 0,36,37
 577 934 577 934 484.5 907.5 c 128,-1,38
 392 881 392 881 300 829 c 1,39,-1
 350 1085 l 1,0,1
EndSplineSet
EndChar

StartChar: uni01AA
Encoding: 426 426 362
Width: 1233
Flags: W
LayerCount: 2
Fore
SplineSet
880 987 m 1,0,-1
 671 -86 l 2,1,2
 659 -150 659 -150 680 -175 c 0,3,4
 701 -199 701 -199 764 -199 c 2,5,-1
 993 -199 l 1,6,-1
 950 -424 l 1,7,-1
 709 -424 l 2,8,9
 481 -424 481 -424 412 -346 c 128,-1,10
 343 -268 343 -268 382 -66 c 2,11,-1
 587 987 l 1,12,-1
 452 987 l 2,13,14
 144 987 144 987 194 1263 c 0,15,16
 246 1545 246 1545 549 1555 c 1,17,-1
 549 1556 l 1,18,-1
 599 1556 l 2,19,20
 809 1556 809 1556 879 1448 c 0,21,22
 937 1359 937 1359 918 1198 c 1,23,-1
 1056 1198 l 2,24,25
 1172 1198 1172 1198 1228 1197 c 1,26,-1
 1187 987 l 1,27,-1
 1019 987 l 1,28,-1
 880 987 l 1,0,-1
618 1197 m 1,29,30
 618 1247 618 1247 602 1276 c 0,31,32
 573 1330 573 1330 476 1331 c 1,33,34
 412 1326 412 1326 402 1273 c 0,35,36
 389 1197 389 1197 494 1197 c 0,37,38
 566 1197 566 1197 618 1197 c 1,29,30
477 1331 m 1,39,-1
 506 1331 l 1,40,-1
 477 1331 l 1,39,-1
EndSplineSet
EndChar

StartChar: uni01AB
Encoding: 427 427 363
Width: 1233
Flags: W
LayerCount: 2
Fore
SplineSet
970 1438 m 1,0,-1
 908 1120 l 1,1,-1
 1291 1120 l 1,2,-1
 1247 895 l 1,3,-1
 864 895 l 1,4,-1
 761 365 l 2,5,6
 746 290 746 290 776.5 257.5 c 128,-1,7
 807 225 807 225 892 225 c 2,8,-1
 1117 225 l 1,9,-1
 1081 43 l 1,10,-1
 1073 0 l 1,11,-1
 1072 0 l 1,12,13
 1023 -214 1023 -214 919 -316 c 0,14,15
 808 -424 808 -424 598 -424 c 2,16,-1
 477 -424 l 1,17,-1
 520 -199 l 1,18,-1
 559 -199 l 2,19,20
 657 -199 657 -199 711 -144 c 0,21,22
 754 -100 754 -100 779 1 c 1,23,24
 568 8 568 8 502 80 c 0,25,26
 428 161 428 161 471 379 c 2,27,-1
 571 895 l 1,28,-1
 285 895 l 1,29,-1
 329 1120 l 1,30,-1
 615 1120 l 1,31,-1
 677 1438 l 1,32,-1
 970 1438 l 1,0,-1
EndSplineSet
EndChar

StartChar: uni01AC
Encoding: 428 428 364
Width: 1233
Flags: W
LayerCount: 2
Fore
SplineSet
485 1237 m 2,0,1
 466 1237 466 1237 465 1236 c 0,2,3
 421 1235 421 1235 401 1216 c 0,4,5
 368 1183 368 1183 347 1111 c 0,6,7
 344 1097 344 1097 338 1064 c 1,8,-1
 83 1064 l 1,9,-1
 97 1141 l 2,10,11
 128 1296 128 1296 188 1361 c 0,12,13
 211 1385 211 1385 249 1414 c 0,14,15
 355 1490 355 1490 478 1490 c 0,16,17
 582 1490 582 1490 535 1495 c 1,18,-1
 1288 1493 l 1,19,-1
 1238 1235 l 1,20,-1
 859 1235 l 1,21,-1
 619 0 l 1,22,-1
 324 0 l 1,23,-1
 564 1235 l 1,24,-1
 485 1237 l 2,0,1
EndSplineSet
EndChar

StartChar: uni01AD
Encoding: 429 429 365
Width: 1233
Flags: W
LayerCount: 2
Fore
SplineSet
465 1120 m 1,0,1
 508 1339 508 1339 620 1448 c 0,2,3
 721 1546 721 1546 899 1555 c 0,4,5
 919 1556 919 1556 941 1556 c 2,6,-1
 1062 1556 l 1,7,-1
 1018 1331 l 1,8,-1
 979 1331 l 2,9,10
 881 1331 881 1331 828 1276 c 0,11,12
 777 1223 777 1223 756 1120 c 1,13,-1
 1139 1120 l 1,14,-1
 1096 895 l 1,15,-1
 713 895 l 1,16,-1
 610 365 l 2,17,18
 595 290 595 290 625.5 257.5 c 128,-1,19
 656 225 656 225 741 225 c 2,20,-1
 966 225 l 1,21,-1
 922 0 l 1,22,-1
 676 0 l 2,23,24
 424 0 424 0 350.5 80.5 c 128,-1,25
 277 161 277 161 319 379 c 2,26,-1
 420 895 l 1,27,-1
 134 895 l 1,28,-1
 177 1120 l 1,29,-1
 465 1120 l 1,0,1
EndSplineSet
EndChar

StartChar: uni01AE
Encoding: 430 430 366
Width: 1233
Flags: W
LayerCount: 2
Fore
SplineSet
319 0 m 2,0,-1
 559 1235 l 1,1,-1
 180 1235 l 1,2,-1
 230 1493 l 1,3,-1
 1283 1493 l 1,4,-1
 1233 1235 l 1,5,-1
 854 1235 l 1,6,-1
 622 41 l 2,7,8
 610 -20 610 -20 610 -64 c 0,9,10
 610 -201 610 -201 757 -201 c 2,11,-1
 796 -201 l 1,12,-1
 752 -426 l 1,13,-1
 626 -426 l 2,14,15
 307 -426 307 -426 307 -138 c 0,16,17
 307 -76 307 -76 319 0 c 2,0,-1
EndSplineSet
EndChar

StartChar: uni01B1
Encoding: 433 433 369
Width: 1233
Flags: W
LayerCount: 2
Fore
SplineSet
1244 1249 m 1,0,-1
 1006 1249 l 1,1,2
 1105 1140 1105 1140 1132.5 1004.5 c 128,-1,3
 1160 869 1160 869 1123 678 c 0,4,5
 1062 366 1062 366 887 183 c 128,-1,6
 712 0 712 0 477 0 c 0,7,8
 240 0 240 0 134.5 183 c 128,-1,9
 29 366 29 366 90 678 c 0,10,11
 127 869 127 869 207.5 1004.5 c 128,-1,12
 288 1140 288 1140 429 1249 c 1,13,-1
 191 1249 l 1,14,-1
 232 1460 l 1,15,-1
 703 1460 l 1,16,-1
 651 1192 l 1,17,18
 554 1113 554 1113 492.5 996 c 128,-1,19
 431 879 431 879 399 712 c 0,20,21
 357 498 357 498 390.5 382 c 128,-1,22
 424 266 424 266 527 266 c 0,23,24
 629 266 629 266 708 382 c 128,-1,25
 787 498 787 498 829 712 c 0,26,27
 861 878 861 878 844 996.5 c 128,-1,28
 827 1115 827 1115 760 1192 c 1,29,-1
 812 1460 l 1,30,-1
 1285 1460 l 1,31,-1
 1244 1249 l 1,0,-1
EndSplineSet
EndChar

StartChar: uni01B2
Encoding: 434 434 370
Width: 1233
Flags: W
LayerCount: 2
Fore
SplineSet
797 707 m 0,0,1
 861 1035 861 1035 729 1187 c 1,2,-1
 740 1244 l 1,3,-1
 975 1244 l 1,4,5
 1074 1135 1074 1135 1101.5 999.5 c 128,-1,6
 1129 864 1129 864 1092 673 c 0,7,8
 1031 361 1031 361 856 178 c 0,9,10
 686 0 686 0 397 0 c 0,11,12
 144 0 144 0 73 176 c 0,13,14
 29 286 29 286 63 462 c 2,15,-1
 212 1233 l 1,16,-1
 262 1493 l 1,17,-1
 557 1493 l 1,18,-1
 363 495 l 2,19,20
 336 353 336 353 365 307 c 0,21,22
 394 262 394 262 496 261 c 0,23,24
 649 261 649 261 743 509 c 0,25,26
 776 597 776 597 797 707 c 0,0,1
EndSplineSet
EndChar

StartChar: uni01B3
Encoding: 435 435 371
Width: 1233
Flags: W
LayerCount: 2
Fore
SplineSet
987 1026 m 2,0,-1
 695 588 l 1,1,-1
 581 0 l 1,2,-1
 286 0 l 1,3,-1
 400 588 l 1,4,-1
 147 1493 l 1,5,-1
 449 1493 l 1,6,-1
 608 893 l 1,7,-1
 747 1104 l 2,8,9
 956 1424 956 1424 1003 1452 c 0,10,11
 1154 1544 1154 1544 1308 1467 c 2,12,-1
 1364 1439 l 1,13,-1
 1259 1224 l 1,14,15
 1232 1243 1232 1243 1179 1241 c 0,16,17
 1129 1239 1129 1239 987 1026 c 2,0,-1
EndSplineSet
EndChar

StartChar: uni01B4
Encoding: 436 436 372
Width: 1233
Flags: W
LayerCount: 2
Fore
SplineSet
990 664 m 2,0,-1
 559 -121 l 2,1,2
 393 -424 393 -424 158 -424 c 2,3,-1
 -84 -424 l 1,4,-1
 -40 -201 l 1,5,-1
 79 -201 l 2,6,7
 169 -201 169 -201 217 -170.5 c 128,-1,8
 265 -140 265 -140 329 -29 c 2,9,-1
 363 31 l 1,10,-1
 179 1120 l 1,11,-1
 472 1120 l 1,12,-1
 574 393 l 1,13,-1
 754 744 l 2,14,15
 899 1025 899 1025 993 1084 c 0,16,17
 1088 1143 1088 1143 1300 1105 c 2,18,-1
 1349 1096 l 1,19,-1
 1248 880 l 1,20,21
 1161 915 1161 915 1098 836 c 0,22,23
 1053 779 1053 779 990 664 c 2,0,-1
EndSplineSet
EndChar

StartChar: uni01B5
Encoding: 437 437 373
Width: 1233
Flags: W
LayerCount: 2
Fore
SplineSet
282 1493 m 1,0,-1
 1292 1493 l 1,1,-1
 1245 1249 l 1,2,-1
 781 730 l 1,3,-1
 1008 730 l 1,4,-1
 970 538 l 1,5,-1
 609 538 l 1,6,-1
 360 260 l 1,7,-1
 1066 260 l 1,8,-1
 1016 0 l 1,9,-1
 -30 0 l 1,10,-1
 17 244 l 1,11,-1
 274 538 l 1,12,-1
 181 538 l 1,13,-1
 219 730 l 1,14,-1
 442 730 l 1,15,-1
 881 1233 l 1,16,-1
 232 1233 l 1,17,-1
 282 1493 l 1,0,-1
EndSplineSet
EndChar

StartChar: uni01B6
Encoding: 438 438 374
Width: 1233
Flags: W
LayerCount: 2
Fore
SplineSet
290 1120 m 1,0,-1
 1185 1120 l 1,1,-1
 1140 891 l 1,2,-1
 863 632 l 1,3,-1
 1018 632 l 1,4,-1
 980 438 l 1,5,-1
 655 438 l 1,6,-1
 421 219 l 1,7,-1
 1010 219 l 1,8,-1
 967 0 l 1,9,-1
 48 0 l 1,10,-1
 93 229 l 1,11,-1
 317 438 l 1,12,-1
 206 438 l 1,13,-1
 243 632 l 1,14,-1
 525 632 l 1,15,-1
 813 901 l 1,16,-1
 247 901 l 1,17,-1
 290 1120 l 1,0,-1
EndSplineSet
EndChar

StartChar: uni01B7
Encoding: 439 439 375
Width: 1233
Flags: W
LayerCount: 2
Fore
SplineSet
1163 425 m 0,0,1
 1109 144 1109 144 846 35 c 0,2,3
 693 -28 693 -28 475 -28 c 0,4,5
 137 -28 137 -28 29 88 c 0,6,7
 -90 216 -90 216 -47 439 c 1,8,-1
 271 439 l 1,9,10
 250 332 250 332 336 275 c 0,11,12
 397 234 397 234 495 234 c 0,13,14
 730 234 730 234 800 380 c 0,15,16
 813 408 813 408 819 439 c 0,17,18
 854 618 854 618 634 642 c 0,19,20
 601 646 601 646 562 646 c 2,21,-1
 307 646 l 1,22,-1
 350 864 l 1,23,-1
 793 1233 l 1,24,-1
 227 1233 l 1,25,-1
 278 1493 l 1,26,-1
 1288 1493 l 1,27,-1
 1240 1249 l 1,28,-1
 761 848 l 1,29,30
 904 839 904 839 978 816 c 0,31,32
 1079 785 1079 785 1133 685 c 0,33,34
 1192 575 1192 575 1163 425 c 0,0,1
EndSplineSet
EndChar

StartChar: uni01B8
Encoding: 440 440 376
Width: 1233
Flags: W
LayerCount: 2
Fore
SplineSet
544 234 m 0,0,1
 686 234 686 234 774 312 c 0,2,3
 834 365 834 365 848 439 c 1,4,-1
 1166 439 l 1,5,6
 1123 216 1123 216 954 88 c 0,7,8
 800 -28 800 -28 462 -28 c 0,9,10
 4 -28 4 -28 -53 246 c 0,11,12
 -69 326 -69 326 -50 425 c 0,13,14
 -22 568 -22 568 69 670 c 0,15,16
 170 783 170 783 287 816 c 0,17,18
 370 839 370 839 516 848 c 1,19,-1
 193 1249 l 1,20,-1
 241 1493 l 1,21,-1
 1251 1493 l 1,22,-1
 1200 1233 l 1,23,-1
 634 1233 l 1,24,-1
 935 864 l 1,25,-1
 892 646 l 1,26,-1
 637 646 l 2,27,28
 340 646 340 646 300 439 c 0,29,30
 273 300 273 300 402 254 c 0,31,32
 458 234 458 234 544 234 c 0,0,1
EndSplineSet
EndChar

StartChar: uni01B9
Encoding: 441 441 377
Width: 1233
Flags: W
LayerCount: 2
Fore
SplineSet
944 452 m 1,0,-1
 901 234 l 1,1,-1
 733 234 l 2,2,3
 586 234 586 234 501 182 c 0,4,5
 416 129 416 129 396 27 c 0,6,7
 377 -72 377 -72 439.5 -125 c 128,-1,8
 502 -178 502 -178 640 -178 c 0,9,10
 733 -178 733 -178 835 -150 c 0,11,12
 936 -123 936 -123 1044 -69 c 1,13,-1
 986 -366 l 1,14,15
 877 -403 877 -403 769 -422 c 0,16,17
 661 -440 661 -440 558 -440 c 0,18,19
 264 -440 264 -440 134 -324 c 0,20,21
 3 -209 3 -209 46 13 c 0,22,23
 74 156 74 156 165 258 c 0,24,25
 264 371 264 371 383 404 c 0,26,27
 466 427 466 427 613 436 c 1,28,-1
 310 891 l 1,29,-1
 355 1120 l 1,30,-1
 1250 1120 l 1,31,-1
 1207 901 l 1,32,-1
 641 901 l 1,33,-1
 944 452 l 1,0,-1
EndSplineSet
EndChar

StartChar: uni01BA
Encoding: 442 442 378
Width: 1233
Flags: W
LayerCount: 2
Fore
SplineSet
775 546 m 1,0,1
 883 529 883 529 952 481 c 0,2,3
 1031 425 1031 425 1031 322 c 0,4,5
 1031 294 1031 294 1025 261 c 0,6,7
 998 123 998 123 893 56 c 0,8,9
 792 -9 792 -9 557 -36 c 2,10,-1
 496 -43 l 2,11,12
 387 -56 387 -56 352 -73 c 0,13,14
 310 -94 310 -94 305 -132 c 0,15,16
 304 -140 304 -140 304 -147 c 0,17,18
 304 -184 304 -184 342 -204 c 0,19,20
 388 -228 388 -228 488 -228 c 0,21,22
 598 -228 598 -228 709 -206 c 0,23,24
 820 -185 820 -185 929 -142 c 1,25,-1
 886 -368 l 1,26,27
 752 -399 752 -399 647 -412 c 0,28,29
 531 -426 531 -426 425 -426 c 0,30,31
 179 -426 179 -426 66 -351 c 0,32,33
 -23 -292 -23 -292 -23 -186 c 0,34,35
 -23 -158 -23 -158 -17 -127 c 0,36,37
 11 14 11 14 115 81 c 0,38,39
 204 139 204 139 484 175 c 2,40,-1
 546 183 l 2,41,42
 648 196 648 196 678 210 c 0,43,44
 720 230 720 230 725 266 c 0,45,46
 726 274 726 274 726 281 c 0,47,48
 726 315 726 315 690 331 c 0,49,50
 644 352 644 352 397 352 c 2,51,-1
 145 352 l 1,52,-1
 746 894 l 1,53,-1
 181 894 l 1,54,-1
 221 1120 l 1,55,-1
 1198 1120 l 1,56,-1
 1159 900 l 1,57,-1
 775 546 l 1,0,1
EndSplineSet
EndChar

StartChar: uni01BB
Encoding: 443 443 379
Width: 1233
Flags: W
LayerCount: 2
Fore
SplineSet
337 260 m 1,0,-1
 966 260 l 1,1,-1
 915 0 l 1,2,-1
 -33 0 l 1,3,-1
 16 252 l 1,4,-1
 209 422 l 1,5,-1
 341 538 l 1,6,-1
 179 538 l 1,7,-1
 216 730 l 1,8,-1
 557 730 l 1,9,-1
 628 795 l 2,10,11
 720 881 720 881 765.5 947.5 c 128,-1,12
 811 1014 811 1014 824 1079 c 0,13,14
 843 1179 843 1179 793.5 1233.5 c 128,-1,15
 744 1288 744 1288 633 1288 c 0,16,17
 554 1288 554 1288 449 1256.5 c 128,-1,18
 344 1225 344 1225 226 1165 c 1,19,-1
 279 1440 l 1,20,21
 394 1479 394 1479 500.5 1499.5 c 128,-1,22
 607 1520 607 1520 701 1520 c 0,23,24
 938 1520 938 1520 1052 1409.5 c 128,-1,25
 1166 1299 1166 1299 1129 1108 c 0,26,27
 1112 1020 1112 1020 1067.5 943 c 128,-1,28
 1023 866 1023 866 932 772 c 0,29,30
 917 756 917 756 888 730 c 1,31,-1
 1005 730 l 1,32,-1
 968 538 l 1,33,-1
 721 538 l 1,34,-1
 667 538 l 1,35,-1
 582 466 l 1,36,-1
 337 260 l 1,0,-1
EndSplineSet
EndChar

StartChar: uni01BC
Encoding: 444 444 380
Width: 1233
Flags: W
LayerCount: 2
Fore
SplineSet
307 646 m 1,0,-1
 165 646 l 1,1,-1
 330 1493 l 1,2,-1
 1260 1493 l 1,3,-1
 1209 1233 l 1,4,-1
 574 1233 l 1,5,-1
 506 880 l 1,6,-1
 768 880 l 2,7,8
 883 880 883 880 1012 816 c 1,9,10
 1082 786 1082 786 1140 670 c 0,11,12
 1191 568 1191 568 1163 425 c 0,13,14
 1120 203 1120 203 945 88 c 0,15,16
 769 -28 769 -28 475 -28 c 0,17,18
 137 -28 137 -28 29 88 c 0,19,20
 -90 216 -90 216 -47 439 c 1,21,-1
 271 439 l 1,22,23
 252 344 252 344 320 287 c 0,24,25
 384 234 384 234 495 234 c 0,26,27
 633 234 633 234 716.5 287 c 128,-1,28
 800 340 800 340 819 439 c 0,29,30
 839 541 839 541 774 594 c 0,31,32
 709 646 709 646 562 646 c 2,33,-1
 460 646 l 1,34,-1
 307 646 l 1,0,-1
EndSplineSet
EndChar

StartChar: uni01BD
Encoding: 445 445 381
Width: 1233
Flags: W
LayerCount: 2
Fore
SplineSet
642 452 m 2,0,1
 778 452 778 452 888 404 c 0,2,3
 985 360 985 360 1036 258 c 0,4,5
 1087 155 1087 155 1059 13 c 0,6,7
 1016 -209 1016 -209 841 -324 c 0,8,9
 665 -440 665 -440 371 -440 c 0,10,11
 268 -440 268 -440 168 -422 c 0,12,13
 68 -403 68 -403 -27 -366 c 1,14,-1
 30 -69 l 1,15,16
 115 -122 115 -122 207.5 -150 c 128,-1,17
 300 -178 300 -178 391 -178 c 0,18,19
 529 -178 529 -178 612.5 -125 c 128,-1,20
 696 -72 696 -72 715 27 c 0,21,22
 735 129 735 129 670 182 c 0,23,24
 605 234 605 234 458 234 c 2,25,-1
 290 234 l 1,26,-1
 201 234 l 1,27,-1
 374 1120 l 1,28,-1
 1173 1120 l 1,29,-1
 1132 911 l 1,30,-1
 624 911 l 1,31,-1
 535 452 l 1,32,-1
 642 452 l 2,0,1
EndSplineSet
EndChar

StartChar: uni01BE
Encoding: 446 446 382
Width: 1233
Flags: W
LayerCount: 2
Fore
SplineSet
759 1078 m 1,0,-1
 749 1029 l 1,1,2
 913 998 913 998 986 904 c 0,3,4
 1098 759 1098 759 1053 528 c 0,5,6
 1011 313 1011 313 866 180 c 0,7,8
 637 -30 637 -30 420 -30 c 0,9,10
 257 -30 257 -30 188 -12 c 0,11,12
 118 5 118 5 57 40 c 1,13,-1
 115 338 l 1,14,15
 176 295 176 295 242 274 c 0,16,17
 310 252 310 252 382 252 c 0,18,19
 543 252 543 252 654 366 c 0,20,21
 719 432 719 432 738 528 c 0,22,23
 752 599 752 599 715 675 c 0,24,25
 660 789 660 789 465 789 c 2,26,-1
 381 789 l 1,27,-1
 437 1078 l 1,28,-1
 219 1078 l 1,29,-1
 256 1272 l 1,30,-1
 470 1272 l 1,31,-1
 474 1272 l 1,32,-1
 507 1438 l 1,33,-1
 829 1438 l 1,34,-1
 796 1272 l 1,35,-1
 1029 1272 l 1,36,-1
 992 1078 l 1,37,-1
 759 1078 l 1,0,-1
EndSplineSet
EndChar

StartChar: uni01BF
Encoding: 447 447 383
Width: 1233
Flags: W
LayerCount: 2
Fore
SplineSet
320 -132 m 1,0,-1
 260 -426 l 1,1,-1
 -37 -426 l 1,2,-1
 279 1120 l 1,3,-1
 576 1120 l 1,4,-1
 542 955 l 1,5,6
 636 1066 636 1066 715 1103 c 0,7,8
 810 1147 810 1147 966 1147 c 2,9,-1
 972 1147 l 2,10,11
 1139 1147 1139 1147 1183 1035 c 0,12,13
 1220 943 1220 943 1216 850 c 0,14,15
 1214 809 1214 809 1205 769 c 0,16,17
 1106 342 1106 342 320 -132 c 1,0,-1
376 145 m 1,18,19
 840 479 840 479 872 643 c 0,20,21
 879 681 879 681 880 713 c 0,22,23
 883 778 883 778 861 822 c 0,24,25
 828 887 828 887 723 887 c 0,26,27
 650 887 650 887 487 684 c 1,28,29
 432 414 432 414 376 145 c 1,18,19
EndSplineSet
EndChar

StartChar: uni01C0
Encoding: 448 448 384
Width: 1233
Flags: W
LayerCount: 2
Fore
SplineSet
628 1493 m 1,0,-1
 895 1493 l 1,1,-1
 605 0 l 1,2,-1
 338 0 l 1,3,-1
 628 1493 l 1,0,-1
EndSplineSet
EndChar

StartChar: uni01C2
Encoding: 450 450 386
Width: 1233
Flags: W
LayerCount: 2
Fore
SplineSet
628 1493 m 1,0,-1
 895 1493 l 1,1,-1
 828 1146 l 1,2,-1
 1238 1146 l 1,3,-1
 1192 911 l 1,4,-1
 782 911 l 1,5,-1
 739 691 l 1,6,-1
 1149 691 l 1,7,-1
 1103 454 l 1,8,-1
 693 454 l 1,9,-1
 605 0 l 1,10,-1
 338 0 l 1,11,-1
 426 454 l 1,12,-1
 16 454 l 1,13,-1
 62 691 l 1,14,-1
 472 691 l 1,15,-1
 515 911 l 1,16,-1
 105 911 l 1,17,-1
 151 1146 l 1,18,-1
 561 1146 l 1,19,-1
 628 1493 l 1,0,-1
EndSplineSet
EndChar

StartChar: uni01F6
Encoding: 502 502 423
Width: 1233
Flags: W
LayerCount: 2
Fore
SplineSet
173 1493 m 1,0,-1
 424 1493 l 1,1,-1
 313 924 l 1,2,-1
 535 924 l 1,3,-1
 646 1493 l 1,4,-1
 897 1493 l 1,5,-1
 714 551 l 1,6,-1
 699 477 l 2,7,8
 670 325 670 325 680 288 c 0,9,10
 693 238 693 238 749 238 c 0,11,12
 818 238 818 238 851 296 c 0,13,14
 883 352 883 352 907 477 c 2,15,-1
 994 924 l 1,16,-1
 1245 924 l 1,17,-1
 1173 551 l 2,18,19
 1114 247 1114 247 984 109 c 128,-1,20
 854 -29 854 -29 697 -29 c 0,21,22
 556 -29 556 -29 480 109 c 128,-1,23
 404 247 404 247 463 551 c 2,24,-1
 485 664 l 1,25,-1
 263 664 l 1,26,-1
 134 0 l 1,27,-1
 -117 0 l 1,28,-1
 173 1493 l 1,0,-1
EndSplineSet
EndChar

StartChar: uni021C
Encoding: 540 540 458
Width: 1233
Flags: W
LayerCount: 2
Fore
SplineSet
1386 1170 m 0,0,1
 1386 1136 1386 1136 1377.5 1094.5 c 128,-1,2
 1369 1053 1369 1053 1343 995.5 c 128,-1,3
 1317 938 1317 938 1276.5 884 c 128,-1,4
 1236 830 1236 830 1165.5 773 c 128,-1,5
 1095 716 1095 716 1004 674 c 1,6,7
 1125 643 1125 643 1188.5 562.5 c 128,-1,8
 1252 482 1252 482 1252 379 c 0,9,10
 1252 345 1252 345 1245 311 c 0,11,12
 1223 207 1223 207 1160.5 120 c 128,-1,13
 1098 33 1098 33 998 -40 c 128,-1,14
 898 -113 898 -113 744.5 -180.5 c 128,-1,15
 591 -248 591 -248 404 -307 c 128,-1,16
 217 -366 217 -366 -37 -430 c 1,17,-1
 23 -147 l 1,18,19
 36 -144 36 -144 57.5 -139 c 128,-1,20
 79 -134 79 -134 135 -119 c 128,-1,21
 191 -104 191 -104 246.5 -87 c 128,-1,22
 302 -70 302 -70 374.5 -43 c 128,-1,23
 447 -16 447 -16 510.5 12.5 c 128,-1,24
 574 41 574 41 637.5 79 c 128,-1,25
 701 117 701 117 746 156.5 c 128,-1,26
 791 196 791 196 819.5 244.5 c 128,-1,27
 848 293 848 293 848 342 c 0,28,29
 848 393 848 393 820.5 429.5 c 128,-1,30
 793 466 793 466 753.5 482 c 128,-1,31
 714 498 714 498 669 498 c 0,32,33
 612 498 612 498 544 473 c 2,34,-1
 309 388 l 1,35,-1
 363 642 l 1,36,-1
 618 737 l 2,37,38
 708 771 708 771 777 812.5 c 128,-1,39
 846 854 846 854 885.5 892 c 128,-1,40
 925 930 925 930 949.5 972 c 128,-1,41
 974 1014 974 1014 981.5 1045 c 128,-1,42
 989 1076 989 1076 989 1106 c 0,43,44
 989 1148 989 1148 968.5 1179 c 128,-1,45
 948 1210 948 1210 914 1226 c 128,-1,46
 880 1242 880 1242 845 1249 c 128,-1,47
 810 1256 810 1256 774 1256 c 0,48,49
 625 1256 625 1256 352 1100 c 1,50,-1
 406 1356 l 1,51,52
 681 1520 681 1520 916 1520 c 0,53,54
 1020 1520 1020 1520 1103 1498 c 128,-1,55
 1186 1476 1186 1476 1238 1441 c 128,-1,56
 1290 1406 1290 1406 1324.5 1359 c 128,-1,57
 1359 1312 1359 1312 1372.5 1265.5 c 128,-1,58
 1386 1219 1386 1219 1386 1170 c 0,0,1
EndSplineSet
EndChar

StartChar: uni021D
Encoding: 541 541 459
Width: 1233
Flags: W
LayerCount: 2
Fore
SplineSet
1270 871 m 0,0,1
 1270 750 1270 750 1177 638 c 128,-1,2
 1084 526 1084 526 935 461 c 1,3,4
 1001 443 1001 443 1048 415 c 128,-1,5
 1095 387 1095 387 1119 353.5 c 128,-1,6
 1143 320 1143 320 1153.5 288 c 128,-1,7
 1164 256 1164 256 1164 221 c 0,8,9
 1164 194 1164 194 1158 167 c 0,10,11
 1072 -241 1072 -241 18 -433 c 1,12,-1
 67 -204 l 1,13,14
 92 -199 92 -199 124 -191.5 c 128,-1,15
 156 -184 156 -184 217.5 -168.5 c 128,-1,16
 279 -153 279 -153 337.5 -134 c 128,-1,17
 396 -115 396 -115 465 -90 c 128,-1,18
 534 -65 534 -65 591.5 -34 c 128,-1,19
 649 -3 649 -3 697.5 31 c 128,-1,20
 746 65 746 65 773 106 c 128,-1,21
 800 147 800 147 800 189 c 0,22,23
 800 250 800 250 751 284.5 c 128,-1,24
 702 319 702 319 636 319 c 0,25,26
 584 319 584 319 524 299 c 2,27,-1
 315 230 l 1,28,-1
 359 436 l 1,29,-1
 586 513 l 2,30,31
 668 541 668 541 730 575.5 c 128,-1,32
 792 610 792 610 826 640.5 c 128,-1,33
 860 671 860 671 880.5 704.5 c 128,-1,34
 901 738 901 738 907 761.5 c 128,-1,35
 913 785 913 785 913 808 c 0,36,37
 913 843 913 843 893.5 869 c 128,-1,38
 874 895 874 895 842.5 908 c 128,-1,39
 811 921 811 921 779.5 927 c 128,-1,40
 748 933 748 933 716 933 c 0,41,42
 576 933 576 933 340 807 c 1,43,-1
 384 1014 l 1,44,45
 616 1147 616 1147 864 1147 c 0,46,47
 953 1147 953 1147 1024 1131 c 128,-1,48
 1095 1115 1095 1115 1140 1089 c 128,-1,49
 1185 1063 1185 1063 1215 1026.5 c 128,-1,50
 1245 990 1245 990 1257.5 952 c 128,-1,51
 1270 914 1270 914 1270 871 c 0,0,1
EndSplineSet
EndChar

StartChar: uni0221
Encoding: 545 545 462
Width: 1233
Flags: W
LayerCount: 2
Fore
SplineSet
862 216 m 1,0,1
 866 210 866 210 911 211 c 0,2,3
 1014 211 1014 211 1027 277.5 c 128,-1,4
 1040 344 1040 344 998 344 c 0,5,6
 947 344 947 344 862 216 c 1,0,1
789 354 m 1,7,8
 922 588 922 588 1047 588 c 0,9,10
 1200 588 1200 588 1155 348 c 0,11,12
 1083 -29 1083 -29 838 -29 c 0,13,14
 722 -29 722 -29 721 -19 c 1,15,-1
 654 -140 l 1,16,-1
 511 -140 l 1,17,18
 561 -43 561 -43 598 28 c 1,19,20
 535 56 535 56 498 177 c 1,21,22
 447 69 447 69 404 33 c 0,23,24
 330 -29 330 -29 254 -29 c 0,25,26
 77 -29 77 -29 1 125 c 128,-1,27
 -75 279 -75 279 -21 559 c 0,28,29
 34 843 34 843 171 995 c 128,-1,30
 308 1147 308 1147 489 1147 c 0,31,32
 550 1147 550 1147 589 1100 c 0,33,34
 612 1073 612 1073 628 1028 c 1,35,-1
 731 1556 l 1,36,-1
 1023 1556 l 1,37,-1
 789 354 l 1,7,8
271.5 557 m 128,-1,39
 240 395 240 395 256.5 303 c 128,-1,40
 273 211 273 211 332.5 211 c 128,-1,41
 392 211 392 211 444.5 303 c 128,-1,42
 497 395 497 395 528.5 557 c 128,-1,43
 560 719 560 719 543.5 811 c 128,-1,44
 527 903 527 903 467 903 c 128,-1,45
 407 903 407 903 355 811 c 128,-1,38
 303 719 303 719 271.5 557 c 128,-1,39
EndSplineSet
EndChar

StartChar: uni0224
Encoding: 548 548 463
Width: 1233
Flags: W
LayerCount: 2
Fore
SplineSet
323 1493 m 1,0,-1
 1333 1493 l 1,1,-1
 1286 1249 l 1,2,-1
 402 260 l 1,3,-1
 1108 260 l 1,4,-1
 1057 0 l 1,5,-1
 1056 0 l 1,6,7
 1007 -216 1007 -216 905 -316 c 0,8,9
 794 -424 794 -424 584 -424 c 2,10,-1
 463 -424 l 1,11,-1
 506 -199 l 1,12,-1
 545 -199 l 2,13,14
 644 -199 644 -199 697 -144 c 0,15,16
 740 -100 740 -100 765 0 c 1,17,-1
 11 0 l 1,18,-1
 59 244 l 1,19,-1
 922 1233 l 1,20,-1
 273 1233 l 1,21,-1
 323 1493 l 1,0,-1
EndSplineSet
EndChar

StartChar: uni0225
Encoding: 549 549 464
Width: 1233
Flags: W
LayerCount: 2
Fore
SplineSet
336 1120 m 1,0,-1
 1231 1120 l 1,1,-1
 1187 891 l 1,2,-1
 467 219 l 1,3,-1
 1056 219 l 1,4,-1
 1013 0 l 1,5,-1
 1013 0 l 1,6,7
 963 -216 963 -216 861 -316 c 0,8,9
 750 -424 750 -424 540 -424 c 2,10,-1
 419 -424 l 1,11,-1
 463 -199 l 1,12,-1
 502 -199 l 2,13,14
 600 -199 600 -199 653 -144 c 0,15,16
 696 -100 696 -100 721 0 c 1,17,-1
 94 0 l 1,18,-1
 139 229 l 1,19,-1
 859 901 l 1,20,-1
 293 901 l 1,21,-1
 336 1120 l 1,0,-1
EndSplineSet
EndChar

StartChar: uni0234
Encoding: 564 564 479
Width: 1233
Flags: W
LayerCount: 2
Fore
SplineSet
821 216 m 1,0,1
 825 210 825 210 870 211 c 0,2,3
 973 211 973 211 986 277.5 c 128,-1,4
 999 344 999 344 957 344 c 0,5,6
 906 344 906 344 821 216 c 1,0,1
652 200 m 1,7,-1
 748 354 l 1,8,9
 881 588 881 588 1006 588 c 0,10,11
 1160 588 1160 588 1114 348 c 0,12,13
 1042 -29 1042 -29 797 -29 c 0,14,15
 681 -29 681 -29 680 -19 c 1,16,-1
 614 -140 l 1,17,-1
 469 -140 l 1,18,19
 489 -91 489 -91 526 -25 c 1,20,21
 372 -9 372 -9 315 79 c 0,22,23
 245 187 245 187 294 438 c 2,24,-1
 467 1331 l 1,25,-1
 170 1331 l 1,26,-1
 214 1556 l 1,27,-1
 804 1556 l 1,28,-1
 587 438 l 2,29,30
 561 306 561 306 591 251 c 0,31,32
 612 213 612 213 652 200 c 1,7,-1
EndSplineSet
EndChar

StartChar: uni0235
Encoding: 565 565 480
Width: 1233
Flags: W
LayerCount: 2
Fore
SplineSet
926 216 m 1,0,1
 929 210 929 210 965 211 c 0,2,3
 1048 211 1048 211 1060.5 277.5 c 128,-1,4
 1073 344 1073 344 1040 344 c 0,5,6
 999 344 999 344 926 216 c 1,0,1
816 248 m 1,7,-1
 873 354 l 1,8,9
 989 588 989 588 1088 588 c 0,10,11
 1211 588 1211 588 1165 348 c 0,12,13
 1093 -29 1093 -29 898 -29 c 0,14,15
 804 -29 804 -29 804 -19 c 1,16,-1
 747 -140 l 1,17,-1
 630 -140 l 1,18,19
 649 -91 649 -91 680 -25 c 1,20,21
 558 -9 558 -9 516 79 c 0,22,23
 464 187 464 187 513 438 c 2,24,-1
 560 682 l 2,25,26
 586 813 586 813 575 856 c 0,27,28
 563 909 563 909 536 909 c 0,29,30
 473 909 473 909 428 838 c 0,31,32
 378 757 378 757 355 641 c 2,33,-1
 230 0 l 1,34,-1
 -61 0 l 1,35,-1
 157 1120 l 1,36,-1
 448 1120 l 1,37,-1
 427 1012 l 1,38,39
 453 1063 453 1063 490 1096 c 0,40,41
 547 1147 547 1147 631 1147 c 0,42,43
 758 1147 758 1147 829 1041.5 c 128,-1,44
 900 936 900 936 860 727 c 2,45,-1
 804 438 l 2,46,47
 771 270 771 270 816 248 c 1,7,-1
EndSplineSet
EndChar

StartChar: uni0236
Encoding: 566 566 481
Width: 1233
Flags: W
LayerCount: 2
Fore
SplineSet
770 216 m 1,0,1
 772 210 772 210 808 211 c 0,2,3
 891 211 891 211 904 277.5 c 128,-1,4
 917 344 917 344 883 344 c 0,5,6
 842 344 842 344 770 216 c 1,0,1
647 438 m 2,7,8
 614 270 614 270 659 248 c 1,9,-1
 717 354 l 1,10,11
 832 588 832 588 932 588 c 0,12,13
 1055 588 1055 588 1009 348 c 0,14,15
 937 -29 937 -29 741 -29 c 0,16,17
 647 -29 647 -29 647 -19 c 1,18,-1
 590 -140 l 1,19,-1
 474 -140 l 1,20,21
 492 -91 492 -91 524 -25 c 1,22,23
 401 -9 401 -9 359 79 c 0,24,25
 307 187 307 187 356 438 c 2,26,-1
 445 895 l 1,27,-1
 159 895 l 1,28,-1
 203 1120 l 1,29,-1
 489 1120 l 1,30,-1
 550 1438 l 1,31,-1
 843 1438 l 1,32,-1
 782 1120 l 1,33,-1
 1165 1120 l 1,34,-1
 1121 895 l 1,35,-1
 738 895 l 1,36,-1
 647 438 l 2,7,8
EndSplineSet
EndChar

StartChar: dotlessj
Encoding: 567 567 482
Width: 1233
Flags: W
LayerCount: 2
Fore
SplineSet
733 43 m 2,0,1
 700 -124 700 -124 669.5 -195.5 c 128,-1,2
 639 -267 639 -267 592 -313 c 0,3,4
 533 -372 533 -372 452 -398 c 128,-1,5
 371 -424 371 -424 244 -424 c 2,6,-1
 -63 -424 l 1,7,-1
 -18 -199 l 1,8,-1
 213 -199 l 2,9,10
 313 -199 313 -199 364 -145.5 c 128,-1,11
 415 -92 415 -92 440 43 c 2,12,-1
 606 895 l 1,13,-1
 309 895 l 1,14,-1
 352 1120 l 1,15,-1
 942 1120 l 1,16,-1
 733 43 l 2,0,1
EndSplineSet
EndChar

StartChar: uni0238
Encoding: 568 568 483
Width: 1233
Flags: W
LayerCount: 2
Fore
SplineSet
188.5 557 m 128,-1,1
 157 395 157 395 177 303 c 128,-1,2
 197 211 197 211 263.5 211 c 128,-1,3
 330 211 330 211 386.5 303 c 128,-1,4
 443 395 443 395 474.5 557 c 128,-1,5
 506 719 506 719 485 811 c 128,-1,6
 464 903 464 903 397.5 903 c 128,-1,7
 331 903 331 903 275.5 811 c 128,-1,0
 220 719 220 719 188.5 557 c 128,-1,1
964.5 557 m 128,-1,9
 996 719 996 719 976 811 c 128,-1,10
 956 903 956 903 889.5 903 c 128,-1,11
 823 903 823 903 766.5 811 c 128,-1,12
 710 719 710 719 678.5 557 c 128,-1,13
 647 395 647 395 667.5 303 c 128,-1,14
 688 211 688 211 754.5 211 c 128,-1,15
 821 211 821 211 877 303 c 128,-1,8
 933 395 933 395 964.5 557 c 128,-1,9
757 961 m 1,16,17
 813 1054 813 1054 872 1100.5 c 128,-1,18
 931 1147 931 1147 994 1147 c 0,19,20
 1133 1147 1133 1147 1179 995 c 128,-1,21
 1225 843 1225 843 1170 559 c 0,22,23
 1115 279 1115 279 1011 125 c 128,-1,24
 907 -29 907 -29 773 -29 c 0,25,26
 702 -29 702 -29 659 20 c 128,-1,27
 616 69 616 69 603 166 c 1,28,-1
 570 0 l 1,29,-1
 366 0 l 1,30,-1
 398 166 l 1,31,32
 346 69 346 69 284.5 20 c 128,-1,33
 223 -29 223 -29 152 -29 c 0,34,35
 18 -29 18 -29 -26.5 125 c 128,-1,36
 -71 279 -71 279 -16 559 c 0,37,38
 39 843 39 843 144 995 c 128,-1,39
 249 1147 249 1147 388 1147 c 0,40,41
 451 1147 451 1147 492 1100.5 c 128,-1,42
 533 1054 533 1054 553 961 c 1,43,-1
 668 1556 l 1,44,-1
 873 1556 l 1,45,-1
 757 961 l 1,16,17
EndSplineSet
EndChar

StartChar: uni0239
Encoding: 569 569 484
Width: 1233
Flags: W
LayerCount: 2
Fore
SplineSet
1044.5 561 m 128,-1,1
 1076 723 1076 723 1056 815 c 128,-1,2
 1036 907 1036 907 969.5 907 c 128,-1,3
 903 907 903 907 846.5 815 c 128,-1,4
 790 723 790 723 758.5 561 c 128,-1,5
 727 399 727 399 748 307 c 128,-1,6
 769 215 769 215 835.5 215 c 128,-1,7
 902 215 902 215 957.5 307 c 128,-1,0
 1013 399 1013 399 1044.5 561 c 128,-1,1
268.5 561 m 128,-1,9
 237 399 237 399 257 307 c 128,-1,10
 277 215 277 215 343.5 215 c 128,-1,11
 410 215 410 215 466.5 307 c 128,-1,12
 523 399 523 399 554.5 561 c 128,-1,13
 586 723 586 723 565.5 815 c 128,-1,14
 545 907 545 907 478.5 907 c 128,-1,15
 412 907 412 907 356 815 c 128,-1,8
 300 723 300 723 268.5 561 c 128,-1,9
476 157 m 1,16,17
 420 64 420 64 361 17.5 c 128,-1,18
 302 -29 302 -29 239 -29 c 0,19,20
 100 -29 100 -29 54 123 c 128,-1,21
 8 275 8 275 63 559 c 0,22,23
 118 839 118 839 222 993 c 128,-1,24
 326 1147 326 1147 460 1147 c 0,25,26
 531 1147 531 1147 574 1098 c 128,-1,27
 617 1049 617 1049 630 952 c 1,28,-1
 663 1118 l 1,29,-1
 867 1118 l 1,30,-1
 835 952 l 1,31,32
 887 1049 887 1049 948.5 1098 c 128,-1,33
 1010 1147 1010 1147 1081 1147 c 0,34,35
 1215 1147 1215 1147 1259.5 993 c 128,-1,36
 1304 839 1304 839 1249 559 c 0,37,38
 1194 275 1194 275 1089 123 c 128,-1,39
 984 -29 984 -29 845 -29 c 0,40,41
 782 -29 782 -29 741 17.5 c 128,-1,42
 700 64 700 64 680 157 c 1,43,-1
 565 -438 l 1,44,-1
 360 -438 l 1,45,-1
 476 157 l 1,16,17
EndSplineSet
EndChar

StartChar: uni023A
Encoding: 570 570 485
Width: 1233
Flags: W
LayerCount: 2
Fore
SplineSet
581 1493 m 1,0,-1
 942 1493 l 1,1,-1
 958 1272 l 1,2,-1
 1217 1559 l 1,3,-1
 1356 1444 l 1,4,-1
 977 1023 l 1,5,-1
 1055 0 l 1,6,-1
 760 0 l 1,7,-1
 739 369 l 1,8,-1
 388 369 l 1,9,-1
 303 275 l 1,10,-1
 183 0 l 1,11,-1
 55 0 l 1,12,-1
 -2 -63 l 1,13,-1
 -79 0 l 1,14,-1
 -112 0 l 1,15,-1
 -103 20 l 1,16,-1
 -141 51 l 1,17,-1
 -33 172 l 1,18,-1
 581 1493 l 1,0,-1
716 1003 m 1,19,-1
 708 1223 l 1,20,-1
 527 793 l 1,21,-1
 716 1003 l 1,19,-1
607 612 m 1,22,-1
 730 612 l 1,23,-1
 725 743 l 1,24,-1
 607 612 l 1,22,-1
EndSplineSet
EndChar

StartChar: uni023B
Encoding: 571 571 486
Width: 1233
Flags: W
LayerCount: 2
Fore
SplineSet
453 711 m 2,0,-1
 939 1250 l 1,1,2
 909 1255 909 1255 885 1255 c 0,3,4
 723 1255 723 1255 615.5 1126.5 c 128,-1,5
 508 998 508 998 458 745 c 1,6,-1
 458 720 l 2,7,8
 456 716 456 716 453 711 c 2,0,-1
944 43 m 1,9,10
 867 7 867 7 786.5 -11 c 128,-1,11
 706 -29 706 -29 621 -29 c 0,12,13
 324 -29 324 -29 203 164 c 1,14,-1
 -2 -63 l 1,15,-1
 -141 51 l 1,16,-1
 134 356 l 1,17,18
 107 519 107 519 151 745 c 0,19,20
 225 1122 225 1122 422.5 1321 c 128,-1,21
 620 1520 620 1520 922 1520 c 0,22,23
 1007 1520 1007 1520 1082 1502 c 0,24,25
 1116 1494 1116 1494 1147 1482 c 1,26,-1
 1217 1559 l 1,27,-1
 1356 1444 l 1,28,-1
 1178 1246 l 1,29,-1
 1153 1120 l 1,30,31
 1130 1146 1130 1146 1107 1167 c 1,32,-1
 445 433 l 1,33,34
 453 395 453 395 467 364 c 0,35,36
 524 236 524 236 686 236 c 0,37,38
 762 236 762 236 840 268.5 c 128,-1,39
 918 301 918 301 1008 371 c 1,40,-1
 944 43 l 1,9,10
EndSplineSet
EndChar

StartChar: uni023C
Encoding: 572 572 487
Width: 1233
Flags: W
LayerCount: 2
Fore
SplineSet
33 -117 m 1,0,-1
 -83 2 l 1,1,-1
 171 247 l 1,2,3
 133 377 133 377 168 559 c 0,4,5
 222 836 222 836 399.5 992.5 c 128,-1,6
 577 1149 577 1149 836 1149 c 0,7,8
 926 1149 926 1149 1005 1128 c 0,9,10
 1035 1120 1035 1120 1064 1109 c 1,11,-1
 1194 1235 l 1,12,-1
 1310 1114 l 1,13,-1
 1136 947 l 1,14,-1
 1107 795 l 1,15,16
 1075 828 1075 828 1037 851 c 1,17,-1
 483 317 l 1,18,19
 487 309 487 309 492 301 c 0,20,21
 551 211 551 211 694 211 c 0,22,23
 779 211 779 211 858.5 239.5 c 128,-1,24
 938 268 938 268 1016 326 c 1,25,-1
 963 57 l 1,26,27
 881 14 881 14 792 -7.5 c 128,-1,28
 703 -29 703 -29 605 -29 c 0,29,30
 372 -29 372 -29 255 97 c 1,31,-1
 33 -117 l 1,0,-1
459 526 m 1,32,-1
 856 908 l 1,33,34
 843 909 843 909 830 909 c 0,35,36
 687 909 687 909 592.5 818 c 128,-1,37
 498 727 498 727 465 559 c 0,38,39
 462 542 462 542 459 526 c 1,32,-1
EndSplineSet
EndChar

StartChar: uni023D
Encoding: 573 573 488
Width: 1233
Flags: W
LayerCount: 2
Fore
SplineSet
275 730 m 1,0,-1
 424 1493 l 1,1,-1
 719 1493 l 1,2,-1
 570 730 l 1,3,-1
 814 730 l 1,4,-1
 777 538 l 1,5,-1
 533 538 l 1,6,-1
 479 260 l 1,7,-1
 1110 260 l 1,8,-1
 1059 0 l 1,9,-1
 133 0 l 1,10,-1
 238 538 l 1,11,-1
 -12 538 l 1,12,-1
 25 730 l 1,13,-1
 275 730 l 1,0,-1
EndSplineSet
EndChar

StartChar: uni023E
Encoding: 574 574 489
Width: 1233
Flags: W
LayerCount: 2
Fore
SplineSet
324 0 m 1,0,-1
 392 354 l 1,1,-1
 16 -63 l 1,2,-1
 -123 51 l 1,3,-1
 459 698 l 1,4,-1
 564 1235 l 1,5,-1
 185 1235 l 1,6,-1
 235 1493 l 1,7,-1
 1175 1493 l 1,8,-1
 1235 1559 l 1,9,-1
 1374 1444 l 1,10,-1
 1252 1308 l 1,11,-1
 1238 1235 l 1,12,-1
 1186 1235 l 1,13,-1
 769 772 l 1,14,-1
 619 0 l 1,15,-1
 324 0 l 1,0,-1
835 1116 m 1,16,-1
 943 1235 l 1,17,-1
 859 1235 l 1,18,-1
 835 1116 l 1,16,-1
EndSplineSet
EndChar

StartChar: uni023F
Encoding: 575 575 490
Width: 1233
Flags: W
LayerCount: 2
Fore
SplineSet
1138 1085 m 1,0,-1
 1088 829 l 1,1,2
 1018 881 1018 881 935.5 907.5 c 128,-1,3
 853 934 853 934 765 934 c 0,4,5
 667 934 667 934 611.5 905.5 c 128,-1,6
 556 877 556 877 545 821 c 0,7,8
 529 741 529 741 734 691 c 1,9,-1
 744 688 l 1,10,-1
 824 668 l 2,11,12
 977 630 977 630 1035 545.5 c 128,-1,13
 1093 461 1093 461 1065 317 c 0,14,15
 1031 144 1031 144 901 57.5 c 128,-1,16
 771 -29 771 -29 543 -29 c 0,17,18
 520 -29 520 -29 497 -28 c 1,19,-1
 590 -193 l 2,20,21
 635 -273 635 -273 793 -273 c 2,22,-1
 938 -273 l 1,23,-1
 896 -492 l 1,24,-1
 759 -492 l 2,25,26
 479 -492 479 -492 382 -319 c 2,27,-1
 251 -86 l 2,28,29
 244 -74 244 -74 134 41 c 1,30,-1
 184 297 l 1,31,32
 270 242 270 242 365 213 c 128,-1,33
 460 184 460 184 554 184 c 0,34,35
 657 184 657 184 716 214 c 128,-1,36
 775 244 775 244 786 301 c 0,37,38
 797 357 797 357 765 387 c 128,-1,39
 733 417 733 417 599 451 c 2,40,-1
 522 469 l 2,41,42
 361 507 361 507 299.5 588 c 128,-1,43
 238 669 238 669 265 805 c 0,44,45
 296 967 296 967 430.5 1057 c 128,-1,46
 565 1147 565 1147 777 1147 c 0,47,48
 872 1147 872 1147 963.5 1131.5 c 128,-1,49
 1055 1116 1055 1116 1138 1085 c 1,0,-1
EndSplineSet
EndChar

StartChar: uni0240
Encoding: 576 576 491
Width: 1233
Flags: W
LayerCount: 2
Fore
SplineSet
343 1120 m 1,0,-1
 1238 1120 l 1,1,-1
 1193 891 l 1,2,-1
 385 140 l 1,3,4
 428 99 428 99 462 40 c 2,5,-1
 592 -193 l 2,6,7
 637 -273 637 -273 796 -273 c 2,8,-1
 967 -273 l 1,9,-1
 924 -492 l 1,10,-1
 761 -492 l 2,11,12
 481 -492 481 -492 384 -319 c 2,13,-1
 254 -86 l 2,14,15
 206 0 206 0 101 0 c 1,16,-1
 145 229 l 1,17,-1
 866 901 l 1,18,-1
 300 901 l 1,19,-1
 343 1120 l 1,0,-1
EndSplineSet
EndChar

StartChar: uni0241
Encoding: 577 577 492
Width: 1233
Flags: W
LayerCount: 2
Fore
SplineSet
549 1213 m 2,0,1
 471 1213 471 1213 469 1213 c 0,2,3
 426 1213 426 1213 406 1192 c 0,4,5
 368 1156 368 1156 356 1108 c 0,6,7
 353 1095 353 1095 346 1061 c 1,8,-1
 91 1061 l 1,9,-1
 106 1138 l 2,10,11
 136 1293 136 1293 197 1359 c 0,12,13
 220 1383 220 1383 258 1411 c 0,14,15
 345 1474 345 1474 486 1488 c 0,16,17
 535 1492 535 1492 603 1492 c 2,18,-1
 758 1493 l 2,19,20
 1042 1494 1042 1494 1171 1366 c 0,21,22
 1299 1240 1299 1240 1254 1006 c 0,23,24
 1208 771 1208 771 1031 644.5 c 128,-1,25
 854 518 854 518 569 518 c 1,26,-1
 468 0 l 1,27,-1
 173 0 l 1,28,-1
 328 797 l 1,29,-1
 670 797 l 2,30,31
 782 797 782 797 853.5 851.5 c 128,-1,32
 925 906 925 906 944.5 1006 c 128,-1,33
 964 1106 964 1106 913 1160 c 0,34,35
 863 1214 863 1214 751 1214 c 2,36,-1
 549 1213 l 2,0,1
EndSplineSet
EndChar

StartChar: uni0244
Encoding: 580 580 493
Width: 1233
Flags: W
LayerCount: 2
Fore
SplineSet
45 352 m 0,0,1
 45 436 45 436 65 538 c 1,2,-1
 -17 538 l 1,3,-1
 21 730 l 1,4,-1
 103 730 l 1,5,-1
 252 1493 l 1,6,-1
 547 1493 l 1,7,-1
 398 730 l 1,8,-1
 828 730 l 1,9,-1
 977 1493 l 1,10,-1
 1272 1493 l 1,11,-1
 1122 730 l 1,12,-1
 1212 730 l 1,13,-1
 1174 538 l 1,14,-1
 1084 538 l 1,15,16
 1050 366 1050 366 1011 276 c 128,-1,17
 972 186 972 186 902 118 c 0,18,19
 754 -29 754 -29 517.5 -29 c 128,-1,20
 281 -29 281 -29 163 70 c 128,-1,21
 45 169 45 169 45 352 c 0,0,1
340 403 m 1,22,23
 340 321 340 321 386 276 c 128,-1,24
 432 231 432 231 528 231 c 0,25,26
 728 231 728 231 778 477 c 2,27,-1
 790 538 l 1,28,-1
 360 538 l 1,29,30
 346 474 346 474 340 403 c 1,22,23
EndSplineSet
EndChar

StartChar: uni0245
Encoding: 581 581 494
Width: 1233
Flags: W
LayerCount: 2
Fore
SplineSet
715 1251 m 1,0,-1
 209 0 l 1,1,-1
 -92 0 l 1,2,-1
 553 1493 l 1,3,-1
 965 1493 l 1,4,-1
 1030 0 l 1,5,-1
 739 0 l 1,6,-1
 715 1251 l 1,0,-1
EndSplineSet
EndChar

StartChar: uni024C
Encoding: 588 588 495
Width: 1233
Flags: W
LayerCount: 2
Fore
SplineSet
535 590 m 2,0,-1
 461 590 l 1,1,-1
 346 0 l 1,2,-1
 51 0 l 1,3,-1
 166 590 l 1,4,-1
 -9 590 l 1,5,-1
 39 838 l 1,6,-1
 214 838 l 1,7,-1
 341 1493 l 1,8,-1
 709 1493 l 2,9,10
 941 1493 941 1493 1053 1405.5 c 128,-1,11
 1165 1318 1165 1318 1165 1137 c 0,12,13
 1165 950 1165 950 1067 837.5 c 128,-1,14
 969 725 969 725 788 705 c 1,15,16
 849 696 849 696 883 660 c 128,-1,17
 917 624 917 624 944 537 c 2,18,-1
 1108 0 l 1,19,-1
 807 0 l 1,20,-1
 701 376 l 2,21,22
 698 386 698 386 693 403 c 0,23,24
 638 590 638 590 535 590 c 2,0,-1
509 838 m 1,25,-1
 590 838 l 2,26,27
 725 838 725 838 794.5 902 c 128,-1,28
 864 966 864 966 864 1090 c 0,29,30
 864 1168 864 1168 818 1206.5 c 128,-1,31
 772 1245 772 1245 680 1245 c 2,32,-1
 588 1245 l 1,33,-1
 509 838 l 1,25,-1
EndSplineSet
EndChar

StartChar: uni024D
Encoding: 589 589 496
Width: 1233
Flags: W
LayerCount: 2
Fore
SplineSet
1172 811 m 1,0,1
 1132 855 1132 855 1072 877 c 128,-1,2
 1012 899 1012 899 935 899 c 0,3,4
 842 899 842 899 766 866.5 c 128,-1,5
 690 834 690 834 640 772 c 0,6,7
 609 734 609 734 589 680 c 0,8,9
 581 660 581 660 574 632 c 1,10,-1
 952 632 l 1,11,-1
 914 438 l 1,12,-1
 532 438 l 1,13,-1
 447 0 l 1,14,-1
 154 0 l 1,15,-1
 239 438 l 1,16,-1
 140 438 l 1,17,-1
 178 632 l 1,18,-1
 277 632 l 1,19,-1
 372 1120 l 1,20,-1
 665 1120 l 1,21,-1
 631 946 l 1,22,23
 693 1042 693 1042 792 1094.5 c 128,-1,24
 891 1147 891 1147 1010 1147 c 0,25,26
 1070 1147 1070 1147 1124.5 1132.5 c 128,-1,27
 1179 1118 1179 1118 1226 1090 c 1,28,-1
 1172 811 l 1,0,1
EndSplineSet
EndChar

StartChar: uni0250
Encoding: 592 592 497
Width: 1233
Flags: W
LayerCount: 2
Fore
SplineSet
524 592 m 2,0,1
 688 592 688 592 761 634 c 0,2,3
 835 676 835 676 855 778 c 0,4,5
 869 854 869 854 832 899 c 0,6,7
 797 944 797 944 719 944 c 0,8,9
 603 944 603 944 522 856 c 0,10,11
 441 769 441 769 410 612 c 2,12,-1
 406 592 l 1,13,-1
 524 592 l 2,0,1
94 479 m 2,14,-1
 219 1118 l 1,15,-1
 509 1118 l 1,16,-1
 484 993 l 1,17,18
 553 1067 553 1067 643 1107 c 0,19,20
 734 1147 734 1147 834 1147 c 0,21,22
 1024 1147 1024 1147 1111.5 1046 c 128,-1,23
 1199 945 1199 945 1164 764 c 0,24,25
 1126 568 1126 568 979 474 c 0,26,27
 835 381 835 381 569 381 c 2,28,-1
 365 381 l 1,29,-1
 356 332 l 2,30,31
 342 261 342 261 387 224 c 0,32,33
 432 188 432 188 532 188 c 0,34,35
 636 188 636 188 740 214 c 0,36,37
 844 241 844 241 961 299 c 1,38,-1
 913 49 l 1,39,40
 809 9 809 9 705.5 -10 c 128,-1,41
 602 -29 602 -29 490 -29 c 0,42,43
 216 -29 216 -29 127.5 82 c 128,-1,44
 39 193 39 193 94 479 c 2,14,-1
EndSplineSet
EndChar

StartChar: uni0251
Encoding: 593 593 498
Width: 1233
Flags: W
LayerCount: 2
Fore
SplineSet
899 961 m 1,0,-1
 930 1119 l 1,1,-1
 1222 1119 l 1,2,-1
 1004 0 l 1,3,-1
 712 0 l 1,4,-1
 745 166 l 1,5,6
 679 69 679 69 595 20 c 256,7,8
 511 -29 511 -29 410 -29 c 0,9,10
 218 -29 218 -29 142 125 c 128,-1,11
 66 279 66 279 120 559 c 0,12,13
 175 843 175 843 313 995 c 0,14,15
 449 1147 449 1147 648 1147 c 0,16,17
 738 1147 738 1147 801 1100 c 0,18,19
 863 1054 863 1054 899 961 c 1,0,-1
412.5 557 m 128,-1,21
 381 395 381 395 417 303 c 128,-1,22
 453 211 453 211 548 211 c 128,-1,23
 643 211 643 211 716 303 c 128,-1,24
 789 395 789 395 820.5 557 c 128,-1,25
 852 719 852 719 815 811 c 128,-1,26
 778 903 778 903 683 903 c 128,-1,27
 588 903 588 903 516 811 c 128,-1,20
 444 719 444 719 412.5 557 c 128,-1,21
EndSplineSet
EndChar

StartChar: uni0252
Encoding: 594 594 499
Width: 1233
Flags: W
LayerCount: 2
Fore
SplineSet
334 157 m 1,0,-1
 303 -1 l 1,1,-1
 11 -1 l 1,2,-1
 229 1118 l 1,3,-1
 521 1118 l 1,4,-1
 488 952 l 1,5,6
 554 1049 554 1049 639 1098 c 0,7,8
 722 1147 722 1147 823 1147 c 0,9,10
 1015 1147 1015 1147 1091 993 c 128,-1,11
 1167 839 1167 839 1113 559 c 0,12,13
 1058 275 1058 275 921 123 c 256,14,15
 784 -29 784 -29 585 -29 c 0,16,17
 495 -29 495 -29 433 18 c 0,18,19
 370 64 370 64 334 157 c 1,0,-1
820.5 561 m 128,-1,21
 852 723 852 723 816 815 c 128,-1,22
 780 907 780 907 685 907 c 128,-1,23
 590 907 590 907 517 815 c 128,-1,24
 444 723 444 723 412.5 561 c 128,-1,25
 381 399 381 399 418 307 c 128,-1,26
 455 215 455 215 550 215 c 128,-1,27
 645 215 645 215 717 307 c 128,-1,20
 789 399 789 399 820.5 561 c 128,-1,21
EndSplineSet
EndChar

StartChar: uni0253
Encoding: 595 595 500
Width: 1233
Flags: W
LayerCount: 2
Fore
SplineSet
450 961 m 1,0,1
 523 1054 523 1054 604 1100 c 0,2,3
 684 1147 684 1147 774 1147 c 0,4,5
 973 1147 973 1147 1051 995 c 256,6,7
 1129 843 1129 843 1073 559 c 0,8,9
 1019 279 1019 279 883 125 c 128,-1,10
 747 -29 747 -29 555 -29 c 0,11,12
 454 -29 454 -29 388.5 20 c 128,-1,13
 323 69 323 69 296 166 c 1,14,-1
 264 0 l 1,15,-1
 -28 0 l 1,16,-1
 183 1088 l 2,17,18
 232 1340 232 1340 344 1447 c 0,19,20
 455 1555 455 1555 665 1555 c 2,21,-1
 786 1555 l 1,22,-1
 742 1330 l 1,23,-1
 703 1330 l 2,24,25
 603 1330 603 1330 551.5 1275 c 128,-1,26
 500 1220 500 1220 474 1088 c 1,27,-1
 475 1088 l 1,28,-1
 450 961 l 1,0,1
779.5 557 m 128,-1,30
 811 719 811 719 775 811 c 128,-1,31
 739 903 739 903 644 903 c 128,-1,32
 549 903 549 903 476 811 c 128,-1,33
 403 719 403 719 371.5 557 c 128,-1,34
 340 395 340 395 377.5 303 c 128,-1,35
 415 211 415 211 510 211 c 128,-1,36
 605 211 605 211 676.5 303 c 128,-1,29
 748 395 748 395 779.5 557 c 128,-1,30
EndSplineSet
EndChar

StartChar: uni0254
Encoding: 596 596 501
Width: 1233
Flags: W
LayerCount: 2
Fore
SplineSet
72 57 m 1,0,1
 72 57 72 57 125 326 c 1,2,3
 179 268 179 268 248 240 c 0,4,5
 316 211 316 211 401 211 c 0,6,7
 544 211 544 211 638.5 301 c 128,-1,8
 733 391 733 391 765.5 559 c 128,-1,9
 798 727 798 727 739 818 c 128,-1,10
 680 909 680 909 537 909 c 0,11,12
 455 909 455 909 372 880 c 0,13,14
 290 850 290 850 216 795 c 1,15,-1
 268 1063 l 1,16,17
 359 1107 359 1107 446 1128 c 0,18,19
 534 1149 534 1149 624 1149 c 0,20,21
 883 1149 883 1149 1000 992 c 0,22,23
 1117 836 1117 836 1063 559 c 0,24,25
 1009 283 1009 283 833 127 c 128,-1,26
 657 -29 657 -29 398 -29 c 0,27,28
 300 -29 300 -29 219 -8 c 0,29,30
 138 14 138 14 72 57 c 1,0,1
EndSplineSet
EndChar

StartChar: uni0255
Encoding: 597 597 502
Width: 1233
Flags: W
LayerCount: 2
Fore
SplineSet
609 232 m 1,0,1
 661 208 661 208 715 207 c 2,2,-1
 720 207 l 2,3,4
 867 207 867 207 877 264 c 0,5,6
 891 339 891 339 760 339 c 0,7,8
 677 339 677 339 609 232 c 1,0,1
474 334 m 1,9,-1
 480 351 l 1,10,11
 618 532 618 532 787 532 c 0,12,13
 1072 527 1072 527 1030 294 c 0,14,15
 972 -29 972 -29 657 -29 c 0,16,17
 555 -29 555 -29 552 -28 c 0,18,19
 549 -28 549 -28 546 -27 c 2,20,-1
 524 -141 l 1,21,-1
 324 -140 l 1,22,23
 342 -47 342 -47 357 24 c 1,24,25
 283 62 283 62 235 127 c 0,26,27
 119 283 119 283 173 559 c 0,28,29
 226 836 226 836 404 992 c 0,30,31
 582 1149 582 1149 840 1149 c 0,32,33
 930 1149 930 1149 1009 1128 c 0,34,35
 1090 1107 1090 1107 1164 1063 c 1,36,-1
 1112 795 l 1,37,38
 1058 850 1058 850 987 880 c 0,39,40
 917 909 917 909 835 909 c 0,41,42
 692 909 692 909 597 818 c 128,-1,43
 502 727 502 727 470 559 c 0,44,45
 440 405 440 405 474 334 c 1,9,-1
EndSplineSet
EndChar

StartChar: uni0256
Encoding: 598 598 503
Width: 1233
Flags: W
LayerCount: 2
Fore
SplineSet
355.5 557 m 128,-1,1
 324 395 324 395 349 303 c 128,-1,2
 374 211 374 211 450 211 c 128,-1,3
 526 211 526 211 588 303 c 128,-1,4
 650 395 650 395 681.5 557 c 128,-1,5
 713 719 713 719 686.5 811 c 128,-1,6
 660 903 660 903 584 903 c 128,-1,7
 508 903 508 903 447.5 811 c 128,-1,0
 387 719 387 719 355.5 557 c 128,-1,1
760 961 m 1,8,-1
 875 1556 l 1,9,-1
 1166 1556 l 1,10,-1
 890 136 l 2,11,12
 864 4 864 4 875.5 -51 c 128,-1,13
 887 -106 887 -106 941 -106 c 2,14,-1
 961 -106 l 1,15,-1
 918 -331 l 1,16,-1
 821 -331 l 2,17,18
 653 -331 653 -331 602 -223 c 0,19,20
 550 -116 550 -116 599 136 c 2,21,-1
 605 166 l 1,22,23
 549 69 549 69 480 20 c 256,24,25
 411 -29 411 -29 330 -29 c 0,26,27
 150 -29 150 -29 81 125 c 256,28,29
 12 279 12 279 67 559 c 0,30,31
 122 843 122 843 252 995 c 128,-1,32
 382 1147 382 1147 568 1147 c 0,33,34
 639 1147 639 1147 687 1100 c 0,35,36
 735 1054 735 1054 760 961 c 1,8,-1
EndSplineSet
EndChar

StartChar: uni0257
Encoding: 599 599 504
Width: 1233
Flags: W
LayerCount: 2
Fore
SplineSet
324.5 557 m 128,-1,1
 293 395 293 395 318.5 303 c 128,-1,2
 344 211 344 211 420 211 c 128,-1,3
 496 211 496 211 557.5 303 c 128,-1,4
 619 395 619 395 650.5 557 c 128,-1,5
 682 719 682 719 656 811 c 128,-1,6
 630 903 630 903 554 903 c 128,-1,7
 478 903 478 903 417 811 c 128,-1,0
 356 719 356 719 324.5 557 c 128,-1,1
1052 1088 m 2,8,-1
 840 0 l 1,9,-1
 543 0 l 1,10,-1
 575 166 l 1,11,12
 519 69 519 69 449.5 20 c 128,-1,13
 380 -29 380 -29 299 -29 c 0,14,15
 117 -29 117 -29 46.5 125 c 128,-1,16
 -24 279 -24 279 31 559 c 0,17,18
 86 843 86 843 217 995 c 128,-1,19
 348 1147 348 1147 537 1147 c 0,20,21
 609 1147 609 1147 657 1100 c 0,22,23
 705 1054 705 1054 729 961 c 1,24,-1
 756 1088 l 2,25,26
 810 1344 810 1344 899 1447 c 0,27,28
 992 1555 992 1555 1160 1555 c 2,29,-1
 1257 1555 l 1,30,-1
 1213 1330 l 1,31,-1
 1192 1330 l 2,32,33
 1140 1330 1140 1330 1109 1275 c 0,34,35
 1078 1222 1078 1222 1052 1088 c 2,8,-1
EndSplineSet
EndChar

StartChar: uni0258
Encoding: 600 600 505
Width: 1233
Flags: W
LayerCount: 2
Fore
SplineSet
37 55 m 1,0,1
 37 55 37 55 89 324 c 1,2,3
 184 261 184 261 276.5 232 c 128,-1,4
 369 203 369 203 470 203 c 0,5,6
 623 203 623 203 712.5 268 c 128,-1,7
 802 333 802 333 829 465 c 1,8,-1
 70 465 l 1,9,-1
 93 584 l 2,10,11
 145 852 145 852 312 1000 c 0,12,13
 477 1147 477 1147 726 1147 c 0,14,15
 973 1147 973 1147 1085 988 c 128,-1,16
 1197 829 1197 829 1144 555 c 0,17,18
 1089 272 1089 272 911 122 c 0,19,20
 734 -29 734 -29 453 -29 c 0,21,22
 335 -29 335 -29 233 -8 c 128,-1,23
 131 13 131 13 37 55 c 1,0,1
407 685 m 1,24,-1
 868 684 l 1,25,26
 879 797 879 797 831 858 c 0,27,28
 783 920 783 920 682 920 c 0,29,30
 570 920 570 920 501 860 c 0,31,32
 432 801 432 801 407 685 c 1,24,-1
EndSplineSet
EndChar

StartChar: uni0259
Encoding: 601 601 506
Width: 1233
Flags: W
LayerCount: 2
Fore
SplineSet
233 1063 m 1,0,1
 343 1105 343 1105 453 1126 c 128,-1,2
 563 1147 563 1147 681 1147 c 0,3,4
 962 1147 962 1147 1081 996 c 0,5,6
 1201 846 1201 846 1146 563 c 0,7,8
 1093 289 1093 289 919 130 c 128,-1,9
 745 -29 745 -29 498 -29 c 0,10,11
 249 -29 249 -29 140 118 c 0,12,13
 31 266 31 266 83 534 c 2,14,-1
 106 653 l 1,15,-1
 865 653 l 1,16,17
 890 785 890 785 825.5 850 c 128,-1,18
 761 915 761 915 608 915 c 0,19,20
 507 915 507 915 403.5 886 c 128,-1,21
 300 857 300 857 181 794 c 1,22,-1
 233 1063 l 1,0,1
359 433 m 1,23,24
 338 317 338 317 383 258 c 0,25,26
 430 198 430 198 542 198 c 0,27,28
 643 198 643 198 715 260 c 0,29,30
 787 321 787 321 820 434 c 1,31,-1
 359 433 l 1,23,24
EndSplineSet
EndChar

StartChar: uni025A
Encoding: 602 602 507
Width: 1233
Flags: W
LayerCount: 2
Fore
SplineSet
603 540 m 1,0,-1
 238 295 l 1,1,2
 241 283 241 283 247 272 c 0,3,4
 280 209 280 209 352 209 c 0,5,6
 430 209 430 209 490 268 c 0,7,8
 550 326 550 326 583 436 c 1,9,-1
 603 540 l 1,0,-1
903 736 m 1,10,11
 903 655 903 655 884 559 c 0,12,13
 831 285 831 285 676.5 128 c 128,-1,14
 522 -29 522 -29 304 -29 c 0,15,16
 106 -29 106 -29 18 130 c 0,17,18
 -30 216 -30 216 -37 334 c 1,19,-1
 626 777 l 1,20,21
 618 818 618 818 598 846 c 0,22,23
 551 909 551 909 447 909 c 0,24,25
 362 909 362 909 267 876 c 0,26,27
 171 842 171 842 64 774 c 1,28,-1
 117 1050 l 1,29,30
 223 1098 223 1098 322 1122 c 0,31,32
 422 1147 422 1147 517 1147 c 0,33,34
 745 1147 745 1147 842 992 c 0,35,36
 857 969 857 969 867 942 c 1,37,-1
 1058 1072 l 1,38,-1
 1208 1074 l 1,39,-1
 1175 903 l 2,40,41
 1131 678 1131 678 1133 671 c 0,42,43
 1151 616 1151 616 1204 616 c 2,44,-1
 1237 616 l 1,45,-1
 1202 436 l 1,46,-1
 1130 436 l 2,47,48
 1017 436 1017 436 980 547 c 1,49,50
 973 638 973 638 1006 804 c 1,51,-1
 903 736 l 1,10,11
EndSplineSet
EndChar

StartChar: uni025B
Encoding: 603 603 508
Width: 1233
Flags: W
LayerCount: 2
Fore
SplineSet
426 573 m 1,0,1
 291 599 291 599 232 663 c 0,2,3
 171 729 171 729 188 816 c 0,4,5
 222 989 222 989 377.5 1068 c 128,-1,6
 533 1147 533 1147 774 1147 c 0,7,8
 867 1147 867 1147 968 1135 c 0,9,10
 1072 1123 1072 1123 1188 1099 c 1,11,-1
 1142 863 l 1,12,13
 1012 894 1012 894 930 903 c 0,14,15
 825 915 825 915 821 915 c 0,16,17
 699 915 699 915 644 891 c 0,18,19
 551 853 551 853 542 804 c 0,20,21
 529 735 529 735 606 705 c 0,22,23
 663 681 663 681 767 681 c 2,24,-1
 884 681 l 1,25,-1
 841 462 l 1,26,-1
 658 462 l 2,27,28
 608 462 608 462 540 441 c 0,29,30
 438 409 438 409 423 330 c 0,31,32
 406 241 406 241 504 216 c 1,33,34
 536 201 536 201 649 201 c 0,35,36
 763 201 763 201 871 219 c 0,37,38
 980 236 980 236 1074 270 c 1,39,-1
 1028 34 l 1,40,41
 912 6 912 6 805 -8 c 0,42,43
 697 -22 697 -22 599 -22 c 0,44,45
 304 -22 304 -22 165 69 c 0,46,47
 24 161 24 161 46 273 c 0,48,49
 71 402 71 402 170.5 476 c 128,-1,50
 270 550 270 550 426 573 c 1,0,1
EndSplineSet
EndChar

StartChar: uni025C
Encoding: 604 604 509
Width: 1233
Flags: W
LayerCount: 2
Fore
SplineSet
811 573 m 1,0,1
 959 550 959 550 1029.5 476 c 128,-1,2
 1100 402 1100 402 1075 273 c 0,3,4
 1053 161 1053 161 876 69 c 0,5,6
 701 -22 701 -22 406 -22 c 0,7,8
 308 -22 308 -22 206 -8 c 0,9,10
 105 6 105 6 -1 34 c 1,11,-1
 45 270 l 1,12,13
 127 236 127 236 228 219 c 0,14,15
 330 201 330 201 444 201 c 0,16,17
 557 201 557 201 595 216 c 1,18,19
 703 241 703 241 720 330 c 0,20,21
 735 409 735 409 645 441 c 0,22,23
 585 462 585 462 535 462 c 2,24,-1
 352 462 l 1,25,-1
 395 681 l 1,26,-1
 512 681 l 2,27,28
 616 681 616 681 683 705 c 0,29,30
 772 735 772 735 785 804 c 0,31,32
 794 853 794 853 717 891 c 0,33,34
 672 915 672 915 550 915 c 0,35,36
 546 915 546 915 435 903 c 0,37,38
 349 894 349 894 207 863 c 1,39,-1
 253 1099 l 1,40,41
 379 1123 379 1123 487 1135 c 0,42,43
 594 1147 594 1147 687 1147 c 0,44,45
 928 1147 928 1147 1052.5 1068 c 128,-1,46
 1177 989 1177 989 1143 816 c 0,47,48
 1126 729 1126 729 1041 663 c 0,49,50
 956 599 956 599 811 573 c 1,0,1
EndSplineSet
EndChar

StartChar: uni025D
Encoding: 605 605 510
Width: 1233
Flags: W
LayerCount: 2
Fore
SplineSet
581 573 m 1,0,1
 691 550 691 550 739 476 c 0,2,3
 789 402 789 402 764 273 c 0,4,5
 742 161 742 161 605 69 c 0,6,7
 470 -22 470 -22 248 -22 c 0,8,9
 174 -22 174 -22 99 -8 c 128,-1,10
 24 6 24 6 -55 34 c 1,11,-1
 -9 270 l 1,12,13
 52 236 52 236 126 219 c 0,14,15
 202 201 202 201 287 201 c 0,16,17
 359 201 359 201 401 216 c 0,18,19
 484 246 484 246 501 330 c 0,20,21
 516 409 516 409 449 441 c 0,22,23
 406 462 406 462 368 462 c 2,24,-1
 231 462 l 1,25,-1
 274 681 l 1,26,-1
 362 681 l 2,27,28
 437 681 437 681 491 705 c 0,29,30
 560 735 560 735 573 804 c 0,31,32
 582 850 582 850 526 891 c 0,33,34
 493 915 493 915 402 915 c 0,35,36
 399 915 399 915 314 903 c 0,37,38
 250 894 250 894 142 863 c 1,39,-1
 188 1099 l 1,40,41
 283 1123 283 1123 365 1135 c 256,42,43
 447 1147 447 1147 516 1147 c 0,44,45
 696 1147 696 1147 785 1068 c 0,46,47
 838 1022 838 1022 848 944 c 1,48,-1
 1032 1072 l 1,49,-1
 1182 1074 l 1,50,-1
 1149 903 l 2,51,52
 1108 690 1108 690 1113 671 c 0,53,54
 1130 616 1130 616 1162 616 c 2,55,-1
 1195 616 l 1,56,-1
 1160 436 l 1,57,-1
 1088 436 l 2,58,59
 998 436 998 436 960 547 c 1,60,61
 948 638 948 638 980 804 c 1,62,-1
 711 623 l 1,63,-1
 710 626 l 1,64,65
 655 590 655 590 581 573 c 1,0,1
EndSplineSet
EndChar

StartChar: uni025E
Encoding: 606 606 511
Width: 1233
Flags: W
LayerCount: 2
Fore
SplineSet
720 915 m 0,0,1
 455 915 455 915 383 552 c 0,2,3
 312 188 312 188 610 188 c 0,4,5
 680 188 680 188 726 216 c 0,6,7
 786 253 786 253 798 316 c 0,8,9
 812 388 812 388 760 420 c 0,10,11
 727 442 727 442 653 442 c 2,12,-1
 521 442 l 1,13,-1
 563 661 l 1,14,-1
 696 661 l 2,15,16
 760 661 760 661 807 684 c 0,17,18
 876 718 876 718 891 792 c 0,19,20
 901 847 901 847 849 882 c 0,21,22
 799 916 799 916 720 915 c 0,0,1
515 1099 m 0,23,24
 613 1144 613 1144 811 1145 c 0,25,26
 1019 1145 1019 1145 1114 1059 c 0,27,28
 1207 972 1207 972 1178 824 c 0,29,30
 1159 726 1159 726 1086 650 c 0,31,32
 1016 578 1016 578 876 552 c 1,33,34
 1002 526 1002 526 1048 453 c 0,35,36
 1092 382 1092 382 1072 279 c 0,37,38
 1043 131 1043 131 917 45 c 256,39,40
 791 -41 791 -41 581 -42 c 0,41,42
 382 -43 382 -43 305 18 c 0,43,44
 44 220 44 220 108 552 c 0,45,46
 185 948 185 948 515 1099 c 0,23,24
EndSplineSet
EndChar

StartChar: uni025F
Encoding: 607 607 512
Width: 1233
Flags: W
LayerCount: 2
Fore
SplineSet
791 43 m 2,0,1
 742 -209 742 -209 630.5 -316.5 c 128,-1,2
 519 -424 519 -424 309 -424 c 2,3,-1
 -7 -424 l 1,4,-1
 37 -199 l 1,5,-1
 271 -199 l 2,6,7
 369 -199 369 -199 420.5 -144 c 128,-1,8
 472 -89 472 -89 498 43 c 2,9,-1
 574 438 l 1,10,-1
 295 438 l 1,11,-1
 333 632 l 1,12,-1
 612 632 l 1,13,-1
 663 895 l 1,14,-1
 366 895 l 1,15,-1
 410 1120 l 1,16,-1
 1000 1120 l 1,17,-1
 905 632 l 1,18,-1
 1107 632 l 1,19,-1
 1069 438 l 1,20,-1
 867 438 l 1,21,-1
 791 43 l 2,0,1
EndSplineSet
EndChar

StartChar: uni0260
Encoding: 608 608 513
Width: 1233
Flags: W
LayerCount: 2
Fore
SplineSet
565 887 m 2,0,1
 476 887 476 887 411 805 c 0,2,3
 345 723 345 723 316 573 c 0,4,5
 286 419 286 419 318 340 c 0,6,7
 351 260 351 260 443 260 c 0,8,9
 533 260 533 260 598 342 c 0,10,11
 664 424 664 424 693 573 c 2,12,-1
 754 887 l 1,13,-1
 565 887 l 2,0,1
618 190 m 1,14,15
 540 92 540 92 459 46 c 0,16,17
 379 0 379 0 286 0 c 0,18,19
 122 0 122 0 46 162 c 0,20,21
 -30 323 -30 323 19 573 c 0,22,23
 62 799 62 799 201 960 c 0,24,25
 340 1120 340 1120 504 1120 c 2,26,-1
 799 1120 l 1,27,-1
 801 1120 l 1,28,29
 846 1324 846 1324 950 1438 c 0,30,31
 1060 1556 1060 1556 1184 1556 c 2,32,-1
 1409 1556 l 1,33,-1
 1363 1321 l 1,34,-1
 1230 1321 l 2,35,36
 1188 1321 1188 1321 1149 1275 c 0,37,38
 1109 1229 1109 1229 1083 1094 c 2,39,-1
 1040 874 l 1,40,-1
 1039 874 l 1,41,-1
 891 113 l 2,42,43
 842 -141 842 -141 677 -284 c 0,44,45
 513 -426 513 -426 254 -426 c 0,46,47
 170 -426 170 -426 94 -410 c 0,48,49
 20 -394 20 -394 -53 -361 c 1,50,-1
 -2 -98 l 1,51,52
 63 -152 63 -152 130 -178 c 0,53,54
 196 -205 196 -205 269 -205 c 0,55,56
 410 -205 410 -205 490 -128 c 0,57,58
 571 -51 571 -51 603 113 c 2,59,-1
 618 190 l 1,14,15
EndSplineSet
EndChar

StartChar: uni0261
Encoding: 609 609 514
Width: 1233
Flags: W
LayerCount: 2
Fore
SplineSet
783 190 m 1,0,1
 703 92 703 92 621.5 46 c 128,-1,2
 540 0 540 0 445 0 c 0,3,4
 276 0 276 0 198 162 c 0,5,6
 119 323 119 323 168 573 c 0,7,8
 212 799 212 799 353 960 c 0,9,10
 493 1120 493 1120 662 1120 c 2,11,-1
 964 1120 l 1,12,-1
 1259 1120 l 1,13,-1
 1064 113 l 2,14,15
 1014 -141 1014 -141 847 -284 c 0,16,17
 680 -426 680 -426 414 -426 c 0,18,19
 328 -426 328 -426 251 -410 c 0,20,21
 173 -394 173 -394 98 -361 c 1,22,-1
 150 -98 l 1,23,24
 216 -152 216 -152 285 -178 c 0,25,26
 354 -205 354 -205 428 -205 c 0,27,28
 573 -205 573 -205 655 -128 c 128,-1,29
 737 -51 737 -51 769 113 c 2,30,-1
 783 190 l 1,0,1
726 887 m 2,31,32
 635 887 635 887 568 805 c 128,-1,33
 501 723 501 723 472 573 c 0,34,35
 442 419 442 419 476 340 c 0,36,37
 509 260 509 260 604 260 c 0,38,39
 695 260 695 260 762 342 c 128,-1,40
 829 424 829 424 858 573 c 2,41,-1
 919 887 l 1,42,-1
 726 887 l 2,31,32
EndSplineSet
EndChar

StartChar: uni0262
Encoding: 610 610 515
Width: 1233
Flags: W
LayerCount: 2
Fore
SplineSet
990 101 m 1,0,1
 887 51 887 51 781 25 c 0,2,3
 676 0 676 0 569 0 c 0,4,5
 327 0 327 0 216 151 c 0,6,7
 104 301 104 301 154 559 c 0,8,9
 205 820 205 820 378 970 c 0,10,11
 551 1119 551 1119 801 1119 c 0,12,13
 897 1119 897 1119 982 1099 c 0,14,15
 1066 1079 1066 1079 1137 1039 c 1,16,-1
 1091 803 l 1,17,18
 1020 852 1020 852 945 876 c 0,19,20
 868 900 868 900 788 900 c 0,21,22
 639 900 639 900 541 811 c 0,23,24
 444 723 444 723 412 559 c 0,25,26
 380 397 380 397 440 308 c 0,27,28
 501 219 501 219 644 219 c 0,29,30
 683 219 683 219 718 225 c 0,31,32
 752 230 752 230 781 241 c 1,33,-1
 812 409 l 1,34,-1
 564 409 l 1,35,-1
 607 630 l 1,36,-1
 1093 630 l 1,37,-1
 990 101 l 1,0,1
EndSplineSet
EndChar

StartChar: uni0263
Encoding: 611 611 516
Width: 1233
Flags: W
LayerCount: 2
Fore
SplineSet
836 590 m 1,0,1
 1004 208 1004 208 931 -179 c 0,2,3
 887 -411 887 -411 477 -415 c 0,4,5
 26 -420 26 -420 72 -179 c 0,6,7
 138 163 138 163 486 588 c 1,8,-1
 249 1135 l 1,9,-1
 572 1135 l 1,10,-1
 701 803 l 1,11,-1
 963 1135 l 1,12,-1
 1286 1135 l 1,13,-1
 836 590 l 1,0,1
617 369 m 1,14,15
 366 59 366 59 344 -67 c 0,16,17
 322 -191 322 -191 503 -191 c 0,18,19
 677 -191 677 -191 701 -67 c 0,20,21
 732 95 732 95 617 369 c 1,14,15
EndSplineSet
EndChar

StartChar: uni0264
Encoding: 612 612 517
Width: 1233
Flags: W
LayerCount: 2
Fore
SplineSet
543 136 m 1,0,1
 588 136 588 136 605 223 c 0,2,3
 617 282 617 282 587 354 c 1,4,5
 528 280 528 280 517 223 c 0,6,7
 501 140 501 140 543 136 c 1,0,1
454 586 m 1,8,-1
 219 1120 l 1,9,-1
 542 1120 l 1,10,-1
 671 788 l 1,11,-1
 933 1120 l 1,12,-1
 1256 1120 l 1,13,-1
 805 575 l 1,14,15
 909 336 909 336 870 132 c 0,16,17
 824 -120 824 -120 496 -120 c 0,18,19
 159 -120 159 -120 208 132 c 0,20,21
 250 344 250 344 454 586 c 1,8,-1
EndSplineSet
EndChar

StartChar: uni0265
Encoding: 613 613 518
Width: 1233
Flags: W
LayerCount: 2
Fore
SplineSet
177 391 m 2,0,-1
 318 1118 l 1,1,-1
 609 1118 l 1,2,-1
 477 436 l 2,3,4
 453 315 453 315 477 263 c 0,5,6
 502 211 502 211 580 211 c 0,7,8
 660 211 660 211 719 282 c 0,9,10
 777 352 777 352 802 477 c 2,11,-1
 926 1118 l 1,12,-1
 1217 1118 l 1,13,-1
 915 -438 l 1,14,-1
 624 -438 l 1,15,-1
 741 166 l 1,16,17
 692 73 692 73 607 22 c 128,-1,18
 522 -29 522 -29 416 -29 c 0,19,20
 257 -29 257 -29 197 76 c 0,21,22
 136 182 136 182 177 391 c 2,0,-1
EndSplineSet
EndChar

StartChar: uni0266
Encoding: 614 614 519
Width: 1233
Flags: W
LayerCount: 2
Fore
SplineSet
1056 727 m 2,0,-1
 915 0 l 1,1,-1
 624 0 l 1,2,-1
 756 682 l 2,3,4
 780 803 780 803 755 855 c 0,5,6
 731 907 731 907 653 907 c 0,7,8
 573 907 573 907 514 836 c 0,9,10
 456 766 456 766 431 641 c 2,11,-1
 307 0 l 1,12,-1
 16 0 l 1,13,-1
 227 1088 l 2,14,15
 276 1340 276 1340 388 1447 c 0,16,17
 499 1555 499 1555 709 1555 c 2,18,-1
 830 1555 l 1,19,-1
 786 1330 l 1,20,-1
 747 1330 l 2,21,22
 647 1330 647 1330 595.5 1275 c 128,-1,23
 544 1220 544 1220 518 1088 c 2,24,-1
 492 952 l 1,25,26
 541 1045 541 1045 626 1096 c 128,-1,27
 711 1147 711 1147 817 1147 c 0,28,29
 976 1147 976 1147 1036 1042 c 0,30,31
 1097 936 1097 936 1056 727 c 2,0,-1
EndSplineSet
EndChar

StartChar: uni0267
Encoding: 615 615 520
Width: 1233
Flags: W
LayerCount: 2
Fore
SplineSet
673 41 m 2,0,-1
 798 682 l 2,1,2
 821 803 821 803 796 855 c 0,3,4
 773 907 773 907 695 907 c 0,5,6
 615 907 615 907 556 836 c 0,7,8
 497 766 497 766 473 641 c 2,9,-1
 348 0 l 1,10,-1
 57 0 l 1,11,-1
 269 1088 l 2,12,13
 318 1340 318 1340 430 1447 c 0,14,15
 541 1555 541 1555 751 1555 c 2,16,-1
 872 1555 l 1,17,-1
 828 1330 l 1,18,-1
 789 1330 l 2,19,20
 689 1330 689 1330 637 1275 c 128,-1,21
 585 1220 585 1220 560 1088 c 2,22,-1
 533 952 l 1,23,24
 582 1045 582 1045 667 1096 c 128,-1,25
 752 1147 752 1147 858 1147 c 0,26,27
 1017 1147 1017 1147 1078 1042 c 0,28,29
 1138 936 1138 936 1098 727 c 2,30,-1
 956 0 l 1,31,32
 906 -220 906 -220 803 -318 c 0,33,34
 692 -426 692 -426 482 -426 c 2,35,-1
 361 -426 l 1,36,-1
 405 -201 l 1,37,-1
 444 -201 l 2,38,39
 544 -201 544 -201 596 -146 c 128,-1,40
 648 -91 648 -91 673 41 c 2,0,-1
EndSplineSet
EndChar

StartChar: uni0268
Encoding: 616 616 521
Width: 1233
Flags: W
LayerCount: 2
Fore
SplineSet
557 1556 m 1,0,-1
 915 1556 l 1,1,-1
 858 1264 l 1,2,-1
 500 1264 l 1,3,-1
 557 1556 l 1,0,-1
250 1120 m 1,4,-1
 830 1120 l 1,5,-1
 736 632 l 1,6,-1
 938 632 l 1,7,-1
 900 438 l 1,8,-1
 698 438 l 1,9,-1
 657 225 l 1,10,-1
 1021 225 l 1,11,-1
 977 0 l 1,12,-1
 -45 0 l 1,13,-1
 -1 225 l 1,14,-1
 363 225 l 1,15,-1
 404 438 l 1,16,-1
 340 438 l 1,17,-1
 126 438 l 1,18,-1
 164 632 l 1,19,-1
 442 632 l 1,20,-1
 493 895 l 1,21,-1
 207 895 l 1,22,-1
 250 1120 l 1,4,-1
EndSplineSet
EndChar

StartChar: uni0269
Encoding: 617 617 522
Width: 1233
Flags: W
LayerCount: 2
Fore
SplineSet
495 895 m 1,0,-1
 209 895 l 1,1,-1
 253 1120 l 1,2,-1
 833 1120 l 1,3,-1
 705 460 l 2,4,5
 677 318 677 318 706 272 c 0,6,7
 736 227 736 227 837 226 c 2,8,-1
 1023 225 l 1,9,-1
 979 -3 l 1,10,-1
 745 -3 l 2,11,12
 540 -3 540 -3 454 115 c 0,13,14
 367 235 367 235 411 459 c 2,15,-1
 495 895 l 1,0,-1
EndSplineSet
EndChar

StartChar: uni026A
Encoding: 618 618 523
Width: 1233
Flags: W
LayerCount: 2
Fore
SplineSet
829 895 m 1,0,-1
 699 225 l 1,1,-1
 1063 225 l 1,2,-1
 1019 0 l 1,3,-1
 -3 0 l 1,4,-1
 41 225 l 1,5,-1
 405 225 l 1,6,-1
 535 895 l 1,7,-1
 171 895 l 1,8,-1
 215 1120 l 1,9,-1
 1237 1120 l 1,10,-1
 1193 895 l 1,11,-1
 829 895 l 1,0,-1
EndSplineSet
EndChar

StartChar: uni026B
Encoding: 619 619 524
Width: 1233
Flags: W
LayerCount: 2
Fore
SplineSet
1151 811 m 1,0,-1
 1106 578 l 1,1,2
 1020 518 1020 518 942 490 c 0,3,4
 865 463 865 463 787 463 c 0,5,6
 733 463 733 463 675 481 c 1,7,-1
 672 465 l 2,8,9
 646 333 646 333 675 278 c 0,10,11
 707 223 707 223 805 223 c 2,12,-1
 1039 223 l 1,13,-1
 995 -2 l 1,14,-1
 679 -2 l 2,15,16
 469 -2 469 -2 400 106 c 0,17,18
 329 214 329 214 378 465 c 2,19,-1
 400 582 l 1,20,21
 372 586 372 586 343 586 c 0,22,23
 265 586 265 586 189.5 557 c 128,-1,24
 114 528 114 528 28 465 c 1,25,-1
 72 694 l 1,26,27
 162 755 162 755 239 782 c 0,28,29
 318 809 318 809 400 809 c 0,30,31
 423 809 423 809 444 807 c 1,32,-1
 545 1329 l 1,33,-1
 249 1329 l 1,34,-1
 293 1554 l 1,35,-1
 883 1554 l 1,36,-1
 719 709 l 1,37,38
 785 686 785 686 847 686 c 0,39,40
 917 686 917 686 990 716 c 0,41,42
 1066 747 1066 747 1151 811 c 1,0,-1
EndSplineSet
EndChar

StartChar: uni026C
Encoding: 620 620 525
Width: 1233
Flags: W
LayerCount: 2
Fore
SplineSet
393 816 m 0,0,1
 370 842 370 842 339 842 c 0,2,3
 280 842 280 842 272 792 c 0,4,5
 262 736 262 736 312 736 c 2,6,-1
 408 736 l 1,7,8
 408 799 408 799 393 816 c 0,0,1
672 579 m 1,9,-1
 651 467 l 2,10,11
 625 335 625 335 655.5 280 c 128,-1,12
 686 225 686 225 784 225 c 2,13,-1
 1018 225 l 1,14,-1
 974 0 l 1,15,-1
 658 0 l 2,16,17
 449 0 449 0 379 108 c 128,-1,18
 309 216 309 216 358 467 c 2,19,-1
 379 578 l 1,20,-1
 256 578 l 2,21,22
 72 579 72 579 110 786 c 0,23,24
 153 1020 153 1020 362 1019 c 0,25,26
 426 1018 426 1018 457 977 c 1,27,-1
 525 1331 l 1,28,-1
 228 1331 l 1,29,-1
 272 1556 l 1,30,-1
 862 1556 l 1,31,-1
 703 736 l 1,32,-1
 972 736 l 1,33,-1
 942 580 l 1,34,-1
 672 579 l 1,9,-1
EndSplineSet
EndChar

StartChar: uni026D
Encoding: 621 621 526
Width: 1233
Flags: W
LayerCount: 2
Fore
SplineSet
308 23 m 2,0,-1
 563 1331 l 1,1,-1
 265 1331 l 1,2,-1
 308 1556 l 1,3,-1
 898 1556 l 1,4,-1
 600 23 l 2,5,6
 575 -109 575 -109 606 -164 c 0,7,8
 635 -219 635 -219 733 -219 c 2,9,-1
 967 -219 l 1,10,-1
 924 -444 l 1,11,-1
 608 -444 l 2,12,13
 400 -444 400 -444 329 -336 c 0,14,15
 260 -228 260 -228 308 23 c 2,0,-1
EndSplineSet
EndChar

StartChar: uni026E
Encoding: 622 622 527
Width: 1233
Flags: W
LayerCount: 2
Fore
SplineSet
577 452 m 1,0,-1
 957 901 l 1,1,-1
 535 901 l 1,2,-1
 451 467 l 2,3,4
 425 335 425 335 445.5 280 c 128,-1,5
 466 225 466 225 539 225 c 2,6,-1
 715 225 l 1,7,-1
 671 0 l 1,8,-1
 434 0 l 2,9,10
 277 0 277 0 230 108 c 128,-1,11
 183 216 183 216 231 467 c 2,12,-1
 399 1331 l 1,13,-1
 177 1331 l 1,14,-1
 220 1556 l 1,15,-1
 663 1556 l 1,16,-1
 578 1120 l 1,17,-1
 1246 1120 l 1,18,-1
 1202 891 l 1,19,-1
 820 436 l 1,20,21
 927 427 927 427 981 404 c 0,22,23
 1058 371 1058 371 1095 258 c 0,24,25
 1129 156 1129 156 1101 13 c 0,26,27
 1058 -209 1058 -209 921 -324 c 0,28,29
 783 -440 783 -440 563 -440 c 0,30,31
 486 -440 486 -440 411 -422 c 0,32,33
 337 -403 337 -403 267 -366 c 1,34,-1
 325 -69 l 1,35,36
 386 -122 386 -122 454 -150 c 128,-1,37
 522 -178 522 -178 590 -178 c 0,38,39
 694 -178 694 -178 759 -125 c 128,-1,40
 824 -72 824 -72 843 27 c 0,41,42
 863 129 863 129 817 182 c 0,43,44
 771 234 771 234 661 234 c 2,45,-1
 535 234 l 1,46,-1
 577 452 l 1,0,-1
EndSplineSet
EndChar

StartChar: uni026F
Encoding: 623 623 528
Width: 1233
Flags: W
LayerCount: 2
Fore
SplineSet
461 112 m 1,0,1
 414 41 414 41 356.5 7 c 128,-1,2
 299 -27 299 -27 225 -27 c 0,3,4
 80 -27 80 -27 44 73 c 0,5,6
 7 173 7 173 69 489 c 2,7,-1
 191 1120 l 1,8,-1
 431 1120 l 1,9,-1
 292 401 l 2,10,11
 267 276 267 276 278 234 c 128,-1,12
 289 192 289 192 339 192 c 128,-1,13
 389 192 389 192 417.5 235 c 128,-1,14
 446 278 446 278 470 401 c 2,15,-1
 609 1120 l 1,16,-1
 846 1120 l 1,17,-1
 707 401 l 2,18,19
 683 278 683 278 694.5 235 c 128,-1,20
 706 192 706 192 756 192 c 128,-1,21
 806 192 806 192 833 234 c 128,-1,22
 860 276 860 276 885 401 c 2,23,-1
 1024 1120 l 1,24,-1
 1264 1120 l 1,25,-1
 1047 0 l 1,26,-1
 834 0 l 1,27,-1
 856 116 l 1,28,29
 818 50 818 50 756 12 c 0,30,31
 694 -27 694 -27 626 -27 c 128,-1,32
 558 -27 558 -27 509 14 c 0,33,34
 461 54 461 54 461 112 c 1,0,1
EndSplineSet
EndChar

StartChar: uni0270
Encoding: 624 624 529
Width: 1233
Flags: W
LayerCount: 2
Fore
SplineSet
499 112 m 1,0,1
 453 41 453 41 395 7 c 128,-1,2
 337 -27 337 -27 263 -27 c 0,3,4
 118 -27 118 -27 83 73 c 0,5,6
 46 173 46 173 108 489 c 2,7,-1
 230 1120 l 1,8,-1
 470 1120 l 1,9,-1
 330 401 l 2,10,11
 306 276 306 276 317 234 c 128,-1,12
 328 192 328 192 378 192 c 128,-1,13
 428 192 428 192 456.5 235 c 128,-1,14
 485 278 485 278 508 401 c 2,15,-1
 648 1120 l 1,16,-1
 885 1120 l 1,17,-1
 745 401 l 2,18,19
 722 278 722 278 733.5 235 c 128,-1,20
 745 192 745 192 795 192 c 128,-1,21
 845 192 845 192 872 234 c 128,-1,22
 899 276 899 276 923 401 c 2,23,-1
 1063 1120 l 1,24,-1
 1303 1120 l 1,25,-1
 1003 -426 l 1,26,-1
 790 -426 l 1,27,-1
 895 116 l 1,28,29
 857 50 857 50 795 12 c 0,30,31
 732 -27 732 -27 664 -27 c 128,-1,32
 596 -27 596 -27 548 14 c 0,33,34
 500 54 500 54 499 112 c 1,0,1
EndSplineSet
EndChar

